<?xml version="1.0" encoding="UTF-8"?>
<svg width="60px" height="52px" viewBox="0 0 60 52" version="1.1" xmlns="http://www.w3.org/2000/svg" xmlns:xlink="http://www.w3.org/1999/xlink">
    <!-- Generator: Sketch 64 (93537) - https://sketch.com -->
    <title>Group 22</title>
    <desc>Created with Sketch.</desc>
    <defs>
        <path d="M24,24 C28.42,24 32,20.42 32,16 C32,11.58 28.42,8 24,8 C19.58,8 16,11.58 16,16 C16,20.42 19.58,24 24,24 Z M24,28 C18.66,28 8,30.68 8,36 L8,38 C8,39.1 8.9,40 10,40 L38,40 C39.1,40 40,39.1 40,38 L40,36 C40,30.68 29.34,28 24,28 Z" id="path-1"></path>
    </defs>
    <g id="Page-1" stroke="none" stroke-width="1" fill="none" fill-rule="evenodd">
        <g id="Laptop" transform="translate(-338.000000, -892.000000)">
            <g id="Group-25-Copy" transform="translate(204.000000, 844.000000)">
                <g id="Group-22" transform="translate(134.000000, 48.000000)">
                    <polygon id="Triangle" fill="#F9DDAC" transform="translate(30.000000, 24.000000) scale(1, -1) translate(-30.000000, -24.000000) " points="30 0 60 48 0 48"></polygon>
                    <g id="icon-/-user" transform="translate(12.000000, 12.000000)">
                        <rect id="bounding-box" x="0" y="0" width="48" height="48"></rect>
                        <mask id="mask-2" fill="white">
                            <use xlink:href="#path-1"></use>
                        </mask>
                        <use id="Shape" fill="#000000" fill-rule="nonzero" xlink:href="#path-1"></use>
                        <g id="color-/-slate-/-base" mask="url(#mask-2)" fill="#253348" fill-rule="nonzero">
                            <rect id="color" x="0" y="0" width="48" height="48"></rect>
                        </g>
                    </g>
                </g>
            </g>
        </g>
    </g>
</svg>