<?xml version="1.0" encoding="UTF-8"?>
<svg width="54px" height="54px" viewBox="0 0 54 54" version="1.1" xmlns="http://www.w3.org/2000/svg" xmlns:xlink="http://www.w3.org/1999/xlink">
    <!-- Generator: Sketch 64 (93537) - https://sketch.com -->
    <title>Group 21</title>
    <desc>Created with Sketch.</desc>
    <defs>
        <path d="M34,22 L34,10 C34,7.8 32.2,6 30,6 L18,6 C15.8,6 14,7.8 14,10 L14,14 L10,14 C7.8,14 6,15.8 6,18 L6,38 C6,40.2 7.8,42 10,42 L20,42 C21.1,42 22,41.1 22,40 L22,34 L26,34 L26,40 C26,41.1 26.9,42 28,42 L38,42 C40.2,42 42,40.2 42,38 L42,26 C42,23.8 40.2,22 38,22 L34,22 Z M14,38 L10,38 L10,34 L14,34 L14,38 Z M14,30 L10,30 L10,26 L14,26 L14,30 Z M14,22 L10,22 L10,18 L14,18 L14,22 Z M22,30 L18,30 L18,26 L22,26 L22,30 Z M22,22 L18,22 L18,18 L22,18 L22,22 Z M22,14 L18,14 L18,10 L22,10 L22,14 Z M30,30 L26,30 L26,26 L30,26 L30,30 Z M30,22 L26,22 L26,18 L30,18 L30,22 Z M30,14 L26,14 L26,10 L30,10 L30,14 Z M38,38 L34,38 L34,34 L38,34 L38,38 Z M38,30 L34,30 L34,26 L38,26 L38,30 Z" id="path-1"></path>
    </defs>
    <g id="Page-1" stroke="none" stroke-width="1" fill="none" fill-rule="evenodd">
        <g id="Laptop" transform="translate(-696.000000, -892.000000)">
            <g id="Group-24-Copy" transform="translate(556.000000, 844.000000)">
                <g id="Group-21" transform="translate(134.000000, 48.000000)">
                    <rect id="Rectangle" fill="#A3C7C7" x="12" y="0" width="48" height="48"></rect>
                    <g id="icon-/-community-size-large" transform="translate(0.000000, 12.000000)">
                        <mask id="mask-2" fill="white">
                            <use xlink:href="#path-1"></use>
                        </mask>
                        <use id="Shape" fill="#000000" fill-rule="nonzero" xlink:href="#path-1"></use>
                        <g id="color-/-slate-/-base" mask="url(#mask-2)" fill="#253348" fill-rule="nonzero">
                            <rect id="color" x="0" y="0" width="48" height="48"></rect>
                        </g>
                    </g>
                </g>
            </g>
        </g>
    </g>
</svg>