<svg xmlns:xlink="http://www.w3.org/1999/xlink" viewBox="0 0 30 39" >
  <defs>
    <path d="M30,32.92 L26,32.92 C26,36.22 23.3,38.92 20,38.92 C16.7,38.92 14,36.22 14,32.92 C14,29.62 16.7,26.92 20,26.92 L20,22.92 C14.48,22.92 10,27.4 10,32.92 C10,38.44 14.48,42.92 20,42.92 C25.52,42.92 30,38.44 30,32.92 Z M31.92,12.92 C34.88,12.92 36.84,15.92 35.62,18.58 L35.62,18.58 L32.28,25.92 L36,25.92 C38.2,25.92 40,27.72 40,29.92 L40,29.92 L40,40.92 L36,40.92 L36,30.92 L26.04,30.92 C23.12,30.92 21.14,27.78 22.34,25.12 L22.34,25.12 L26,16.92 L21.58,16.92 L20.28,19.98 L16.44,18.92 L17.78,15.32 C18.44,13.86 19.9,12.92 21.52,12.92 L21.52,12.92 Z M36,4 C38.209139,4 40,5.790861 40,8 C40,10.209139 38.209139,12 36,12 C33.790861,12 32,10.209139 32,8 C32,5.790861 33.790861,4 36,4 Z" id="path-1"></path>
  </defs>
  <g id="Hub-1" stroke="none" stroke-width="1" fill="none" fill-rule="evenodd">
    <g id="Tablet-1" transform="translate(-668.000000, -2148.000000)">
      <g id="Group-31" transform="translate(44.000000, 2024.000000)">
        <g id="Group-121" transform="translate(343.000000, 0.000000)">
          <g id="icon-/-accessibility" transform="translate(271.000000, 120.000000)">
            <mask id="mask-21" fill="white">
              <use xlink:href="#path-1"></use>
            </mask>
            <use id="Shape" fill="#2A333F" fill-rule="nonzero" xlink:href="#path-1"></use>
            <g id="color-/-teal-/-base" mask="url(#mask-21)" fill="currentColor" fill-rule="nonzero">
              <rect id="Rectangle" x="0" y="0" width="48" height="48"></rect>
            </g>
          </g>
        </g>
      </g>
    </g>
  </g>
</svg>
