<?xml version="1.0" encoding="UTF-8"?>
<svg width="36px" height="36px" viewBox="0 0 36 36" version="1.1" xmlns="http://www.w3.org/2000/svg" xmlns:xlink="http://www.w3.org/1999/xlink">
    <!-- Generator: Sketch 52.3 (67297) - http://www.bohemiancoding.com/sketch -->
    <title>baseline-loyalty-36px</title>
    <desc>Created with Sketch.</desc>
    <g id="------------Workflows" stroke="none" stroke-width="1" fill="none" fill-rule="evenodd">
        <g id="1---Community-profile" transform="translate(-931.000000, -446.000000)">
            <g id="Group-16" transform="translate(912.000000, 104.000000)">
                <g id="Book-a-Tour-Copy-5" transform="translate(0.000000, 111.000000)">
                    <g id="Group-4-Copy" transform="translate(0.000000, 212.000000)">
                        <g id="baseline-loyalty-36px" transform="translate(16.000000, 16.000000)">
                            <polygon id="Path" points="0 0 36 0 36 36 0 36"></polygon>
                            <path d="M32.115,17.37 L18.615,3.87 C18.075,3.33 17.325,3 16.5,3 L6,3 C4.35,3 3,4.35 3,6 L3,16.5 C3,17.325 3.33,18.075 3.885,18.63 L17.385,32.13 C17.925,32.67 18.675,33 19.5,33 C20.325,33 21.075,32.67 21.615,32.115 L32.115,21.615 C32.67,21.075 33,20.325 33,19.5 C33,18.675 32.655,17.91 32.115,17.37 Z M8.25,10.5 C7.005,10.5 6,9.495 6,8.25 C6,7.005 7.005,6 8.25,6 C9.495,6 10.5,7.005 10.5,8.25 C10.5,9.495 9.495,10.5 8.25,10.5 Z M25.905,22.905 L19.5,29.31 L13.095,22.905 C12.42,22.215 12,21.285 12,20.25 C12,18.18 13.68,16.5 15.75,16.5 C16.785,16.5 17.73,16.92 18.405,17.61 L19.5,18.69 L20.595,17.595 C21.27,16.92 22.215,16.5 23.25,16.5 C25.32,16.5 27,18.18 27,20.25 C27,21.285 26.58,22.23 25.905,22.905 Z" id="Shape" fill="currentColor" fill-rule="nonzero"></path>
                        </g>
                    </g>
                </g>
            </g>
        </g>
    </g>
</svg>
