<svg xmlns="http://www.w3.org/2000/svg" viewBox="0 0 36 36"><g fill="none" fill-rule="evenodd"><path d="M-3-3h36v36H-3z"/><path d="M29.115 14.37L15.615.87C15.075.33 14.325 0 13.5 0H3C1.35 0 0 1.35 0 3v10.5c0 .825.33 1.575.885 2.13l13.5 13.5c.54.54 1.29.87 2.115.87.825 0 1.575-.33 2.115-.885l10.5-10.5c.555-.54.885-1.29.885-2.115a3.03 3.03 0 0 0-.885-2.13zM5.25 7.5A2.247 2.247 0 0 1 3 5.25 2.247 2.247 0 0 1 5.25 3 2.247 2.247 0 0 1 7.5 5.25 2.247 2.247 0 0 1 5.25 7.5zm17.655 12.405L16.5 26.31l-6.405-6.405A3.78 3.78 0 0 1 9 17.25c0-2.07 1.68-3.75 3.75-3.75 1.035 0 1.98.42 2.655 1.11l1.095 1.08 1.095-1.095A3.753 3.753 0 0 1 20.25 13.5c2.07 0 3.75 1.68 3.75 3.75 0 1.035-.42 1.98-1.095 2.655z" fill="currentColor" fill-rule="nonzero"/></g></svg>