
<svg width="9px" height="18px" viewBox="0 0 9 18" version="1.1" xmlns="http://www.w3.org/2000/svg" xmlns:xlink="http://www.w3.org/1999/xlink">
    <!-- Generator: Sketch 49.3 (51167) - http://www.bohemiancoding.com/sketch -->
    <desc>Created with Sketch.</desc>
    <defs></defs>
    <g id="Symbols" stroke="none" stroke-width="1" fill="none" fill-rule="evenodd">
        <g id="Icon/36/Social-facebook" transform="translate(-13.000000, -9.000000)" fill="#FEFEFE">
            <g id="Icon/social/insta-Copy-3" transform="translate(13.000000, 9.000000)">
                <path d="M0,5.78265288 L1.80822857,5.78265288 L1.80822857,4.02575443 C1.80822857,3.25164997 1.82777143,2.05605436 2.39142857,1.31690282 C2.98388571,0.533546106 3.79851429,0 5.1984,0 C7.47977143,0 8.44148571,0.325884616 8.44148571,0.325884616 L7.98891429,3.00389542 C7.98891429,3.00389542 7.23497143,2.78595365 6.53245714,2.78595365 C5.82891429,2.78595365 5.1984,3.03782031 5.1984,3.7409909 L5.1984,5.78265288 L8.08251429,5.78265288 L7.88194286,8.39795402 L5.1984,8.39795402 L5.1984,17.4857143 L1.80822857,17.4857143 L1.80822857,8.39795402 L0,8.39795402 L0,5.78265288 Z" id="Fill-4"></path>
            </g>
        </g>
    </g>
</svg>