<?xml version="1.0" encoding="UTF-8"?>
<svg width="12px" height="24px" viewBox="0 0 12 24" version="1.1" xmlns="http://www.w3.org/2000/svg" xmlns:xlink="http://www.w3.org/1999/xlink">
    <!-- Generator: Sketch 51.3 (57544) - http://www.bohemiancoding.com/sketch -->
    <title>if_06-facebook_104498</title>
    <desc>Created with Sketch.</desc>
    <defs>
        <rect id="path-1" x="0" y="0" width="24" height="24"></rect>
    </defs>
    <g id="ðŸ“-Symbols" stroke="none" stroke-width="1" fill="none" fill-rule="evenodd">
        <g id="Icon/24/Facebook" transform="translate(-6.000000, 0.000000)">
            <g id="if_06-facebook_104498">
                <mask id="mask-2" fill="white">
                    <use xlink:href="#path-1"></use>
                </mask>
                <g id="Mask" fill-rule="nonzero"></g>
                <g mask="url(#mask-2)" fill="#FFFFFF" fill-rule="nonzero" id="Shape">
                    <g transform="translate(6.000000, 0.000000)">
                        <path d="M11.4759184,7.70889796 L7.73142857,7.70889796 L7.73142857,5.25306122 C7.73142857,4.33077551 8.34269388,4.1157551 8.77322449,4.1157551 C9.20277551,4.1157551 11.4156735,4.1157551 11.4156735,4.1157551 L11.4156735,0.0612244898 L7.7764898,0.0470204082 C3.73665306,0.0470204082 2.81730612,3.07102041 2.81730612,5.00620408 L2.81730612,7.70889796 L0.480979592,7.70889796 L0.480979592,11.8868571 L2.81730612,11.8868571 C2.81730612,17.2486531 2.81730612,23.7090612 2.81730612,23.7090612 L7.73142857,23.7090612 C7.73142857,23.7090612 7.73142857,17.1849796 7.73142857,11.8868571 L11.0473469,11.8868571 L11.4759184,7.70889796 Z"></path>
                    </g>
                </g>
            </g>
        </g>
    </g>
</svg>