<svg xmlns="http://www.w3.org/2000/svg" xmlns:xlink="http://www.w3.org/1999/xlink" viewBox="0 0 36 36"><defs><path id="facebook-regular-a" d="M0 0h24v24H0z"/></defs><g transform="translate(6 6)" fill="none" fill-rule="evenodd"><mask id="facebook-regular-b" fill="#fff"><use xlink:href="#facebook-regular-a"/></mask><path d="M22.667 0H1.333C.597 0 0 .597 0 1.333v21.334C0 23.403.597 24 1.333 24H12.82v-9.28H9.703v-3.633h3.117V8.42c0-3.1 1.893-4.787 4.667-4.787a25.82 25.82 0 0 1 2.793.144V7h-1.92c-1.5 0-1.79.713-1.79 1.763v2.314h3.597L19.7 14.71h-3.13V24h6.097c.736 0 1.333-.597 1.333-1.333V1.333C24 .597 23.403 0 22.667 0z" fill="currentColor" fill-rule="nonzero" mask="url(#facebook-regular-b)"/></g></svg>