<svg xmlns="http://www.w3.org/2000/svg" xmlns:xlink="http://www.w3.org/1999/xlink" width="20" height="20"><defs><path id="favourite-empty-caption-a" d="M13.75 2.5A4.99 4.99 0 0 0 10 4.242 4.99 4.99 0 0 0 6.25 2.5c-2.567 0-4.583 2.017-4.583 4.583 0 3.15 2.833 5.717 7.125 9.617L10 17.792l1.208-1.1c4.292-3.892 7.125-6.459 7.125-9.609 0-2.566-2.016-4.583-4.583-4.583zm-3.667 12.958l-.083.084-.083-.084C5.95 11.867 3.333 9.492 3.333 7.083c0-1.666 1.25-2.916 2.917-2.916 1.283 0 2.533.825 2.975 1.966h1.558c.434-1.141 1.684-1.966 2.967-1.966 1.667 0 2.917 1.25 2.917 2.916 0 2.409-2.617 4.784-6.584 8.375z"/></defs><g fill="none" fill-rule="evenodd"><mask id="favourite-empty-caption-b" fill="#fff"><use xlink:href="#favourite-empty-caption-a"/></mask><use fill="#000" fill-rule="nonzero" xlink:href="#favourite-empty-caption-a"/><g fill="currentColor" fill-rule="nonzero" mask="url(#favourite-empty-caption-b)"><path d="M0 0h20v20H0z"/></g></g></svg>