<?xml version="1.0" encoding="UTF-8"?>
<svg width="24px" height="24px" viewBox="0 0 24 24" version="1.1" xmlns="http://www.w3.org/2000/svg" xmlns:xlink="http://www.w3.org/1999/xlink">
    <title>Favorite</title>
    <g stroke="none" stroke-width="1" fill="none" fill-rule="evenodd">
        <path d="M16.5,3 C19.58,3 22,5.42 22,8.5 C22,12.28 18.6,15.36 13.45,20.03 L12,21.35 L10.55,20.04 C5.4,15.36 2,12.28 2,8.5 C2,5.42 4.42,3 7.5,3 C9.24,3 10.91,3.81 12,5.09 C13.09,3.81 14.76,3 16.5,3 Z M12.1,18.55 C16.86,14.24 20,11.39 20,8.5 C20,6.5 18.5,5 16.5,5 C14.96,5 13.46,5.99 12.94,7.36 L11.07,7.36 C10.54,5.99 9.04,5 7.5,5 C5.5,5 4,6.5 4,8.5 C4,11.39 7.14,14.24 11.9,18.55 L12,18.65 L12.1,18.55 Z" fill="#384C57" fill-rule="nonzero"></path>
    </g>
</svg>
