<svg width="24" height="24" xmlns="http://www.w3.org/2000/svg" xmlns:xlink="http://www.w3.org/1999/xlink"><defs><path d="M12 2C6.48 2 2 6.48 2 12s4.48 10 10 10 10-4.48 10-10S17.52 2 12 2zm1 17h-2v-2h2v2zm2.07-7.75l-.9.92C13.45 12.9 13 13.5 13 15h-2v-.5c0-1.1.45-2.1 1.17-2.83l1.24-1.26c.37-.36.59-.86.59-1.41 0-1.1-.9-2-2-2s-2 .9-2 2H8c0-2.21 1.79-4 4-4s4 1.79 4 4c0 .88-.36 1.68-.93 2.25z" id="help-regular-a"/><rect id="help-regular-c" x="0" y="0" width="24" height="24" rx="4"/></defs><g fill="none" fill-rule="evenodd"><mask id="help-regular-b" fill="#fff"><use xlink:href="#help-regular-a"/></mask><use fill="#000" fill-rule="nonzero" xlink:href="#help-regular-a"/><g mask="url(#help-regular-b)"><use fill="currentcolor" xlink:href="#help-regular-c"/></g></g></svg>