<svg width="16" height="16" xmlns="http://www.w3.org/2000/svg"><g fill="none" fill-rule="evenodd"><g transform="translate(-4 -4)"><path d="M0 0h24v24H0z"/><rect fill="currentColor" x="4" y="4" width="16" height="16" rx="8"/></g><path d="M8.18 2c1.744 0 3.181 1.372 3.138 3.115 0 .98-.327 2.745-2.375 3.377v1.547c0 .436-.37.806-.806.806a.804.804 0 0 1-.806-.806v-2.2a.82.82 0 0 1 .697-.807c1.547-.24 1.678-1.372 1.678-1.851v-.066c0-.85-.654-1.481-1.547-1.481-.85 0-1.547.697-1.547 1.547 0 .435-.37.806-.806.806A.804.804 0 0 1 5 5.18 3.184 3.184 0 0 1 8.18 2zm0 9.825c.567 0 1.046.48 1.046 1.046a1.06 1.06 0 0 1-1.045 1.046 1.06 1.06 0 0 1-1.046-1.046c0-.566.457-1.046 1.046-1.046z" fill="#FFF" fill-rule="nonzero"/></g></svg>