<?xml version="1.0" encoding="UTF-8"?>
<svg width="16px" height="16px" viewBox="0 0 16 16" version="1.1" xmlns="http://www.w3.org/2000/svg" xmlns:xlink="http://www.w3.org/1999/xlink">
    <!-- Generator: Sketch 51 (57462) - http://www.bohemiancoding.com/sketch -->
    <title>Icon/24/Help</title>
    <desc>Created with Sketch.</desc>
    <defs></defs>
    <g id="Symbols" stroke="none" stroke-width="1" fill="none" fill-rule="evenodd">
        <g id="Component/Wizard-option-unselected" transform="translate(-408.000000, -22.000000)">
            <g id="Icon/24/Help" transform="translate(404.000000, 18.000000)">
                <g id="icon/share">
                    <polygon id="Shape" points="0 0 24 0 24 24 0 24"></polygon>
                    <rect id="Rectangle-6" fill="currentColor" x="4" y="4" width="16" height="16" rx="8"></rect>
                </g>
                <path d="M12.1807142,6 C13.9235714,6 15.3614285,7.37249998 15.317857,9.11535709 C15.317857,10.0957142 14.9910713,11.8603571 12.9432142,12.4921428 L12.9432142,14.0389284 C12.9432142,14.4746427 12.5728571,14.8449999 12.1371428,14.8449999 C11.7014285,14.8449999 11.3310714,14.4964284 11.3310714,14.0389284 L11.3310714,11.8385713 C11.3310714,11.4246428 11.6360714,11.0978571 12.0282142,11.0324999 C13.5749999,10.7928571 13.7057142,9.65999994 13.7057142,9.18071424 C13.7057142,9.13714281 13.7057142,9.11535709 13.7057142,9.11535709 C13.7057142,8.26571425 13.0521428,7.63392855 12.1589285,7.63392855 C11.3092857,7.63392855 10.6121428,8.33107139 10.6121428,9.18071424 C10.6121428,9.61642851 10.2417857,9.98678565 9.80607142,9.98678565 C9.37035714,9.98678565 9,9.63821423 9,9.18071424 C9,7.41607141 10.4378571,6 12.1807142,6 Z M12.1807142,15.825357 C12.7471428,15.825357 13.2264285,16.3046427 13.2264285,16.8710713 C13.2264285,17.4374998 12.7471428,17.9167855 12.1807142,17.9167855 C11.6142857,17.9167855 11.135,17.4374998 11.135,16.8710713 C11.135,16.3046427 11.5925,15.825357 12.1807142,15.825357 Z" id="Combined-Shape" fill="#FFFFFF" fill-rule="nonzero"></path>
            </g>
        </g>
    </g>
</svg>
