<svg xmlns="http://www.w3.org/2000/svg" xmlns:xlink="http://www.w3.org/1999/xlink" width="16" height="16" viewBox="0 0 16 16">
  <defs>
    <path id="hospital-small-a" d="M12.6666667,2 L3.33333333,2 C2.6,2 2.00666667,2.6 2.00666667,3.33333333 L2,12.6666667 C2,13.4 2.6,14 3.33333333,14 L12.6666667,14 C13.4,14 14,13.4 14,12.6666667 L14,3.33333333 C14,2.6 13.4,2 12.6666667,2 Z M12,9.33333333 L9.33333333,9.33333333 L9.33333333,12 L6.66666667,12 L6.66666667,9.33333333 L4,9.33333333 L4,6.66666667 L6.66666667,6.66666667 L6.66666667,4 L9.33333333,4 L9.33333333,6.66666667 L12,6.66666667 L12,9.33333333 Z"/>
  </defs>
  <g fill="none" fill-rule="evenodd">
    <mask id="hospital-small-b" fill="#fff">
      <use xlink:href="#hospital-small-a"/>
    </mask>
    <use fill="#000" fill-rule="nonzero" xlink:href="#hospital-small-a"/>
    <g fill="currentColor" fill-rule="nonzero" mask="url(#hospital-small-b)">
      <rect width="16" height="16"/>
    </g>
  </g>
</svg>
