<?xml version="1.0" encoding="UTF-8"?>
<svg width="24px" height="24px" viewBox="0 0 24 24" version="1.1" xmlns="http://www.w3.org/2000/svg" xmlns:xlink="http://www.w3.org/1999/xlink">
    <!-- Generator: Sketch 50.2 (55047) - http://www.bohemiancoding.com/sketch -->
    <title>baseline-local_hospital-24px</title>
    <desc>Created with Sketch.</desc>
    <defs></defs>
    <g id="Symbols" stroke="none" stroke-width="1" fill="none" fill-rule="evenodd">
        <g id="Component/Community-1.1" transform="translate(-275.000000, -135.000000)">
            <g id="Care-Types" transform="translate(272.000000, 132.000000)">
                <g id="baseline-local_hospital-24px">
                    <rect id="Rectangle" fill-opacity="0" fill="currentColor" x="0" y="0" width="24" height="24"></rect>
                    <path d="M19,3 L5,3 C3.9,3 3.01,3.9 3.01,5 L3,19 C3,20.1 3.9,21 5,21 L19,21 C20.1,21 21,20.1 21,19 L21,5 C21,3.9 20.1,3 19,3 Z M18,14 L14,14 L14,18 L10,18 L10,14 L6,14 L6,10 L10,10 L10,6 L14,6 L14,10 L18,10 L18,14 Z" id="Shape" fill="#CBD1D4" fill-rule="nonzero"></path>
                </g>
            </g>
        </g>
    </g>
</svg>
