<svg width="36" height="36" xmlns="http://www.w3.org/2000/svg"><path d="M24.782 23.106c0 .925-.75 1.675-1.676 1.675H12.38c-.925 0-1.675-.75-1.675-1.675v-7.158h2.61a4.746 4.746 0 0 0-.353 1.795 4.787 4.787 0 0 0 4.78 4.781 4.787 4.787 0 0 0 4.782-4.781 4.77 4.77 0 0 0-.352-1.795h2.61v7.158zm-9.533-7.158a3.072 3.072 0 0 1 2.494-1.283c1.027 0 1.936.508 2.495 1.283a3.05 3.05 0 0 1 .583 1.795 3.081 3.081 0 0 1-3.078 3.077 3.081 3.081 0 0 1-3.077-3.077c0-.67.218-1.29.583-1.795zm8.827-4.933l.386-.001v2.964l-2.954.01-.01-2.965 2.578-.008zM23.106 9H12.38A3.383 3.383 0 0 0 9 12.378v10.728a3.384 3.384 0 0 0 3.38 3.38h10.726a3.383 3.383 0 0 0 3.38-3.38V12.378A3.382 3.382 0 0 0 23.106 9z" fill="#FEFEFE" fill-rule="evenodd"/></svg>