<?xml version="1.0" encoding="UTF-8"?>
<svg width="36px" height="36px" viewBox="0 0 36 36" version="1.1" xmlns="http://www.w3.org/2000/svg" xmlns:xlink="http://www.w3.org/1999/xlink">
    <!-- Generator: Sketch 49.3 (51167) - http://www.bohemiancoding.com/sketch -->
    <title>Icon/36/Social-insta</title>
    <desc>Created with Sketch.</desc>
    <defs></defs>
    <g id="Icon/36/Social-insta" stroke="none" stroke-width="1" fill="none" fill-rule="evenodd">
        <path d="M24.7821731,23.1063903 C24.7821731,24.030641 24.0316691,24.781145 23.1063903,24.781145 L12.3803521,24.781145 C11.4550732,24.781145 10.7045693,24.030641 10.7045693,23.1063903 L10.7045693,15.9478162 L13.3148838,15.9478162 C13.0887045,16.5029835 12.9622497,17.1085271 12.9622497,17.7428571 C12.9622497,20.3788738 15.1068405,22.5244927 17.7428571,22.5244927 C20.3799019,22.5244927 22.5244927,20.3788738 22.5244927,17.7428571 C22.5244927,17.1085271 22.3970098,16.5029835 22.1718586,15.9478162 L24.7821731,15.9478162 L24.7821731,23.1063903 Z M15.2487166,15.9478162 C15.8079962,15.1726381 16.7157976,14.6647628 17.7428571,14.6647628 C18.7699167,14.6647628 19.6787461,15.1726381 20.2380258,15.9478162 C20.604025,16.4536353 20.8209515,17.072544 20.8209515,17.7428571 C20.8209515,19.4392017 19.4402298,20.8199234 17.7428571,20.8199234 C16.0465126,20.8199234 14.6657909,19.4392017 14.6657909,17.7428571 C14.6657909,17.072544 14.8837455,16.4536353 15.2487166,15.9478162 Z M24.0758769,11.0150517 L24.4624378,11.0140237 L24.4624378,11.3985284 L24.4624378,13.9780003 L21.507714,13.9872531 L21.4984612,11.0232764 L24.0758769,11.0150517 Z M23.1063903,9 L12.3803521,9 C10.5164292,9 9,10.5154012 9,12.3782959 L9,15.9478162 L9,23.1063903 C9,24.969285 10.5164292,26.4857143 12.3803521,26.4857143 L23.1063903,26.4857143 C24.9703131,26.4857143 26.4857143,24.969285 26.4857143,23.1063903 L26.4857143,15.9478162 L26.4857143,12.3782959 C26.4857143,10.5154012 24.9703131,9 23.1063903,9 Z" id="Fill-4" fill="#FEFEFE"></path>
    </g>
</svg>