<svg width="37" height="36" xmlns="http://www.w3.org/2000/svg"><path d="M26.943 25.063h-3.865v-5.647c0-1.478-.604-2.487-1.934-2.487-1.016 0-1.582.681-1.845 1.337-.099.236-.083.563-.083.892v5.905h-3.829s.05-10.003 0-10.912h3.829v1.713c.226-.75 1.45-1.818 3.402-1.818 2.422 0 4.325 1.57 4.325 4.95v6.067zM11.515 12.785h-.024c-1.234 0-2.034-.834-2.034-1.89C9.457 9.817 10.281 9 11.54 9c1.257 0 2.03.815 2.055 1.892 0 1.057-.798 1.893-2.079 1.893zM9.898 25.063h3.408V14.151H9.898v10.912z" fill="#FEFEFE" fill-rule="evenodd"/></svg>