<svg width="36" height="36" xmlns="http://www.w3.org/2000/svg" xmlns:xlink="http://www.w3.org/1999/xlink"><defs><path id="linkedin-large-a" d="M0 0h24v23.919H0z"/></defs><g transform="translate(6 6)" fill="none" fill-rule="evenodd"><mask id="linkedin-large-b" fill="currentColor"><use xlink:href="#linkedin-large-a"/></mask><path d="M20.45 20.452h-3.557v-5.57c0-1.329-.026-3.037-1.85-3.037-1.852 0-2.135 1.447-2.135 2.94v5.667H9.352V8.999h3.412v1.564h.048c.476-.9 1.637-1.85 3.37-1.85 3.602 0 4.267 2.372 4.267 5.458v6.281zM5.338 7.432a2.062 2.062 0 1 1 0-4.127c1.137 0 2.064.924 2.064 2.063 0 1.14-.927 2.064-2.064 2.064zm-1.783 13.02H7.12V8.999H3.556v11.453zM22.223 0H1.769C.793 0 0 .776 0 1.73v20.54C0 23.226.793 24 1.77 24h20.453C23.2 24 24 23.227 24 22.27V1.73C24 .775 23.2 0 22.223 0z" fill="currentColor" mask="url(#linkedin-large-b)"/></g></svg>