<svg xmlns="http://www.w3.org/2000/svg" width="24" height="24" viewBox="0 0 24 24">
  <g fill="none" fill-rule="evenodd">
    <path fill="#0077B5" d="M0,12 C0,5.37258267 5.37258267,0 12,0 C18.6274173,0 24,5.37258267 24,12 C24,18.6274173 18.6274173,24 12,24 C5.37258267,24 0,18.6274173 0,12 Z"/>
    <path fill="#FFF" d="M8.48027098,9.93892416 L8.48027098,18.1097799 L5.76080857,18.1097799 L5.76080857,9.93892416 L8.48027098,9.93892416 Z M15.1565691,9.74705663 C16.9461008,9.74705663 18.2876928,10.9151274 18.2876928,13.4248609 L18.2876928,13.4248609 L18.2875842,18.1097799 L15.5682304,18.1097799 L15.5682304,13.7383675 C15.5682304,12.6403625 15.1747083,11.8911138 14.1902514,11.8911138 C13.4389425,11.8911138 12.9914374,12.3962167 12.7948936,12.8840743 C12.7229886,13.0589135 12.7053382,13.3025169 12.7053382,13.5467169 L12.7053382,13.5467169 L12.7053382,18.1099968 L9.98554997,18.1099968 C9.98554997,18.1099968 10.0213938,10.7058519 9.98554997,9.93914108 L9.98554997,9.93914108 L12.7053382,9.93914108 L12.7053382,11.0964743 C13.066275,10.5401235 13.7127135,9.74705663 15.1565691,9.74705663 Z M7.13851601,6 C8.06882698,6 8.64173126,6.61020162 8.65938164,7.41134885 C8.65938164,8.19590154 8.06882698,8.82367385 7.12059408,8.82367385 L7.12059408,8.82367385 L7.10321525,8.82367385 C6.19022881,8.82367385 5.6,8.19590154 5.6,7.41134885 C5.6,6.61020162 6.20820505,6 7.13851601,6 Z"/>
  </g>
</svg>
