<?xml version="1.0" encoding="UTF-8"?>
<svg width="24px" height="24px" viewBox="0 0 24 24" version="1.1" xmlns="http://www.w3.org/2000/svg" xmlns:xlink="http://www.w3.org/1999/xlink">
    <!-- Generator: Sketch 52.3 (67297) - http://www.bohemiancoding.com/sketch -->
    <title>icon/Location</title>
    <desc>Created with Sketch.</desc>
    <defs>
        <path d="M8,19.2 C8,19.2 0,13.773913 0,7.93043478 C0,3.55116522 3.336,0 8,0 C12.6631111,0 16,3.55116522 16,7.93043478 C16,13.773913 8,19.2 8,19.2 Z M11,8 C11,6.3434 9.6566,5 8,5 C6.3428,5 5,6.3434 5,8 C5,9.6566 6.3428,11 8,11 C9.6566,11 11,9.6566 11,8 Z" id="location-regular-path-1"></path>
        <rect id="location-regular-path-3" x="0" y="0" width="24" height="24" rx="4"></rect>
    </defs>
    <g id="icon/Location" stroke="none" stroke-width="1" fill="none" fill-rule="evenodd">
        <g id="baseline-place-24px" transform="translate(4.000000, 3.000000)">
            <mask id="location-regular-mask-2" fill="white">
                <use xlink:href="#location-regular-path-1"></use>
            </mask>
            <use id="Mask-2" fill="#000000" fill-rule="nonzero" xlink:href="#location-regular-path-1"></use>
            <g id="location-regular-Color/fill/slate" mask="url(#location-regular-mask-2)">
                <g transform="translate(-4.000000, -3.000000)">
                    <mask id="location-regular-mask-4" fill="white">
                        <use xlink:href="#location-regular-path-3"></use>
                    </mask>
                    <use id="location-regular-Color" stroke="none" fill="currentcolor" fill-rule="evenodd" xlink:href="#location-regular-path-3"></use>
                </g>
            </g>
        </g>
    </g>
</svg>