<?xml version="1.0" encoding="UTF-8"?>
<svg width="36px" height="36px" viewBox="0 0 36 36" version="1.1" xmlns="http://www.w3.org/2000/svg" xmlns:xlink="http://www.w3.org/1999/xlink">
    <!-- Generator: Sketch 49.3 (51167) - http://www.bohemiancoding.com/sketch -->
    <title>Icon/36/Logo</title>
    <desc>Created with Sketch.</desc>
    <defs>
        <rect id="path-1" x="0" y="0" width="36" height="36"></rect>
        <linearGradient x1="50%" y1="0%" x2="50%" y2="100%" id="linearGradient-3">
            <stop stop-color="#6BC6C4" offset="25%"></stop>
            <stop stop-color="#3780AA" offset="100%"></stop>
        </linearGradient>
    </defs>
    <g id="Icon/36/Logo" stroke="none" stroke-width="1" fill="none" fill-rule="evenodd">
        <g id="Logo">
            <mask id="mask-2" fill="white">
                <use xlink:href="#path-1"></use>
            </mask>
            <use id="Mask" fill-opacity="0" fill="#D8D8D8" xlink:href="#path-1"></use>
            <path d="M1,17.49 C4.82,15.9566667 7.54,17.1666667 9.16,21.12 C5.68666667,21.8666667 2.96666667,20.6566667 1,17.49 Z M1.65,27.23 C6.04333333,29.9433333 10.1666667,29.77 14.02,26.71 C9.56,22.79 5.43333333,22.9633333 1.64,27.23 L1.65,27.23 Z M18.01,27 C17.326071,26.9894082 16.6679016,27.2606319 16.19,27.75 C15.6934312,28.2395332 15.4218971,28.9129379 15.44,29.61 C15.4329403,30.2844687 15.7042576,30.9320126 16.19,31.4 C16.6679016,31.8893681 17.326071,32.1605918 18.01,32.15 L18.17,32.15 C18.4529897,32.1486892 18.7324796,32.0873378 18.99,31.97 C19.9598917,31.5824079 20.597059,30.6444658 20.6,29.6 C20.617174,28.9050517 20.3498842,28.2332154 19.86,27.74 C19.3745929,27.2445142 18.7032161,26.9759634 18.01,27 Z M18.01,4 C16.1433333,6.76 16.1433333,9.42666667 18.01,12 C20.6366667,9.22666667 20.6333333,6.56 18,4 L18.01,4 Z M17.01,25.18 C18.4233333,16.16 15.6533333,10.59 8.7,8.47 C8.53333333,16.5433333 11.2866667,22.1133333 16.96,25.18 L17.01,25.18 Z M22.36,26.71 C26.2066667,29.77 30.33,29.9433333 34.73,27.23 C30.9033333,22.9766667 26.7633333,22.8033333 22.31,26.71 L22.36,26.71 Z M19.82,25.18 C25.4933333,22.1066667 28.2366667,16.5366667 28.05,8.47 C21.08,10.6 18.36,16.16 19.77,25.18 L19.82,25.18 Z M27.22,21.12 C30.6933333,21.8666667 33.4133333,20.6566667 35.38,17.49 C31.5333333,15.9566667 28.8,17.1666667 27.18,21.12 L27.22,21.12 Z" fill="url(#linearGradient-3)" fill-rule="nonzero" mask="url(#mask-2)"></path>
        </g>
    </g>
</svg>