<?xml version="1.0" encoding="UTF-8"?>
<svg width="24px" height="24px" viewBox="0 0 24 24" version="1.1" xmlns="http://www.w3.org/2000/svg" xmlns:xlink="http://www.w3.org/1999/xlink">
    <!-- Generator: Sketch 51.1 (57501) - http://www.bohemiancoding.com/sketch -->
    <title>Icon/24/slylogo-dark</title>
    <desc>Created with Sketch.</desc>
    <defs>
        <rect id="path-1" x="0" y="0" width="24" height="24"></rect>
    </defs>
    <g id="Icon/24/slylogo-dark" stroke="none" stroke-width="1" fill="none" fill-rule="evenodd">
        <g>
            <mask id="mask-2" fill="white">
                <use xlink:href="#path-1"></use>
            </mask>
            <use id="Mask" fill-opacity="0" fill="#D8D8D8" xlink:href="#path-1"></use>
            <path d="M0.666666667,11.66 C3.21333333,10.6377778 5.02666667,11.4444444 6.10666667,14.08 C3.79111111,14.5777778 1.97777778,13.7711111 0.666666667,11.66 Z M1.1,18.1533333 C4.02888889,19.9622222 6.77777778,19.8466667 9.34666667,17.8066667 C6.37333333,15.1933333 3.62222222,15.3088889 1.09333333,18.1533333 L1.1,18.1533333 Z M12.0066667,18 C11.550714,17.9929388 11.1119344,18.1737546 10.7933333,18.5 C10.4622875,18.8263555 10.2812647,19.2752919 10.2933333,19.74 C10.2886269,20.1896458 10.4695051,20.6213417 10.7933333,20.9333333 C11.1119344,21.2595787 11.550714,21.4403945 12.0066667,21.4333333 L12.1133333,21.4333333 C12.3019932,21.4324595 12.4883197,21.3915585 12.66,21.3133333 C13.3065944,21.0549386 13.7313727,20.4296439 13.7333333,19.7333333 C13.7447826,19.2700345 13.5665895,18.8221436 13.24,18.4933333 C12.9163953,18.1630094 12.4688107,17.9839756 12.0066667,18 Z M12.0066667,2.66666667 C10.7622222,4.50666667 10.7622222,6.28444444 12.0066667,8 C13.7577778,6.15111111 13.7555556,4.37333333 12,2.66666667 L12.0066667,2.66666667 Z M11.34,16.7866667 C12.2822222,10.7733333 10.4355556,7.06 5.8,5.64666667 C5.68888889,11.0288889 7.52444444,14.7422222 11.3066667,16.7866667 L11.34,16.7866667 Z M14.9066667,17.8066667 C17.4711111,19.8466667 20.22,19.9622222 23.1533333,18.1533333 C20.6022222,15.3177778 17.8422222,15.2022222 14.8733333,17.8066667 L14.9066667,17.8066667 Z M13.2133333,16.7866667 C16.9955556,14.7377778 18.8244444,11.0244444 18.7,5.64666667 C14.0533333,7.06666667 12.24,10.7733333 13.18,16.7866667 L13.2133333,16.7866667 Z M18.1466667,14.08 C20.4622222,14.5777778 22.2755556,13.7711111 23.5866667,11.66 C21.0222222,10.6377778 19.2,11.4444444 18.12,14.08 L18.1466667,14.08 Z" id="Logo" fill="#384C57" fill-rule="nonzero" mask="url(#mask-2)"></path>
        </g>
    </g>
</svg>