<svg xmlns="http://www.w3.org/2000/svg" xmlns:xlink="http://www.w3.org/1999/xlink" width="48" height="48"><defs><path id="logo-xLarge-a" d="M0 0h48v48H0z"/></defs><g fill="none" fill-rule="evenodd"><mask id="logo-xLarge-b" fill="#fff"><use xlink:href="#logo-xLarge-a"/></mask><path fill="currentColor" fill-rule="nonzero" d="M3.52 23.278c4.551-1.828 7.792-.385 9.722 4.326-4.138.89-7.379-.552-9.722-4.326zm.774 11.609c5.235 3.233 10.147 3.027 14.738-.62-5.314-4.672-10.23-4.466-14.75.62h.012zm19.492-.275a2.966 2.966 0 0 0-2.169.894 3.004 3.004 0 0 0-.893 2.217 2.92 2.92 0 0 0 .893 2.134c.57.583 1.354.906 2.169.893h.19c.337-.001.67-.074.977-.214a3.051 3.051 0 0 0 1.918-2.825 3.04 3.04 0 0 0-.881-2.217 2.942 2.942 0 0 0-2.204-.882zm0-27.412c-2.224 3.29-2.224 6.468 0 9.535 3.129-3.306 3.125-6.484-.012-9.535h.012zm-1.192 25.243c1.684-10.75-1.616-17.389-9.9-19.915-.199 9.622 3.081 16.26 9.84 19.915h.06zm6.374 1.824c4.583 3.647 9.495 3.853 14.738.62-4.56-5.07-9.492-5.276-14.797-.62h.06zm-3.026-1.824c6.76-3.663 10.028-10.301 9.805-19.915-8.304 2.538-11.544 9.165-9.865 19.915h.06zm8.816-4.839c4.138.89 7.379-.552 9.722-4.326-4.583-1.828-7.84-.385-9.77 4.326h.048z" mask="url(#logo-xLarge-b)"/></g></svg>