<svg width="48" height="48" xmlns="http://www.w3.org/2000/svg" xmlns:xlink="http://www.w3.org/1999/xlink"><defs><path id="logo-xLarge-a" d="M0 0h48v48H0z"/></defs><g fill="none" fill-rule="evenodd"><mask id="logo-xLarge-b" fill="#fff"><use xlink:href="#logo-xLarge-a"/></mask><use fill-opacity="0" fill="#D8D8D8" xlink:href="#logo-xLarge-a"/><g mask="url(#logo-xLarge-b)" fill="#7CCDCC"><path d="M0 23.86c5.15-2.051 8.816-.433 11 4.854-4.682.999-8.349-.62-11-4.854zM1.014 36.449c6.033 3.619 11.695 3.388 16.986-.694-6.124-5.228-11.791-4.997-17 .694h.014zM23.486 37.002a3.374 3.374 0 0 0-2.468 1.02 3.427 3.427 0 0 0-1.017 2.526 3.332 3.332 0 0 0 1.017 2.433A3.374 3.374 0 0 0 23.486 44h.217a2.708 2.708 0 0 0 1.113-.245 3.478 3.478 0 0 0 2.183-3.22 3.468 3.468 0 0 0-1.004-2.528 3.346 3.346 0 0 0-2.509-1.005zM24.079 5c-2.772 3.795-2.772 7.462 0 11 3.9-3.813 3.895-7.48-.015-11h.015zM22.505 34c1.955-12.415-1.877-20.082-11.495-23-.23 11.112 3.578 18.779 11.425 23h.07zM30.068 36.749c5.266 4.09 10.91 4.32 16.932.695-5.238-5.684-10.904-5.915-17-.695h.068zM26.57 34c7.87-4.23 11.677-11.897 11.418-23-9.67 2.932-13.444 10.585-11.488 23h.07zM36.054 28.714c4.659.999 8.308-.62 10.946-4.854-5.16-2.051-8.827-.433-11 4.854h.054z"/></g></g></svg>