<svg width="36" height="36" xmlns="http://www.w3.org/2000/svg" xmlns:xlink="http://www.w3.org/1999/xlink"><defs><path id="logo-large-a" d="M0 0h36v36H0z"/><linearGradient x1="50%" y1="0%" x2="50%" y2="100%" id="logo-large-b"><stop stop-color="#6BC6C4" offset="25%"/><stop stop-color="#3780AA" offset="100%"/></linearGradient></defs><g fill="none" fill-rule="evenodd"><mask id="logo-large-c" fill="#fff"><use xlink:href="#logo-large-a"/></mask><use fill-opacity="0" fill="#D8D8D8" xlink:href="#logo-large-a"/><path d="M1 17.49c3.82-1.533 6.54-.323 8.16 3.63-3.473.747-6.193-.463-8.16-3.63zm.65 9.74c4.393 2.713 8.517 2.54 12.37-.52-4.46-3.92-8.587-3.747-12.38.52h.01zM18.01 27a2.49 2.49 0 0 0-1.82.75 2.52 2.52 0 0 0-.75 1.86 2.45 2.45 0 0 0 .75 1.79 2.49 2.49 0 0 0 1.82.75h.16a2 2 0 0 0 .82-.18 2.56 2.56 0 0 0 1.61-2.37 2.55 2.55 0 0 0-.74-1.86 2.47 2.47 0 0 0-1.85-.74zm0-23c-1.867 2.76-1.867 5.427 0 8 2.627-2.773 2.623-5.44-.01-8h.01zm-1 21.18c1.413-9.02-1.357-14.59-8.31-16.71-.167 8.073 2.587 13.643 8.26 16.71h.05zm5.35 1.53c3.847 3.06 7.97 3.233 12.37.52-3.827-4.253-7.967-4.427-12.42-.52h.05zm-2.54-1.53c5.673-3.073 8.417-8.643 8.23-16.71-6.97 2.13-9.69 7.69-8.28 16.71h.05zm7.4-4.06c3.473.747 6.193-.463 8.16-3.63-3.847-1.533-6.58-.323-8.2 3.63h.04z" fill="url(#logo-large-b)" fill-rule="nonzero" mask="url(#logo-large-c)"/></g></svg>