<svg xmlns="http://www.w3.org/2000/svg" xmlns:xlink="http://www.w3.org/1999/xlink" viewBox="0 0 24 24"><defs><path id="logo-dark-regular-a" d="m0 0h24v24h0z"/></defs><g fill="none" fill-rule="evenodd"><mask id="logo-dark-regular-b" fill="#fff"><use xlink:href="#logo-dark-regular-a"/></mask><use fill-opacity="0" fill="currentcolor" xlink:href="#logo-dark-regular-a"/><path d="m.667 11.66c2.546-1.022 4.36-.216 5.44 2.42-2.316.498-4.13-.309-5.44-2.42zm.433 6.493c2.929 1.81 5.678 1.694 8.247-.346-2.974-2.614-5.725-2.498-8.254.346h1.1zm12.007 18a1.66 1.66 0 0 0-1.214.5 1.68 1.68 0 0 0-.5 1.24c-.004.45.177.881.5 1.193a1.66 1.66 0 0 0 1.214.5h.106c.189 0 .375-.041.547-.12a1.707 1.707 0 0 0 1.073-1.58 1.7 1.7 0 0 0-.493-1.24a1.647 1.647 0 0 0 12.007 18zm0-15.333c-1.245 1.84-1.245 3.617 0 5.333 1.75-1.849 1.749-3.627-.007-5.333h.007zm-.667 14.12c.942-6.014-.904-9.727-5.54-11.14-.111 5.382 1.724 9.095 5.507 11.14h.033zm3.567 1.02c2.564 2.04 5.313 2.155 8.246.346-2.55-2.835-5.31-2.95-8.28-.346h.034zm-1.694-1.02c3.783-2.05 5.611-5.763 5.487-11.14-4.647 1.42-6.46 5.126-5.52 11.14h.033zm4.934-2.707c2.315.498 4.129-.309 5.44-2.42-2.565-1.022-4.387-.216-5.467 2.42h.027z" fill="currentcolor" fill-rule="nonzero" mask="url(#logo-dark-regular-b)"/></g></svg>
