<?xml version="1.0" encoding="UTF-8"?>
<svg width="48px" height="48px" viewBox="0 0 48 48" version="1.1" xmlns="http://www.w3.org/2000/svg" xmlns:xlink="http://www.w3.org/1999/xlink">
    <!-- Generator: Sketch 49.3 (51167) - http://www.bohemiancoding.com/sketch -->
    <title>Icon/48/Logomark</title>
    <desc>Created with Sketch.</desc>
    <defs>
        <rect id="path-1" x="0" y="0" width="48" height="48"></rect>
    </defs>
    <g id="Icon/48/Logomark" stroke="none" stroke-width="1" fill="none" fill-rule="evenodd">
        <g id="Logo">
            <mask id="mask-2" fill="white">
                <use xlink:href="#path-1"></use>
            </mask>
            <use id="Mask" fill-opacity="0" fill="#D8D8D8" xlink:href="#path-1"></use>
            <g id="Group" mask="url(#mask-2)" fill="#7CCDCC">
                <g transform="translate(0.000000, 5.000000)" id="Path">
                    <path d="M0,18.8596123 C5.1495098,16.809001 8.81617647,18.4272007 11,23.7142115 C6.31781046,24.7127701 2.65114379,23.0945703 0,18.8596123 Z"></path>
                    <path d="M1.01373183,31.4487712 C7.04658051,35.0677133 12.7086699,34.8365278 18,30.7552147 C11.8756058,25.5268659 6.20893915,25.7580514 1,31.4487712 L1.01373183,31.4487712 Z"></path>
                    <path d="M23.4864867,32.0020185 C22.558969,31.9876269 21.6663855,32.3561527 21.0182741,33.0210829 C20.344847,33.6862374 19.9766031,34.6012276 20.0011535,35.5483625 C19.9915795,36.4647985 20.3595293,37.3446504 21.0182741,37.9805294 C21.6663855,38.6454595 22.558969,39.0139853 23.4864867,38.9995938 L23.7034724,38.9995938 C24.087252,38.9978128 24.4662852,38.9144513 24.8155243,38.7550183 C26.1308533,38.2283765 26.9949547,36.9539455 26.9989431,35.5347749 C27.0222337,34.5905123 26.6597459,33.677653 25.9953841,33.0074954 C25.3370941,32.3342527 24.4265991,31.9693587 23.4864867,32.0020185 Z"></path>
                    <path d="M24.0786914,0 C21.3071029,3.795 21.3071029,7.46166667 24.0786914,11 C27.9787125,7.18666667 27.9737632,3.52 24.0638436,0 L24.0786914,0 Z"></path>
                    <path d="M22.504633,29 C24.459619,16.5846798 20.628031,8.91801317 11.009869,6 C10.7793282,17.112308 14.5878622,24.7789747 22.4354708,29 L22.504633,29 Z"></path>
                    <path d="M30.068438,31.7490315 C35.3336017,35.8381219 40.9774557,36.0697479 47,32.4439096 C41.7622115,26.7601631 36.0955448,26.5285371 30,31.7490315 L30.068438,31.7490315 Z"></path>
                    <path d="M26.5694393,29 C34.4405422,24.7697985 38.2466043,17.1031319 37.9876256,6 C28.3175456,8.93177738 24.5438558,16.5846798 26.50007,29 L26.5694393,29 Z"></path>
                    <path d="M36.0536585,23.7142115 C40.7130081,24.7127701 44.3617886,23.0945703 47,18.8596123 C41.8398374,16.809001 38.1731707,18.4272007 36,23.7142115 L36.0536585,23.7142115 Z"></path>
                </g>
            </g>
        </g>
    </g>
</svg>