<?xml version="1.0" encoding="UTF-8"?>
<svg width="72px" height="72px" viewBox="0 0 72 72" version="1.1" xmlns="http://www.w3.org/2000/svg" xmlns:xlink="http://www.w3.org/1999/xlink">
    <title>Logo-teal</title>
    <g id="Logo-teal" x="0" y="0" width="72" height="72" stroke="none" stroke-width="1" fill="none" fill-rule="evenodd">
      <path d="M10.5,35.235 C16.23,32.935 20.31,34.75 22.74,40.68 C17.53,41.8 13.45,39.985 10.5,35.235 Z M11.475,49.845 C18.065,53.915 24.25,53.655 30.03,49.065 C23.34,43.185 17.15,43.445 11.46,49.845 L11.475,49.845 Z M36.015,49.5 C34.9891065,49.4841124 34.0018524,49.8909478 33.285,50.625 C32.5401468,51.3592998 32.1328456,52.3694068 32.16,53.415 C32.1494105,54.4267031 32.5563864,55.3980189 33.285,56.1 C34.0018524,56.8340522 34.9891065,57.2408876 36.015,57.225 L36.255,57.225 C36.6794846,57.2230339 37.0987194,57.1310067 37.485,56.955 C38.9398375,56.3736118 39.8955886,54.9666987 39.9,53.4 C39.9257609,52.3575776 39.5248264,51.3498232 38.79,50.61 C38.0618894,49.8667712 37.0548241,49.4639451 36.015,49.5 Z M36.015,15 C33.215,19.14 33.215,23.14 36.015,27 C39.955,22.84 39.95,18.84 36,15 L36.015,15 Z M34.515,46.77 C36.635,33.24 32.48,24.885 22.05,21.705 C21.8,33.815 25.93,42.17 34.44,46.77 L34.515,46.77 Z M42.54,49.065 C48.31,53.655 54.495,53.915 61.095,49.845 C55.355,43.465 49.145,43.205 42.465,49.065 L42.54,49.065 Z M38.73,46.77 C47.24,42.16 51.355,33.805 51.075,21.705 C40.62,24.9 36.54,33.24 38.655,46.77 L38.73,46.77 Z M49.83,40.68 C55.04,41.8 59.12,39.985 62.07,35.235 C56.3,32.935 52.2,34.75 49.77,40.68 L49.83,40.68 Z" fill="#7CCDCC" fill-rule="nonzero"></path>
    </g>
</svg>
