<?xml version="1.0" encoding="UTF-8"?>
<svg width="24px" height="24px" viewBox="0 0 24 24" version="1.1" xmlns="http://www.w3.org/2000/svg" xmlns:xlink="http://www.w3.org/1999/xlink">
    <!-- Generator: Sketch 52.5 (67469) - http://www.bohemiancoding.com/sketch -->
    <title>Phone</title>
    <desc>Created with Sketch.</desc>
    <defs>
        <path d="M3.62,7.79 C5.06,10.62 7.38,12.93 10.21,14.38 L12.41,12.18 C12.68,11.91 13.08,11.82 13.43,11.94 C14.55,12.31 15.76,12.51 17,12.51 C17.55,12.51 18,12.96 18,13.51 L18,17 C18,17.55 17.55,18 17,18 C7.61,18 0,10.39 0,1 C0,0.45 0.45,0 1,0 L4.5,0 C5.05,0 5.5,0.45 5.5,1 C5.5,2.25 5.7,3.45 6.07,4.57 C6.18,4.92 6.1,5.31 5.82,5.59 L3.62,7.79 Z" id="path-1"></path>
        <rect id="phone-regular-path-3" x="0" y="0" width="24" height="24"></rect>
    </defs>
    <g id="icon/Phone-regular" stroke="none" stroke-width="1" fill="none" fill-rule="evenodd">
        <g id="icon/phone-regular">
            <g id="icon/Phone" transform="translate(3.000000, 3.000000)">
                <mask id="phone-regular-mask-2" fill="white">
                    <use xlink:href="#path-1"></use>
                </mask>
                <use id="phone-regular-Mask" fill="#000000" fill-rule="nonzero" xlink:href="#path-1"></use>
                <g id="phone-regular-Color/Blue-base" mask="url(#phone-regular-mask-2)">
                    <g transform="translate(-3.000000, -3.000000)">
                        <mask id="phone-regular-mask-4" fill="white">
                            <use xlink:href="#phone-regular-path-3"></use>
                        </mask>
                        <use id="phone-regular-Blue-base" stroke="none" fill="currentcolor" fill-rule="evenodd" xlink:href="#phone-regular-path-3"></use>
                    </g>
                </g>
            </g>
        </g>
    </g>
</svg>