<svg xmlns="http://www.w3.org/2000/svg" xmlns:xlink="http://www.w3.org/1999/xlink" width="20" height="20"><defs><path id="phone-caption-a" d="M5.517 8.992a12.624 12.624 0 0 0 5.491 5.491l1.834-1.833a.829.829 0 0 1 .85-.2 9.506 9.506 0 0 0 2.975.475c.458 0 .833.375.833.833v2.909a.836.836 0 0 1-.833.833C8.842 17.5 2.5 11.158 2.5 3.333c0-.458.375-.833.833-.833H6.25c.458 0 .833.375.833.833 0 1.042.167 2.042.475 2.975a.836.836 0 0 1-.208.85L5.517 8.992z"/></defs><g fill="none" fill-rule="evenodd"><mask id="phone-caption-b" fill="#fff"><use xlink:href="#phone-caption-a"/></mask><use fill="#000" fill-rule="nonzero" xlink:href="#phone-caption-a"/><g fill="currentColor" fill-rule="nonzero" mask="url(#phone-caption-b)"><path d="M0 0h20v20H0z"/></g></g></svg>