<?xml version="1.0" encoding="UTF-8"?>
<svg width="24px" height="24px" viewBox="0 0 24 24" version="1.1" xmlns="http://www.w3.org/2000/svg" xmlns:xlink="http://www.w3.org/1999/xlink">
    <!-- Generator: Sketch 51.1 (57501) - http://www.bohemiancoding.com/sketch -->
    <title>baseline-place-24px</title>
    <desc>Created with Sketch.</desc>
    <defs></defs>
    <g id="baseline-place-24px" stroke="none" stroke-width="1" fill="none" fill-rule="evenodd">
        <g>
            <polygon id="Shape" points="0 0 24 0 24 24 0 24"></polygon>
            <path d="M12,22.2 C12,22.2 4,16.773913 4,10.9304348 C4,6.55116522 7.336,3 12,3 C16.6631111,3 20,6.55116522 20,10.9304348 C20,16.773913 12,22.2 12,22.2 Z M15,11 C15,9.3434 13.6566,8 12,8 C10.3428,8 9,9.3434 9,11 C9,12.6566 10.3428,14 12,14 C13.6566,14 15,12.6566 15,11 Z" id="Combined-Shape" fill="currentColor"></path>
        </g>
    </g>
</svg>
