<?xml version="1.0" encoding="UTF-8"?>
<svg width="24px" height="24px" viewBox="0 0 24 24" version="1.1" xmlns="http://www.w3.org/2000/svg" xmlns:xlink="http://www.w3.org/1999/xlink">
    <!-- Generator: Sketch 50.2 (55047) - http://www.bohemiancoding.com/sketch -->
    <title>baseline-place-24px</title>
    <desc>Created with Sketch.</desc>
    <defs></defs>
    <g id="Symbols" stroke="none" stroke-width="1" fill="none" fill-rule="evenodd">
        <g id="Component/Community-1.1" transform="translate(-276.000000, -79.000000)">
            <g id="Address" transform="translate(272.000000, 76.000000)">
                <g id="baseline-place-24px">
                    <polygon id="Shape" points="0 0 24 0 24 24 0 24"></polygon>
                    <path d="M12,22 C12,22 4,16.6304348 4,10.8478261 C4,6.51417391 7.336,3 12,3 C16.6631111,3 20,6.51417391 20,10.8478261 C20,16.6304348 12,22 12,22 Z M15,10.9166667 C15,9.27732292 13.6566,7.94791667 12,7.94791667 C10.3428,7.94791667 9,9.27732292 9,10.9166667 C9,12.5560104 10.3428,13.8854167 12,13.8854167 C13.6566,13.8854167 15,12.5560104 15,10.9166667 Z" id="Combined-Shape" fill="currentColor"></path>
                </g>
            </g>
        </g>
    </g>
</svg>
