<svg xmlns="http://www.w3.org/2000/svg" xmlns:xlink="http://www.w3.org/1999/xlink" width="20" height="20"><defs><path id="search-caption-a" d="M14.15 12.692h-.768l-.272-.263a6.29 6.29 0 0 0 1.526-4.111 6.318 6.318 0 1 0-6.318 6.318 6.29 6.29 0 0 0 4.111-1.526l.263.272v.768l4.86 4.85L19 17.552l-4.85-4.86zm-5.832 0a4.368 4.368 0 0 1-4.374-4.374 4.368 4.368 0 0 1 4.374-4.374 4.368 4.368 0 0 1 4.374 4.374 4.368 4.368 0 0 1-4.374 4.374z"/></defs><g fill="none" fill-rule="evenodd"><mask id="search-caption-b" fill="#fff"><use xlink:href="#search-caption-a"/></mask><use fill="#000" fill-rule="nonzero" xlink:href="#search-caption-a"/><g fill="currentcolor" fill-rule="nonzero" mask="url(#search-caption-b)"><path d="M0 0h20v20H0z"/></g></g></svg>