<svg xmlns="http://www.w3.org/2000/svg" xmlns:xlink="http://www.w3.org/1999/xlink" width="24" height="24" viewBox="0 0 24 24">
  <defs>
    <path id="seniorly-regular-a" d="M2,11.0283868 C4.22922502,10.0519052 5.81652661,10.8224765 6.76190476,13.3401007 C4.73498288,13.8156048 3.14768129,13.0450335 2,11.0283868 Z M2.00615432,17.1967773 C4.70995205,18.6738966 7.24758315,18.5795352 9.61904762,16.9136931 C6.87422109,14.7796732 4.33453855,14.8740346 2,17.1967773 L2.00615432,17.1967773 Z M11.9944844,17.2865382 C11.6159057,17.2806641 11.2515859,17.4310828 10.9870507,17.7024828 C10.7121824,17.9739744 10.5618788,18.3474398 10.5718994,18.7340255 C10.5679916,19.108081 10.7181752,19.4672042 10.9870507,19.7267467 C11.2515859,19.9981467 11.6159057,20.1485654 11.9944844,20.1426913 L12.08305,20.1426913 C12.2396947,20.1419644 12.3944021,20.1079393 12.5369487,20.0428646 C13.0738177,19.8279088 13.4265121,19.3077328 13.42814,18.7284796 C13.4376464,18.3430662 13.2896922,17.9704706 13.0185241,17.6969369 C12.7498343,17.422144 12.3782037,17.2732077 11.9944844,17.2865382 L11.9944844,17.2865382 Z M12.315692,3 C11.2598487,4.64285714 11.2598487,6.23015873 12.315692,7.76190476 C13.8014143,6.11111111 13.7995289,4.52380952 12.3100357,3 L12.315692,3 Z M11.3272353,16.3333333 C12.1030234,10.6783221 10.582552,7.18625858 6.76582105,5.85714286 C6.67433661,10.9186496 8.18565959,14.4107131 11.29979,16.3333333 L11.3272353,16.3333333 Z M14.4116249,16.9111693 C16.7713621,18.5801858 19.3008205,18.674727 22,17.194793 C19.6525318,14.8748965 17.1128492,14.7803553 14.3809524,16.9111693 L14.4116249,16.9111693 Z M13.6545394,16.3333333 C16.7779929,14.4065335 18.288335,10.91447 18.1855657,5.85714286 C14.3482324,7.192528 12.8507364,10.6783221 13.6270119,16.3333333 L13.6545394,16.3333333 Z M17.261324,13.3401007 C19.2783585,13.8156048 20.8579172,13.0450335 22,11.0283868 C19.7661634,10.0519052 18.1788618,10.8224765 17.2380952,13.3401007 L17.261324,13.3401007 Z"/>
  </defs>
  <g fill="none" fill-rule="evenodd">
    <mask id="seniorly-regular-b" fill="#fff">
      <use xlink:href="#seniorly-regular-a"/>
    </mask>
    <use fill="currentColor" fill-rule="nonzero" xlink:href="#seniorly-regular-a"/>
    <g fill="currentColor" fill-rule="nonzero" mask="url(#seniorly-regular-b)">
      <rect width="24" height="24"/>
    </g>
  </g>
</svg>
