<svg xmlns="http://www.w3.org/2000/svg" width="96" height="64"><g fill="none" fill-rule="evenodd"><path d="M0 0h96v64H0z"/><path fill="currentColor" fill-rule="nonzero" d="M28.188 22.077c3.986-1.6 6.824-.338 8.515 3.787-3.625.78-6.463-.483-8.515-3.787zm.678 10.163c4.584 2.831 8.887 2.65 12.908-.543-4.654-4.09-8.96-3.91-12.918.543h.01zM45.937 32a2.598 2.598 0 0 0-1.899.783 2.63 2.63 0 0 0-.782 1.94c-.008.704.275 1.38.782 1.868.499.51 1.186.794 1.9.783h.166c.296-.001.587-.065.856-.188a2.671 2.671 0 0 0 1.68-2.473 2.66 2.66 0 0 0-.772-1.94 2.577 2.577 0 0 0-1.93-.773zm0-24c-1.947 2.88-1.947 5.663 0 8.348 2.741-2.894 2.738-5.677-.01-8.348h.01zm-1.043 22.1c1.475-9.411-1.416-15.223-8.671-17.436-.174 8.425 2.699 14.237 8.619 17.437h.052zm5.583 1.597c4.013 3.193 8.316 3.374 12.907.543-3.993-4.438-8.313-4.62-12.96-.543h.053zm-2.65-1.596c5.92-3.207 8.782-9.02 8.587-17.437-7.273 2.223-10.111 8.025-8.64 17.437h.052zm7.72-4.237c3.625.78 6.463-.483 8.516-3.787-4.014-1.6-6.866-.338-8.557 3.787h.042zm-27.954 18.71a9.73 9.73 0 0 1-.073 1.242h-7.993a3.183 3.183 0 0 0 3.412 2.368 7.304 7.304 0 0 0 3.986-1.294v3.037a9.026 9.026 0 0 1-4.466 1.043c-3.871 0-6.668-2.41-6.668-6.093a6.063 6.063 0 0 1 6.167-6.188 5.437 5.437 0 0 1 5.635 5.885zm-3.35-1.044a2.296 2.296 0 0 0-2.316-2.034 2.431 2.431 0 0 0-2.4 1.982l4.716.052zm-13.565 0c-1.742-.427-3.015-.354-3.015-1.22 0-.553.574-.835 1.534-.835 1.553.067 3.069.5 4.424 1.262v-3.13a10.977 10.977 0 0 0-4.487-.929c-2.911 0-5.113 1.409-5.134 3.892 0 1.93 1.315 2.87 3.537 3.413 1.764.459 3.13.354 3.13 1.262 0 .647-.594.908-1.596.908a10.049 10.049 0 0 1-4.633-1.356v3.13a11.155 11.155 0 0 0 4.654 1.075c3.016 0 5.218-1.409 5.28-3.986-.062-2.035-1.409-2.89-3.652-3.444l-.042-.042zm26.588-4.81a5.76 5.76 0 0 0-3.631 1.367v-1.044h-3.673v11.74h3.631V42.83a4.174 4.174 0 0 1 2.463-.98c.468-.03.924.155 1.241.5.339.479.484 1.068.407 1.649v6.783h3.632v-7.305a4.727 4.727 0 0 0-1.044-3.485 4.237 4.237 0 0 0-3.026-1.273zm7.023 12.063h3.631V38.99h-3.631v11.792zm30.845 0h3.631V32.49h-3.631v18.293zM89.847 38.99l-1.242 2.839c-.553 1.262-1.043 2.504-1.596 3.798-.48-1.218-.981-2.46-1.503-3.725l-1.283-2.912h-3.81l4.78 10.435L82.136 56h3.704l7.649-17.009h-3.642zm-20.692 1.597V38.99h-3.6v11.792h3.631v-7.159a3.903 3.903 0 0 1 3.13-1.387c.33 0 .66.038.981.114v-3.41a2.9 2.9 0 0 0-.761-.094 3.976 3.976 0 0 0-3.381 1.743zm-5.875 4.278a6.26 6.26 0 0 1-6.543 6.136 6.157 6.157 0 1 1 0-12.282 6.26 6.26 0 0 1 6.543 6.146zm-3.631 0a2.922 2.922 0 1 0-2.912 3.005 2.932 2.932 0 0 0 2.912-3.005z"/></g></svg>