<svg xmlns="http://www.w3.org/2000/svg" xmlns:xlink="http://www.w3.org/1999/xlink" width="24" height="24"><defs><path id="seniorly-regular-a" d="M2 11.028c2.23-.976 3.817-.206 4.762 2.312-2.027.476-3.614-.295-4.762-2.312zm.006 6.169c2.704 1.477 5.242 1.383 7.613-.283-2.745-2.134-5.284-2.04-7.619.283h.006zm9.988.09a1.377 1.377 0 0 0-1.007.415 1.399 1.399 0 0 0-.415 1.032 1.36 1.36 0 0 0 .415.993c.265.271.629.422 1.007.416h.09c.156-.001.31-.035.453-.1a1.42 1.42 0 0 0 .891-1.315 1.416 1.416 0 0 0-.41-1.031 1.366 1.366 0 0 0-1.024-.41zM12.316 3c-1.056 1.643-1.056 3.23 0 4.762C13.8 6.112 13.8 4.524 12.31 3h.006zm-.989 13.333c.776-5.655-.744-9.147-4.561-10.476-.092 5.062 1.42 8.554 4.534 10.476h.027zm3.085.578c2.36 1.67 4.889 1.764 7.588.284-2.347-2.32-4.887-2.415-7.619-.284h.03zm-.757-.578c3.123-1.926 4.633-5.419 4.53-10.476-3.837 1.336-5.334 4.821-4.558 10.476h.028zm3.606-2.993c2.017.476 3.597-.295 4.739-2.312-2.234-.976-3.821-.206-4.762 2.312h.023z"/></defs><g fill="none" fill-rule="evenodd"><mask id="seniorly-regular-b" fill="#fff"><use xlink:href="#seniorly-regular-a"/></mask><use fill="currentColor" fill-rule="nonzero" xlink:href="#seniorly-regular-a"/><g fill="currentColor" fill-rule="nonzero" mask="url(#seniorly-regular-b)"><path d="M0 0h24v24H0z"/></g></g></svg>