<svg viewBox="0 0 24 24" version="1.1" xmlns="http://www.w3.org/2000/svg" xmlns:xlink="http://www.w3.org/1999/xlink">
  <path d="M1.22130142,11.364309 C3.64115681,10.3929883 5.36419521,11.159487 6.39041661,13.6638051 C4.19016415,14.136796 2.46712575,13.3702973 1.22130142,11.364309 Z M1.63305692,17.5343068 L1.62672222,17.5343068 C4.02968508,14.8315014 6.64380461,14.7217 9.46908081,17.2049024 C7.02810974,19.1433206 4.41610178,19.253122 1.63305692,17.5343068 Z M11.9966261,17.3886087 C12.4357577,17.3733822 12.8610548,17.5435011 13.1685456,17.8573765 C13.4788726,18.1698137 13.6481926,18.5954018 13.6373134,19.0356307 C13.6354504,19.6972684 13.231824,20.2914266 12.6174267,20.5369546 C12.4542953,20.6112846 12.2772468,20.6501488 12.0979813,20.6509792 L11.9966261,20.6509792 C11.5633776,20.6576887 11.146447,20.4858767 10.8437107,20.1758767 C10.5360075,19.8794207 10.3641361,19.4692211 10.3686082,19.0419654 C10.3571405,18.6003974 10.5291493,18.1738158 10.8437107,17.8637112 C11.146447,17.5537112 11.5633776,17.3818991 11.9966261,17.3886087 Z M11.9966261,2.81879869 C10.8141488,4.56717589 10.8141488,6.25642922 11.9966261,7.88655869 C13.6605406,6.12973522 13.6584291,4.44048189 11.9902914,2.81879869 L11.9966261,2.81879869 Z M11.3631561,16.2356933 L11.3314826,16.2356933 C7.73759614,14.2930519 5.99344208,10.7646241 6.09902041,5.65040959 C10.5037485,6.99336599 12.2584604,10.5217939 11.3631561,16.2356933 Z M14.7522206,17.2049024 C17.1889685,19.1433206 19.8009765,19.253122 22.5882445,17.5343068 C20.164166,14.8399477 17.5416002,14.7301462 14.7205471,17.2049024 L14.7522206,17.2049024 Z M13.1432068,16.2356933 L13.1115333,16.2356933 C12.2183406,10.5217939 13.941379,6.99970069 18.3566649,5.65040959 C18.4749126,10.7604009 16.7370933,14.2888288 13.1432068,16.2356933 Z M17.8308848,13.6638051 L17.805546,13.6638051 C18.8317674,11.159487 20.5632521,10.3929883 23,11.364309 C21.7541757,13.3702973 20.0311373,14.136796 17.8308848,13.6638051 Z" id="Seniorly" fill="currentColor" />
</svg>
