<svg width="82" height="44" xmlns="http://www.w3.org/2000/svg"><defs><linearGradient x1="50%" y1="25%" x2="50%" y2="100%" id="seniorlyLogo-xxLarge-a"><stop stop-color="#6BC6C4" offset="0%"/><stop stop-color="#3780AA" offset="100%"/></linearGradient></defs><g fill="none" fill-rule="evenodd"><path fill="none" d="M-2-4h87v52H-2z"/><path d="M24.172 16.903c3.654-1.466 6.256-.309 7.805 3.473-3.322.714-5.924-.444-7.805-3.473zm.622 9.317c4.202 2.595 8.146 2.43 11.832-.497-4.266-3.75-8.213-3.584-11.842.497h.01zM40.443 26a2.382 2.382 0 0 0-1.741.717 2.41 2.41 0 0 0-.718 1.78 2.343 2.343 0 0 0 .718 1.712 2.382 2.382 0 0 0 1.74.717h.154c.27-.001.538-.06.784-.172a2.449 2.449 0 0 0 1.54-2.267 2.44 2.44 0 0 0-.708-1.78 2.363 2.363 0 0 0-1.77-.707zm0-22c-1.786 2.64-1.786 5.19 0 7.652C42.955 9 42.952 6.45 40.433 4h.01zm-.957 20.26c1.352-8.629-1.298-13.957-7.949-15.984-.159 7.722 2.475 13.05 7.901 15.983h.048zm5.117 1.463c3.68 2.927 7.624 3.092 11.833.497-3.66-4.068-7.62-4.234-11.88-.497h.047zm-2.43-1.464c5.428-2.94 8.052-8.267 7.873-15.983-6.667 2.037-9.269 7.355-7.92 15.983h.048zm7.08-3.883c3.321.714 5.923-.444 7.804-3.473-3.679-1.466-6.294-.309-7.843 3.473h.038zm-25.626 17.15c.002.38-.02.76-.067 1.138h-7.327a2.917 2.917 0 0 0 3.128 2.172 6.696 6.696 0 0 0 3.654-1.186v2.783a8.274 8.274 0 0 1-4.094.957c-3.549 0-6.112-2.21-6.112-5.587a5.557 5.557 0 0 1 5.653-5.672 4.983 4.983 0 0 1 5.165 5.395zm-3.07-.956a2.104 2.104 0 0 0-2.124-1.866 2.229 2.229 0 0 0-2.2 1.818l4.324.048zm-12.435 0c-1.598-.393-2.765-.326-2.765-1.12 0-.507.526-.765 1.406-.765a9.077 9.077 0 0 1 4.056 1.158v-2.87a10.063 10.063 0 0 0-4.113-.851c-2.669 0-4.687 1.291-4.706 3.568 0 1.77 1.205 2.63 3.243 3.127 1.616.421 2.87.326 2.87 1.158 0 .593-.546.832-1.464.832a9.211 9.211 0 0 1-4.247-1.244v2.87c1.334.633 2.79.969 4.266.985 2.764 0 4.782-1.291 4.84-3.654-.058-1.865-1.291-2.65-3.348-3.156l-.038-.038zm24.372-4.41a5.28 5.28 0 0 0-3.329 1.253v-.956h-3.367v10.76h3.329V35.93a3.826 3.826 0 0 1 2.257-.9c.43-.026.848.143 1.139.46.31.438.443.978.373 1.511v6.217h3.328v-6.695c.12-1.15-.224-2.3-.956-3.195a3.883 3.883 0 0 0-2.774-1.167zm6.437 11.057h3.329V32.41h-3.329v10.808zm28.275 0h3.329V26.45h-3.329v16.767zM80.693 32.41l-1.138 2.601c-.507 1.158-.957 2.296-1.464 3.482-.44-1.116-.899-2.254-1.377-3.415l-1.177-2.668h-3.49l4.38 9.565L73.624 48h3.396l7.011-15.591h-3.338zm-18.968 1.463V32.41h-3.3v10.808h3.329v-6.561a3.577 3.577 0 0 1 2.87-1.273c.302 0 .604.036.899.106V32.36a2.66 2.66 0 0 0-.699-.086 3.644 3.644 0 0 0-3.099 1.597zm-5.385 3.922a5.74 5.74 0 0 1-5.997 5.624 5.643 5.643 0 1 1 0-11.258 5.74 5.74 0 0 1 5.997 5.634zm-3.329 0a2.678 2.678 0 1 0-2.668 2.755 2.688 2.688 0 0 0 2.668-2.755z" fill="url(#seniorlyLogo-xxLarge-a)" fill-rule="nonzero" transform="translate(-2 -4)"/></g></svg>