<svg width="72" height="72" xmlns="http://www.w3.org/2000/svg"><path d="M10.5 35.235c5.73-2.3 9.81-.485 12.24 5.445-5.21 1.12-9.29-.695-12.24-5.445zm.975 14.61c6.59 4.07 12.775 3.81 18.555-.78-6.69-5.88-12.88-5.62-18.57.78h.015zm24.54-.345a3.735 3.735 0 0 0-2.73 1.125 3.78 3.78 0 0 0-1.125 2.79 3.675 3.675 0 0 0 1.125 2.685 3.735 3.735 0 0 0 2.73 1.125h.24a3 3 0 0 0 1.23-.27A3.84 3.84 0 0 0 39.9 53.4a3.825 3.825 0 0 0-1.11-2.79 3.705 3.705 0 0 0-2.775-1.11zm0-34.5c-2.8 4.14-2.8 8.14 0 12 3.94-4.16 3.935-8.16-.015-12h.015zm-1.5 31.77c2.12-13.53-2.035-21.885-12.465-25.065-.25 12.11 3.88 20.465 12.39 25.065h.075zm8.025 2.295c5.77 4.59 11.955 4.85 18.555.78-5.74-6.38-11.95-6.64-18.63-.78h.075zm-3.81-2.295c8.51-4.61 12.625-12.965 12.345-25.065C40.62 24.9 36.54 33.24 38.655 46.77h.075zm11.1-6.09c5.21 1.12 9.29-.695 12.24-5.445-5.77-2.3-9.87-.485-12.3 5.445h.06z" fill="#FFF" fill-rule="nonzero"/></svg>