<svg xmlns="http://www.w3.org/2000/svg" width="24" height="24" viewBox="0 0 24 24">
  <g fill="none" fill-rule="evenodd">
    <path fill="currentColor" d="M0,12 C0,5.37258267 5.37258267,0 12,0 C18.6274173,0 24,5.37258267 24,12 C24,18.6274173 18.6274173,24 12,24 C5.37258267,24 0,18.6274173 0,12 Z"/>
    <path fill="#FFF" fill-rule="nonzero" d="M7.14,12 C7.14,10.974 7.974,10.14 9,10.14 L11.4,10.14 L11.4,9 L9,9 C7.344,9 6,10.344 6,12 C6,13.656 7.344,15 9,15 L11.4,15 L11.4,13.86 L9,13.86 C7.974,13.86 7.14,13.026 7.14,12 Z M9.6,12.6 L14.4,12.6 L14.4,11.4 L9.6,11.4 L9.6,12.6 Z M15,9 L12.6,9 L12.6,10.14 L15,10.14 C16.026,10.14 16.86,10.974 16.86,12 C16.86,13.026 16.026,13.86 15,13.86 L12.6,13.86 L12.6,15 L15,15 C16.656,15 18,13.656 18,12 C18,10.344 16.656,9 15,9 Z"/>
  </g>
</svg>
