<svg xmlns="http://www.w3.org/2000/svg" width="16" height="16" viewBox="0 0 16 16">
  <path fill="currentColor" fill-rule="evenodd" d="M6.99815634,11.1989141 L3.36238202,13.1103537 C3.11795973,13.2388541 2.81564615,13.1448809 2.68714575,12.9004586 C2.63597621,12.8031284 2.61831888,12.6916443 2.6369073,12.5832655 L3.33127841,8.5347713 L0.389875196,5.66761179 C0.192133407,5.47486118 0.188087254,5.15830455 0.38083786,4.96056276 C0.457592162,4.88182094 0.558163367,4.83057735 0.666981883,4.8147651 L4.73190114,4.22409776 L6.5497883,0.540656051 C6.67199945,0.293029221 6.97181237,0.191359722 7.2194392,0.313570868 C7.3180455,0.362235988 7.39785926,0.442049749 7.44652438,0.540656051 L9.26441154,4.22409776 L13.3293308,4.8147651 C13.6026032,4.85447391 13.791944,5.10819533 13.7522351,5.38146776 C13.7364229,5.49028628 13.6851793,5.59085749 13.6064375,5.66761179 L10.6650343,8.5347713 L11.3594054,12.5832655 C11.4060859,12.8554337 11.223292,13.1139117 10.9511237,13.1605922 C10.8427449,13.1791806 10.7312609,13.1615233 10.6339307,13.1103537 L6.99815634,11.1989141 Z" transform="translate(1 1)"/>
</svg>
