<svg viewBox="0 0 22 20" version="1.1" xmlns="http://www.w3.org/2000/svg" xmlns:xlink="http://www.w3.org/1999/xlink">
    <g id="Icon/star" stroke="none">
        <path d="M12,18 L6.74004913,20.7653198 C6.25120454,21.0223206 5.64657738,20.8343741 5.38957658,20.3455295 C5.28723751,20.150869 5.25192283,19.927901 5.28909967,19.7111433 L6.2936609,13.854102 L2.03827126,9.70612223 C1.64278768,9.32062102 1.63469537,8.68750776 2.02019658,8.29202418 C2.17370519,8.13454054 2.3748476,8.03205337 2.59248463,8.00042885 L8.47328849,7.14589803 L11.1032639,1.81698575 C11.3476862,1.32173209 11.9473121,1.11839309 12.4425657,1.36281539 C12.6397783,1.46014562 12.7994058,1.61977315 12.8967361,1.81698575 L15.5267115,7.14589803 L21.4075154,8.00042885 C21.9540602,8.07984647 22.3327417,8.58728932 22.2533241,9.13383419 C22.2216996,9.35147122 22.1192124,9.55261363 21.9617287,9.70612223 L17.7063391,13.854102 L18.7109003,19.7111433 C18.8042613,20.2554798 18.4386735,20.7724357 17.8943371,20.8657967 C17.6775794,20.9029736 17.4546114,20.8676589 17.2599509,20.7653198 L12,18 Z" id="Star"></path>
    </g>
</svg>
