<svg xmlns="http://www.w3.org/2000/svg" viewBox="0 0 36 36"><path d="M13.548 27.505c9.057 0 14.01-7.503 14.01-14.01 0-.213-.005-.425-.014-.636A10.017 10.017 0 0 0 30 10.309a9.829 9.829 0 0 1-2.828.775 4.94 4.94 0 0 0 2.165-2.723 9.865 9.865 0 0 1-3.126 1.195 4.925 4.925 0 0 0-8.391 4.49A13.98 13.98 0 0 1 7.67 8.902a4.907 4.907 0 0 0-.667 2.475 4.92 4.92 0 0 0 2.192 4.098 4.887 4.887 0 0 1-2.23-.616c-.002.02-.002.041-.002.063a4.926 4.926 0 0 0 3.95 4.827 4.938 4.938 0 0 1-2.223.085 4.93 4.93 0 0 0 4.6 3.42 9.88 9.88 0 0 1-6.115 2.108A9.9 9.9 0 0 1 6 25.293a13.94 13.94 0 0 0 7.548 2.212" fill="currentColor" fill-rule="evenodd"/></svg>