<?xml version="1.0" encoding="UTF-8"?>
<svg width="24px" height="24px" viewBox="0 0 24 24" version="1.1" xmlns="http://www.w3.org/2000/svg" xmlns:xlink="http://www.w3.org/1999/xlink">
    <!-- Generator: Sketch 52.5 (67469) - http://www.bohemiancoding.com/sketch -->
    <title>icon/unknown</title>
    <desc>Created with Sketch.</desc>
    <defs>
        <path d="M3.5,14 L3.5,11.6666667 L5.83333333,11.6666667 L5.83333333,14 L3.5,14 Z M4.66666667,0 C7.245,0 9.33333333,2.08833333 9.33333333,4.66666667 C9.33333333,7.58333333 5.83333333,7.875 5.83333333,10.5 L3.5,10.5 C3.5,6.70833333 7,7 7,4.66666667 C7,3.38333333 5.95,2.33333333 4.66666667,2.33333333 C3.38333333,2.33333333 2.33333333,3.38333333 2.33333333,4.66666667 L0,4.66666667 C0,2.08833333 2.08833333,0 4.66666667,0 Z" id="unknown-regular-path-1"></path>
        <rect id="unknown-regular-path-3" x="0" y="0" width="24" height="24"></rect>
    </defs>
    <g id="icon/unknown" stroke="none" stroke-width="1" fill="none" fill-rule="evenodd">
        <g transform="translate(7.000000, 5.000000)">
            <mask id="unknown-regular-mask-2" fill="white">
                <use xlink:href="#unknown-regular-path-1"></use>
            </mask>
            <use id="Combined-Shape" fill="#000000" fill-rule="nonzero" xlink:href="#unknown-regular-path-1"></use>
            <g id="Color/Slate-base" mask="url(#unknown-regular-mask-2)">
                <g transform="translate(-7.000000, -5.000000)">
                    <mask id="unknown-regular-mask-4" fill="white">
                        <use xlink:href="#unknown-regular-path-3"></use>
                    </mask>
                    <use id="Slate-base" stroke="none" fill="currentcolor" fill-rule="evenodd" xlink:href="#unknown-regular-path-3"></use>
                </g>
            </g>
        </g>
    </g>
</svg>