<svg xmlns="http://www.w3.org/2000/svg" xmlns:xlink="http://www.w3.org/1999/xlink" width="20" height="20"><defs><path id="users-caption-a" d="M13.75 10c1.15 0 2.075-.933 2.075-2.083 0-1.15-.925-2.084-2.075-2.084a2.084 2.084 0 0 0 0 4.167zM7.5 9.167a2.49 2.49 0 0 0 2.492-2.5 2.497 2.497 0 0 0-4.992 0c0 1.383 1.117 2.5 2.5 2.5zm6.25 2.5c-1.525 0-4.583.766-4.583 2.291v1.875h9.166v-1.875c0-1.525-3.058-2.291-4.583-2.291zm-6.25-.834c-1.942 0-5.833.975-5.833 2.917v2.083H7.5v-1.875c0-.708.275-1.95 1.975-2.891-.725-.15-1.425-.234-1.975-.234z"/></defs><g fill="none" fill-rule="evenodd"><mask id="users-caption-b" fill="#fff"><use xlink:href="#users-caption-a"/></mask><use fill="#000" fill-rule="nonzero" xlink:href="#users-caption-a"/><g fill="currentColor" fill-rule="nonzero" mask="url(#users-caption-b)"><path d="M0 0h20v20H0z"/></g></g></svg>