<svg xmlns="http://www.w3.org/2000/svg" width="24" height="24" viewBox="0 0 24 24">
  <g fill="none" fill-rule="evenodd">
    <path fill="#CE1312" d="M0,12 C0,5.37258267 5.37258267,0 12,0 C18.6274173,0 24,5.37258267 24,12 C24,18.6274173 18.6274173,24 12,24 C5.37258267,24 0,18.6274173 0,12 Z"/>
    <path fill="#FFF" d="M18.272,9.58453814 C18.272,9.58453814 18.1468,8.68321855 17.7632,8.28631093 C17.2764,7.76513973 16.7308,7.76268716 16.4808,7.7324388 C14.6896,7.6 12.0028,7.6 12.0028,7.6 L11.9972,7.6 C11.9972,7.6 9.3104,7.6 7.5192,7.7324388 C7.2688,7.76268716 6.7236,7.76513973 6.2364,8.28631093 C5.8528,8.68321855 5.728,9.58453814 5.728,9.58453814 C5.728,9.58453814 5.6,10.643231 5.6,11.7015151 L5.6,12.6939885 C5.6,13.7526814 5.728,14.8109655 5.728,14.8109655 C5.728,14.8109655 5.8528,15.7122851 6.2364,16.1091927 C6.7236,16.6303639 7.3632,16.6140134 7.648,16.6683787 C8.672,16.7689341 12,16.8 12,16.8 C12,16.8 14.6896,16.7959124 16.4808,16.6634736 C16.7308,16.6328165 17.2764,16.6303639 17.7632,16.1091927 C18.1468,15.7122851 18.272,14.8109655 18.272,14.8109655 C18.272,14.8109655 18.4,13.7526814 18.4,12.6939885 L18.4,11.7015151 C18.4,10.643231 18.272,9.58453814 18.272,9.58453814 L18.272,9.58453814 Z"/>
    <polygon fill="#CE1312" points="10.678 13.897 10.678 10.221 14.136 12.065"/>
  </g>
</svg>
