]<svg viewBox="0 0 24 24">
    <defs>
        <path d="M21,11 L17.83,11 L20.37,8.46 C20.76,8.07 20.76,7.44 20.37,7.05 C19.98,6.66 19.34,6.66 18.95,7.05 L15,11 L13,11 L13,9 L16.95,5.05 C17.34,4.66 17.34,4.02 16.95,3.63 C16.56,3.24 15.93,3.24 15.54,3.63 L13,6.17 L13,3 C13,2.45 12.55,2 12,2 C11.45,2 11,2.45 11,3 L11,6.17 L8.46,3.63 C8.07,3.24 7.44,3.24 7.05,3.63 C6.66,4.02 6.66,4.66 7.05,5.05 L11,9 L11,11 L9,11 L5.05,7.05 C4.66,6.66 4.02,6.66 3.63,7.05 C3.24,7.44 3.24,8.07 3.63,8.46 L6.17,11 L3,11 C2.45,11 2,11.45 2,12 C2,12.55 2.45,13 3,13 L6.17,13 L3.63,15.54 C3.24,15.93 3.24,16.56 3.63,16.95 C4.02,17.34 4.66,17.34 5.05,16.95 L9,13 L11,13 L11,15 L7.05,18.95 C6.66,19.34 6.66,19.98 7.05,20.37 C7.44,20.76 8.07,20.76 8.46,20.37 L11,17.83 L11,21 C11,21.55 11.45,22 12,22 C12.55,22 13,21.55 13,21 L13,17.83 L15.54,20.37 C15.93,20.76 16.56,20.76 16.95,20.37 C17.34,19.98 17.34,19.34 16.95,18.95 L13,15 L13,13 L15,13 L18.95,16.95 C19.34,17.34 19.98,17.34 20.37,16.95 C20.76,16.56 20.76,15.93 20.37,15.54 L17.83,13 L21,13 C21.55,13 22,12.55 22,12 C22,11.45 21.55,11 21,11 Z" id="path-1-ac"></path>
    </defs>
    <g id="icon-/-ac" stroke="none" stroke-width="1" fill="none" fill-rule="evenodd">
        <mask id="mask-2-ac" fill="white">
            <use xlink:href="#path-1-ac"></use>
        </mask>
        <use id="Path" fill="#000000" fill-rule="nonzero" xlink:href="#path-1-ac"></use>
        <g id="color-/-slate-/-base/-ac" mask="url(#mask-2-ac)" fill="currentColor" fill-rule="nonzero">
            <rect id="color" x="0" y="0" width="24" height="24"></rect>
        </g>
    </g>
</svg>
