<svg viewBox="0 0 24 24">
  <path fill="currentColor" d="M20,2 C21.1045695,2 22,2.8954305 22,4 L22,20 C22,21.1045695 21.1045695,22 20,22 L4,22 C2.8954305,22 2,21.1045695 2,20 L2,4 C2,2.8954305 2.8954305,2 4,2 L20,2 Z M16.9226732,7.70710678 L10.1035534,14.5178932 L7.91899351,12.3333333 C7.59399351,12.0083333 7.06899351,12.0083333 6.74399351,12.3333333 C6.41899351,12.6583333 6.41899351,13.1833333 6.74399351,13.5083333 L9.52022006,16.2845599 C9.84522006,16.6095599 10.3702201,16.6095599 10.6952201,16.2845599 L18.0976732,8.88210678 C18.4226732,8.55710678 18.4226732,8.03210678 18.0976732,7.70710678 C17.7726732,7.38210678 17.2476732,7.38210678 16.9226732,7.70710678 Z"></path>
</svg>
