<svg viewBox="0 0 24 24">
  <path fill="currentColor" d="M19.2727273,2 L4.72727273,2 C3.22104159,2 2,3.22104159 2,4.72727273 L2,19.2727273 C2,20.7789584 3.22104159,22 4.72727273,22 L19.2727273,22 C20.7789584,22 22,20.7789584 22,19.2727273 L22,4.72727273 C22,3.22104159 20.7789584,2 19.2727273,2 Z M19.2727273,2.90909091 C20.2768814,2.90909091 21.0909091,3.72311864 21.0909091,4.72727273 L21.0909091,19.2727273 C21.0909091,20.2768814 20.2768814,21.0909091 19.2727273,21.0909091 L4.72727273,21.0909091 C3.72311864,21.0909091 2.90909091,20.2768814 2.90909091,19.2727273 L2.90909091,4.72727273 C2.90909091,3.72311864 3.72311864,2.90909091 4.72727273,2.90909091 L19.2727273,2.90909091 Z"></path>
</svg>
