<svg viewBox="0 0 36 36"><path fill-rule="evenodd" fill="currentColor" d="M26.45 26.452h-3.557v-5.57c0-1.329-.026-3.037-1.85-3.037-1.852 0-2.135 1.447-2.135 2.94v5.667h-3.556V14.999h3.412v1.564h.048c.476-.9 1.637-1.85 3.37-1.85 3.602 0 4.267 2.372 4.267 5.458v6.281zm-15.112-13.02a2.063 2.063 0 1 1 0-4.127c1.137 0 2.064.924 2.064 2.063 0 1.14-.927 2.064-2.064 2.064zm-1.783 13.02h3.565V14.999H9.556v11.453zM28.223 6H7.769C6.793 6 6 6.776 6 7.73v20.54c0 .956.793 1.73 1.77 1.73h20.453C29.2 30 30 29.227 30 28.27V7.73C30 6.775 29.2 6 28.223 6z"/></svg>
