<svg viewBox="0 0 36 36"><path fill="currentColor" fill-rule="evenodd" d="M2.64 17.458c3.413-1.37 5.844-.289 7.291 3.245-3.103.668-5.534-.414-7.291-3.245zm.58 8.707c3.926 2.425 7.61 2.27 11.054-.465-3.985-3.504-7.673-3.349-11.062.465h.009zm14.62-.206c-.612-.01-1.2.233-1.627.67a2.253 2.253 0 0 0-.67 1.663 2.19 2.19 0 0 0 .67 1.6 2.22 2.22 0 0 0 1.626.67h.143c.253 0 .503-.055.733-.16a2.288 2.288 0 0 0 1.438-2.119 2.28 2.28 0 0 0-.66-1.662 2.207 2.207 0 0 0-1.654-.662zm0-20.559c-1.669 2.467-1.669 4.85 0 7.151 2.346-2.479 2.343-4.863-.01-7.151h.01zm-.894 18.932c1.262-8.062-1.213-13.041-7.426-14.936-.149 7.216 2.312 12.195 7.38 14.936h.046zm4.78 1.368c3.437 2.735 7.122 2.89 11.053.465-3.42-3.802-7.118-3.957-11.098-.465h.045zm-2.27-1.368c5.07-2.747 7.521-7.726 7.354-14.936-6.228 1.904-8.658 6.874-7.398 14.936h.044zm6.613-3.629c3.103.668 5.534-.414 7.291-3.245-3.437-1.37-5.88-.289-7.327 3.245h.036z"/></svg>
