<svg viewBox="0 0 24 24">
  <path fill="currentColor" d="M14.65,4.98 L9.65,3.23 C9.23,3.08 8.77,3.08 8.35,3.22 L4.36,4.56 C3.55,4.84 3,5.6 3,6.46 L3,18.31 C3,19.72 4.41,20.68 5.72,20.17 L8.65,19.03 C8.87,18.94 9.12,18.94 9.34,19.02 L14.34,20.77 C14.76,20.92 15.22,20.92 15.64,20.78 L19.63,19.44 C20.44,19.17 20.99,18.4 20.99,17.54 L20.99,5.69 C20.99,4.28 19.58,3.32 18.27,3.83 L15.34,4.97 C15.12,5.05 14.88,5.06 14.65,4.98 L14.65,4.98 Z M15,18.89 L9,16.78 L9,5.11 L15,7.22 L15,18.89 Z"></path>
</svg>
