<svg viewBox="0 0 24 24">
    <defs>
        <path d="M10.86,2.8 C11.54,2.32 12.46,2.32 13.15,2.8 L13.15,2.8 L20.7,8.09 C21.1,8.37 20.9,9 20.41,9 L20.41,9 L13,9 L13,21 C13,21.55 12.55,22 12,22 C11.45,22 11,21.55 11,21 L11,21 L11,9 L3.59,9 C3.1,9 2.9,8.37 3.3,8.09 L3.3,8.09 Z M3.16,12.18 C3.71,12.08 4.23,12.44 4.33,12.98 L4.33,12.98 L4.9,16 L8,16 C8.55,16 9,16.45 9,17 L9,17 L9,21 C9,21.55 8.55,22 8,22 C7.45,22 7,21.55 7,21 L7,21 L7,18 L5.02,18 L5.01,21.01 C5.01,21.56 4.56,22 4.01,22 L4.01,22 L4,22 C3.45,22 3,21.55 3,21 L3,21 L3,16.74 L2.36,13.35 C2.26,12.8 2.62,12.28 3.16,12.18 Z M19.67,12.98 C19.78,12.44 20.3,12.08 20.84,12.18 C21.38,12.28 21.74,12.81 21.64,13.35 L21.64,13.35 L21,16.74 L21,21 C21,21.55 20.55,22 20,22 L20,22 L19.883801,21.9933856 C19.3880102,21.9365816 19,21.5207143 19,21.01 L19,21.01 L18.98,18 L17,18 L17,21 C17,21.55 16.55,22 16,22 C15.45,22 15,21.55 15,21 L15,21 L15,17 C15,16.45 15.45,16 16,16 L16,16 L19.1,16 Z" id="path-1-outdoor"></path>
    </defs>
    <g id="icon-/-outdoor" stroke="none" stroke-width="1" fill="none" fill-rule="evenodd">
        <polygon id="Path" points="0 0 24 0 24 24 0 24"></polygon>
        <mask id="mask-2-outdoor" fill="white">
            <use xlink:href="#path-1-outdoor"></use>
        </mask>
        <use id="Combined-Shape" fill="#000000" fill-rule="nonzero" xlink:href="#path-1-outdoor"></use>
        <g id="color-/-slate-/-base" mask="url(#mask-2-outdoor)" fill="currentColor" fill-rule="nonzero">
            <rect id="color" x="0" y="0" width="24" height="24"></rect>
        </g>
    </g>
</svg>
