<svg viewBox="0 0 48 48" version="1.1" xmlns="http://www.w3.org/2000/svg">
  <path fill="currentColor" d="M37.2875536,40.0583691 C40.3776824,40.0583691 42.9356223,39.1484979 44.9613734,37.3287554 C46.9871245,35.5090129 48,33.088412 48,30.0669528 C48,24.9167382 45.2875536,21.6892704 39.8626609,20.3845494 L39.8626609,20.3845494 L35.5364807,20.3845494 C35.8798283,17.7064378 37.0472103,15.7493562 39.0386266,14.5133047 C41.0300429,13.2772532 44.0171674,12.3845494 48,11.8351931 L48,11.8351931 L48,7.2 C40.72103,7.40600858 35.1416309,9.15708155 31.2618026,12.4532189 C27.3819742,15.7493562 25.4420601,20.3845494 25.4420601,26.3587983 C25.4420601,30.47897 26.5236052,33.7922747 28.6866953,36.2987124 C30.8497854,38.8051502 33.7167382,40.0583691 37.2875536,40.0583691 Z M11.8454936,40.0583691 C14.9356223,40.0583691 17.4935622,39.1484979 19.5193133,37.3287554 C21.5450644,35.5090129 22.5579399,33.088412 22.5579399,30.0669528 C22.5579399,24.9167382 19.8454936,21.6892704 14.4206009,20.3845494 L14.4206009,20.3845494 L10.0944206,20.3845494 C10.4377682,17.7064378 11.6051502,15.7493562 13.5965665,14.5133047 C15.5879828,13.2772532 18.5751073,12.3845494 22.5579399,11.8351931 L22.5579399,11.8351931 L22.5579399,7.2 C15.27897,7.40600858 9.69957082,9.15708155 5.81974249,12.4532189 C1.93991416,15.7493562 0,20.3845494 0,26.3587983 C0,30.47897 1.08154506,33.7922747 3.24463519,36.2987124 C5.40772532,38.8051502 8.27467811,40.0583691 11.8454936,40.0583691 Z"></path>
</svg>