<svg viewBox="0 0 24 24">
    <defs>
        <path d="M3,17 L21,17 C21.55,17 22,17.45 22,18 C22,18.55 21.55,19 21,19 L3,19 C2.45,19 2,18.55 2,18 C2,17.45 2.45,17 3,17 Z M13.84,7.79 C13.94,7.55 14,7.28 14,7 C14,5.9 13.1,5 12,5 C10.9,5 10,5.9 10,7 C10,7.28 10.06,7.55 10.16,7.79 C6.25,8.6 3.27,11.93 3,16 L21,16 C20.73,11.93 17.75,8.6 13.84,7.79 Z" id="path-1-room-service"></path>
    </defs>
    <g id="icon-/-room-service" stroke="none" stroke-width="1" fill="none" fill-rule="evenodd">
        <rect id="bounding-box" x="0" y="0" width="24" height="24"></rect>
        <mask id="mask-2-room-service" fill="white">
            <use xlink:href="#path-1-room-service"></use>
        </mask>
        <use id="Shape" fill="#000000" fill-rule="nonzero" xlink:href="#path-1-room-service"></use>
        <g id="color-/-slate-/-base" mask="url(#mask-2-room-service)" fill="currentColor" fill-rule="nonzero">
            <rect id="color" x="0" y="0" width="24" height="24"></rect>
        </g>
    </g>
</svg>
