<svg viewBox="0 0 24 24">
    <defs>
        <path d="M21,3 L3,3 C1.9,3 1,3.9 1,5 L1,17 C1,18.1 1.9,19 3,19 L8,19 L8,20 C8,20.55 8.45,21 9,21 L15,21 C15.55,21 16,20.55 16,20 L16,19 L21,19 C22.1,19 22.99,18.1 22.99,17 L23,5 C23,3.9 22.1,3 21,3 Z M20,17 L4,17 C3.45,17 3,16.55 3,16 L3,6 C3,5.45 3.45,5 4,5 L20,5 C20.55,5 21,5.45 21,6 L21,16 C21,16.55 20.55,17 20,17 Z" id="path-1-tv"></path>
    </defs>
    <g id="icon-/-tv" stroke="none" stroke-width="1" fill="none" fill-rule="evenodd">
        <polygon id="Path" points="0 0 24 0 24 24 0 24"></polygon>
        <mask id="mask-2-tv" fill="white">
            <use xlink:href="#path-1-tv"></use>
        </mask>
        <use id="Shape" fill="#000000" fill-rule="nonzero" xlink:href="#path-1-tv"></use>
        <g id="color-/-slate-/-base" mask="url(#mask-2-tv)" fill="currentColor" fill-rule="nonzero">
            <rect id="color" x="0" y="0" width="24" height="24"></rect>
        </g>
    </g>
</svg>
