<?xml version="1.0" encoding="UTF-8"?>
<svg width="120px" height="120px" viewBox="0 0 120 120" version="1.1" xmlns="http://www.w3.org/2000/svg" xmlns:xlink="http://www.w3.org/1999/xlink">
    <!-- Generator: Sketch 50.2 (55047) - http://www.bohemiancoding.com/sketch -->
    <title>Home</title>
    <desc>Created with Sketch.</desc>
    <defs>
        <rect id="path-1" x="0" y="0" width="120" height="120"></rect>
    </defs>
    <g id="Home" stroke="none" stroke-width="1" fill="none" fill-rule="evenodd">
        <g>
            <mask id="mask-2" fill="white">
                <use xlink:href="#path-1"></use>
            </mask>
            <use id="Mask" fill="#FFFFFF" xlink:href="#path-1"></use>
            <path d="M13.1249342,89.5353595 C3.74429588,82.2340985 3.74429588,46.8794469 22.1813007,28.6772212 C40.6183054,10.4749954 64.4683625,8 78.6311756,8 C92.7939887,8 104.63911,8.67128692 104.63911,22.2560936 C104.63911,35.8409003 73.1803492,30.4231411 73.1803492,49.1203424 C73.1803492,67.8175436 116.000525,79.2212745 116.000525,92.9996324 C116.000525,106.77799 99.3822793,108 84.7932314,108 C70.2041835,108 22.5055725,96.8366205 13.1249342,89.5353595 Z" id="Blob" fill-opacity="0.2" fill="#5575B7" mask="url(#mask-2)"></path>
            <g id="House" mask="url(#mask-2)">
                <g transform="translate(17.000000, 40.000000)">
                    <rect id="Side-room" stroke="none" fill="#FFF5EB" fill-rule="evenodd" x="7" y="32" width="40" height="38"></rect>
                    <path d="M11.9407637,8 L71,8 L71,40 L4.44076365,40 C2.23162465,40 0.440763654,38.209139 0.440763654,36 C0.440763654,35.5953799 0.502155681,35.1931018 0.622843741,34.8069 L8.12284374,10.8069 C8.64468774,9.13699924 10.1912238,8 11.9407637,8 Z" id="Side-roof" stroke="none" fill="#445882" fill-rule="evenodd"></path>
                    <rect id="Side-room-shadow" stroke="none" fill="#ECD8C4" fill-rule="evenodd" x="27" y="40" width="4" height="30"></rect>
                    <polygon id="Main-room" stroke="none" fill="#FFF5EB" fill-rule="evenodd" points="31 24 60 0 87 24 87 72 31 72"></polygon>
                    <polyline id="Roof" stroke="#5575B7" stroke-width="4" fill="none" stroke-linecap="round" stroke-linejoin="round" points="29 26 60 0 89 26"></polyline>
                    <rect id="Door" stroke="none" fill="#ECD8C4" fill-rule="evenodd" x="39" y="48" width="16" height="24"></rect>
                    <path d="M39,46 C39,41.581722 42.581722,38 47,38 C51.418278,38 55,41.581722 55,46 L39,46 Z" id="Door-window" stroke="none" fill="#ECD8C4" fill-rule="evenodd"></path>
                    <rect id="Square-window" stroke="none" fill="#ECD8C4" fill-rule="evenodd" x="63" y="38" width="16" height="16"></rect>
                    <circle id="Round-window" stroke="none" fill="#ECD8C4" fill-rule="evenodd" cx="59" cy="22" r="6"></circle>
                </g>
            </g>
            <path d="M94,112 L78,112 C78,107.581722 81.581722,104 86,104 C86.7712524,104 87.5170141,104.109139 88.2226835,104.312815 C88.0765629,103.564429 88,102.791155 88,102 C88,95.372583 93.372583,90 100,90 C106.627417,90 112,95.372583 112,102 C112,106.173942 109.868981,109.850157 106.63559,112 L94,112 Z" id="Bush" fill="#196C55" mask="url(#mask-2)"></path>
            <g id="Tree" mask="url(#mask-2)">
                <g transform="translate(8.000000, 72.000000)">
                    <circle id="Tree" fill="#196C55" cx="12" cy="12" r="12"></circle>
                    <rect id="Rectangle-3" fill="#A88D72" x="11" y="20" width="2" height="18"></rect>
                </g>
            </g>
            <circle id="Sun" fill="#FEC328" mask="url(#mask-2)" cx="28" cy="20" r="12"></circle>
        </g>
    </g>
</svg>