<svg xmlns="http://www.w3.org/2000/svg" width="160" height="160" viewBox="0 0 160 160">
  <g fill="none" fill-rule="evenodd">
    <circle cx="80" cy="80" r="80" fill="#C5DBF1"/>
    <g transform="translate(8 8)">
      <polygon fill="#FAF9F7" points="109.335 20.834 128.865 20.834 128.865 3.884 109.335 3.884"/>
      <polygon fill="#377F7E" points="107.507 6.473 130.693 6.473 130.693 0 107.507 0"/>
      <path fill="#295F5E" d="M138.208378,117.052541 L5.35962162,117.052541 C2.39886486,117.052541 0,114.65027 0,111.695838 C0,108.737027 2.39886486,106.33427 5.35962162,106.33427 L11.6776216,106.33427 L11.6776216,111.508054 L131.888432,111.508054 L131.888432,106.33427 L138.208378,106.33427 C141.16573,106.33427 143.565081,108.737027 143.565081,111.695838 C143.565081,114.65027 141.16573,117.052541 138.208378,117.052541"/>
      <polygon fill="#FAF9F7" points="11.678 111.508 131.888 111.508 131.888 56.433 11.678 56.433"/>
      <polygon fill="#E5E5E0" points="11.678 60.085 131.888 60.085 131.888 56.433 11.678 56.433"/>
      <polyline fill="#377F7E" points="138.857 56.433 4.707 56.433 14.834 20.834 128.865 20.834 138.857 56.433"/>
      <polyline fill="#2A333F" points="57.566 108.919 57.405 63.514 86.162 63.514 86.323 108.919 57.566 108.919"/>
      <polygon fill="#262E39" points="59.994 108.919 83.573 108.919 83.573 66.287 59.994 66.287"/>
      <polygon fill="#F4F4F1" points="25.396 99.138 44.813 99.138 44.813 68.877 25.396 68.877"/>
      <polygon fill="#F4F4F1" points="98.753 99.138 118.171 99.138 118.171 68.877 98.753 68.877"/>
      <polygon fill="#363025" points="34.375 100.052 35.835 100.052 35.835 67.96 34.375 67.96"/>
      <polygon fill="#363025" points="24.336 84.737 45.872 84.737 45.872 83.278 24.336 83.278"/>
      <path fill="#2A333F" d="M36.0754054,99.1381622 L44.8127027,99.1381622 L44.8127027,84.9784865 L36.0754054,84.9784865 L36.0754054,99.1381622 Z M25.3955676,99.1381622 L34.1333514,99.1381622 L34.1333514,84.9784865 L25.3955676,84.9784865 L25.3955676,99.1381622 Z M25.3955676,83.0369189 L34.1333514,83.0369189 L34.1333514,68.8767568 L25.3955676,68.8767568 L25.3955676,83.0369189 Z M36.0754054,83.0369189 L44.8127027,83.0369189 L44.8127027,68.8767568 L36.0754054,68.8767568 L36.0754054,83.0369189 Z M22.806973,101.72627 L47.4017838,101.72627 L47.4017838,66.2867027 L22.806973,66.2867027 L22.806973,101.72627 Z"/>
      <path fill="#4E3D2C" d="M63.3940541,91.9551892 C62.6794054,91.9551892 62.1,91.3748108 62.1,90.6616216 C62.1,89.946 62.6794054,89.3670811 63.3940541,89.3670811 C64.1096757,89.3670811 64.6890811,89.946 64.6890811,90.6616216 C64.6890811,91.3748108 64.1096757,91.9551892 63.3940541,91.9551892"/>
      <path fill="#FAF9F7" d="M64.2643784,90.2374054 C64.2643784,90.9505946 63.6844865,91.5304865 62.9698378,91.5304865 C62.2547027,91.5304865 61.6752973,90.9505946 61.6752973,90.2374054 C61.6752973,89.5217838 62.2547027,88.9428649 62.9698378,88.9428649 C63.6844865,88.9428649 64.2643784,89.5217838 64.2643784,90.2374054"/>
      <polygon fill="#F4F4F1" points="63.013 83.064 80.715 83.064 80.715 69.256 63.013 69.256"/>
      <polyline fill="#E5E5E0" points="128.865 11.057 109.335 6.473 128.865 6.473 128.865 11.057"/>
      <polyline fill="#20262F" points="60.731 108.919 59.994 108.919 59.994 66.287 83.573 66.287 83.573 67.017 60.731 67.017 60.731 108.919"/>
      <polygon fill="#377F7E" points="54.706 111.508 89.182 111.508 89.182 108.919 54.706 108.919"/>
      <path fill="#295F5E" d="M14.9667568,21.0463784 L33.5704865,21.0463784 L26.9892973,56.2227568 L5.09302703,56.2227568 L14.9667568,21.0463784 Z M52.5843243,21.0463784 L49.2908108,56.2227568 L27.4198378,56.2227568 L34.001027,21.0463784 L52.5843243,21.0463784 Z M71.6244324,21.0463784 L71.6244324,56.2227568 L49.716,56.2227568 L53.009027,21.0463784 L71.6244324,21.0463784 Z M72.0471892,21.0463784 L90.6625946,21.0463784 L93.9556216,56.2227568 L72.0471892,56.2227568 L72.0471892,21.0463784 Z M109.670595,21.0463784 L116.251297,56.2227568 L94.3803243,56.2227568 L91.0872973,21.0463784 L109.670595,21.0463784 Z M128.705351,21.0463784 L138.578595,56.2227568 L116.681351,56.2227568 L110.100162,21.0463784 L128.705351,21.0463784 Z M138.857351,56.4329189 L128.865405,20.8342703 L14.8344324,20.8342703 L4.70675676,56.4329189 L138.857351,56.4329189 L138.857351,56.4329189 Z"/>
    </g>
    <g transform="translate(102 70)">
      <path fill="#262E39" d="M0,6 L50,6 C50,8.209139 48.209139,10 46,10 L4,10 C1.790861,10 2.705415e-16,8.209139 0,6 L0,6 L0,6 Z"/>
      <polygon fill="#262E39" points="42 2 44 0 46 2 46 62 42 62"/>
      <g transform="translate(0 12)">
        <rect width="50" height="29" fill="#C62C2E"/>
        <path fill="#FFF" fill-rule="nonzero" d="M7.245,21.165 C9.51,21.165 11.025,19.935 11.025,17.895 C11.025,15.9 9.585,15.195 7.98,14.7 C6.675,14.295 5.535,14.145 5.535,13.005 C5.535,12.09 6.255,11.685 7.275,11.685 C8.16,11.685 9.435,12 10.515,12.705 L10.515,10.785 C9.6,10.245 8.34,9.975 7.29,9.975 C5.085,9.975 3.63,11.16 3.63,13.14 C3.63,15.045 5.01,15.735 6.57,16.215 C7.98,16.635 9.12,16.8 9.12,18 C9.12,18.99 8.355,19.455 7.26,19.455 C6.36,19.455 5.025,19.125 3.945,18.375 L3.945,20.37 C4.905,20.895 6.18,21.165 7.245,21.165 Z M18.685,21.165 C21.88,21.165 24.28,18.735 24.28,15.57 C24.28,12.405 21.88,9.975 18.685,9.975 C15.49,9.975 13.09,12.405 13.09,15.57 C13.09,18.735 15.49,21.165 18.685,21.165 Z M18.685,19.425 C16.57,19.425 14.995,17.73 14.995,15.57 C14.995,13.41 16.57,11.715 18.685,11.715 C20.8,11.715 22.375,13.41 22.375,15.57 C22.375,17.73 20.8,19.425 18.685,19.425 Z M33.785,21 L33.785,19.305 L28.85,19.305 L28.85,10.14 L26.945,10.14 L26.945,21 L33.785,21 Z M38.985,21 C41.07,21 42.57,20.64 43.695,19.785 C44.955,18.84 45.675,17.31 45.675,15.54 C45.675,13.665 44.865,12.06 43.425,11.13 C42.315,10.41 40.905,10.14 39.225,10.14 L36.21,10.14 L36.21,21 L38.985,21 Z M39.15,19.305 L38.115,19.305 L38.115,11.835 L39.135,11.835 C40.32,11.835 41.415,11.94 42.27,12.525 C43.17,13.14 43.77,14.205 43.77,15.555 C43.77,16.86 43.215,17.91 42.375,18.525 C41.595,19.095 40.575,19.305 39.15,19.305 Z"/>
      </g>
    </g>
  </g>
</svg>
