<?xml version="1.0" encoding="UTF-8"?>
<svg width="120px" height="120px" viewBox="0 0 120 120" version="1.1" xmlns="http://www.w3.org/2000/svg" xmlns:xlink="http://www.w3.org/1999/xlink">
    <!-- Generator: Sketch 50.2 (55047) - http://www.bohemiancoding.com/sketch -->
    <title>Support</title>
    <desc>Created with Sketch.</desc>
    <defs>
        <rect id="path-1" x="0" y="0" width="120" height="120"></rect>
        <rect id="path-3" x="0" y="0" width="18" height="18"></rect>
    </defs>
    <g id="Support" stroke="none" stroke-width="1" fill="none" fill-rule="evenodd">
        <g>
            <mask id="mask-2" fill="white">
                <use xlink:href="#path-1"></use>
            </mask>
            <use id="Mask" fill-opacity="0" fill="#D8D8D8" xlink:href="#path-1"></use>
            <path d="M113.32913,42.3922994 C105.312376,21.4685302 65.8161799,-10.5250243 37.4460225,7.11408357 C9.07586514,24.7531915 1.15297764,101.183816 8.68454447,109.56756 C16.2161113,117.951304 53.6202161,94.3833509 73.765546,85.781776 C93.9108759,77.1802011 121.345883,63.3160686 113.32913,42.3922994 Z" id="Blob" fill-opacity="0.2" fill="#5575B7" mask="url(#mask-2)"></path>
            <g id="Girl" mask="url(#mask-2)">
                <g transform="translate(17.000000, 8.000000)">
                    <path d="M35,66 L51,66 C59.836556,66 67,73.163444 67,82 L19,82 L19,82 C19,73.163444 26.163444,66 35,66 Z" id="Body" fill="#FEC328"></path>
                    <path d="M8.6473737,68.702838 C8.27929751,66.7608332 8.08670206,64.7567307 8.08670206,62.707645 C8.08670206,45.2218033 22.1115737,31.0116458 39.5260315,30.7124579 C39.894107,32.6544609 40.0867021,34.6585615 40.0867021,36.707645 C40.0867021,54.1934868 26.0618305,68.4036443 8.64737258,68.7028321 Z" id="Hair-bottom-left" fill="#B38C6F" transform="translate(24.086702, 49.707648) rotate(-64.000000) translate(-24.086702, -49.707648) "></path>
                    <path d="M72.3913097,71.9113676 C70.4844934,71.3908735 68.5987896,70.6854364 66.7570837,69.7871763 C51.0409132,62.1218878 44.4170073,43.2870937 51.7820949,27.5039273 C53.6889093,28.0244213 55.574611,28.7298579 57.4163152,29.628117 C73.1324856,37.2934055 79.7563915,56.1281997 72.3913039,71.9113661 L72.3913097,71.9113676 Z" id="Hair-bottom-right" fill="#B38C6F" transform="translate(62.086699, 49.707647) scale(1, -1) translate(-62.086699, -49.707647) "></path>
                    <circle id="Head" fill="#FFD7B3" cx="43" cy="32" r="32"></circle>
                    <path d="M41.0775294,0.0567965057 C41.7135328,0.0191104832 42.3545347,0 43,0 C57.99508,0 70.581217,10.313911 74.0512941,24.2346162 C71.2581009,25.3728282 68.2022923,26 65,26 C51.745166,26 41,15.254834 41,2 C41,1.34582242 41.0261731,0.697757911 41.0775294,0.0567965057 Z" id="Hair-top-right" fill="#B38C6F"></path>
                    <path d="M11.5606716,37.9903801 C11.1925955,36.0483753 11,34.0442727 11,31.9951871 C11,14.5093454 25.0248716,0.299187883 42.4393295,-2.65716268e-15 C42.8074049,1.94200293 43,3.94610352 43,5.99518709 C43,23.4810288 28.9751284,37.6911863 11.5606705,37.9903742 Z" id="Hair-top-left" fill="#B38C6F"></path>
                    <path d="M35,50 L51,50 C51,54.418278 47.418278,58 43,58 C38.581722,58 35,54.418278 35,50 Z" id="Mouth" fill="#FFFFFF"></path>
                    <path d="M39,63 L47,63 L47,67 C47,69.209139 45.209139,71 43,71 L43,71 C40.790861,71 39,69.209139 39,67 L39,63 Z" id="Neck" fill="#FFD9B5"></path>
                    <path d="M47,63.752425 L47,65.752425 C45.689623,65.9158267 44.3546414,66 43,66 C41.6453586,66 40.310377,65.9158267 39,65.752425 L39,63.752425 C40.310377,63.9158267 41.6453586,64 43,64 C44.3546414,64 45.689623,63.9158267 47,63.752425 Z" id="Neck-shadow" fill="#EEC59F"></path>
                    <path d="M55,44 C52.790861,44 51,42.209139 51,40 C51,37.790861 52.790861,36 55,36 C57.209139,36 59,37.790861 59,40 C59,42.209139 57.209139,44 55,44 Z M31,44 C28.790861,44 27,42.209139 27,40 C27,37.790861 28.790861,36 31,36 C33.209139,36 35,37.790861 35,40 C35,42.209139 33.209139,44 31,44 Z" id="Eyes" fill="#674646"></path>
                    <path d="M57,48 C54.790861,48 53,47.1045695 53,46 C53,44.8954305 54.790861,44 57,44 C59.209139,44 61,44.8954305 61,46 C61,47.1045695 59.209139,48 57,48 Z M29,48 C26.790861,48 25,47.1045695 25,46 C25,44.8954305 26.790861,44 29,44 C31.209139,44 33,44.8954305 33,46 C33,47.1045695 31.209139,48 29,48 Z" id="Blush" fill="#FFC5BC"></path>
                </g>
            </g>
            <path d="M34,82 L86,82 C87.1045695,82 88,82.8954305 88,84 L88,110 C88,111.104569 87.1045695,112 86,112 L34,112 C32.8954305,112 32,111.104569 32,110 L32,84 C32,82.8954305 32.8954305,82 34,82 Z" id="Laptop" fill="#D6D8DC" mask="url(#mask-2)"></path>
            <g id="Logo" mask="url(#mask-2)">
                <g transform="translate(51.000000, 88.000000)">
                    <mask id="mask-4" fill="white">
                        <use xlink:href="#path-3"></use>
                    </mask>
                    <use id="Mask" stroke="none" fill-opacity="0" fill="#D8D8D8" fill-rule="evenodd" xlink:href="#path-3"></use>
                    <path d="M2.625,8.80875 C4.0575,8.23375 5.0775,8.6875 5.685,10.17 C4.3825,10.45 3.3625,9.99625 2.625,8.80875 Z M2.86875,12.46125 C4.51625,13.47875 6.0625,13.41375 7.5075,12.26625 C5.835,10.79625 4.2875,10.86125 2.865,12.46125 L2.86875,12.46125 Z M9.00375,12.375 C8.74727662,12.3710281 8.5004631,12.472737 8.32125,12.65625 C8.1350367,12.839825 8.0332114,13.0923517 8.04,13.35375 C8.03735262,13.6066758 8.13909659,13.8495047 8.32125,14.025 C8.5004631,14.208513 8.74727662,14.3102219 9.00375,14.30625 L9.06375,14.30625 C9.16987115,14.3057585 9.27467985,14.2827517 9.37125,14.23875 C9.73495938,14.0934029 9.97389714,13.7416747 9.975,13.35 C9.98144023,13.0893944 9.88120659,12.8374558 9.6975,12.6525 C9.51547234,12.4666928 9.26370602,12.3659863 9.00375,12.375 Z M9.00375,3.75 C8.30375,4.785 8.30375,5.785 9.00375,6.75 C9.98875,5.71 9.9875,4.71 9,3.75 L9.00375,3.75 Z M8.62875,11.6925 C9.15875,8.31 8.12,6.22125 5.5125,5.42625 C5.45,8.45375 6.4825,10.5425 8.61,11.6925 L8.62875,11.6925 Z M10.635,12.26625 C12.0775,13.41375 13.62375,13.47875 15.27375,12.46125 C13.83875,10.86625 12.28625,10.80125 10.61625,12.26625 L10.635,12.26625 Z M9.6825,11.6925 C11.81,10.54 12.83875,8.45125 12.76875,5.42625 C10.155,6.225 9.135,8.31 9.66375,11.6925 L9.6825,11.6925 Z M12.4575,10.17 C13.76,10.45 14.78,9.99625 15.5175,8.80875 C14.075,8.23375 13.05,8.6875 12.4425,10.17 L12.4575,10.17 Z" id="Logo" stroke="none" fill="#FFFFFF" fill-rule="nonzero" mask="url(#mask-4)"></path>
                </g>
            </g>
            <g id="Headset" mask="url(#mask-2)">
                <g transform="translate(24.000000, 14.000000)">
                    <path d="M4,18 C6.209139,18 8,19.790861 8,22 L8,38 C8,40.209139 6.209139,42 4,42 C1.790861,42 2.705415e-16,40.209139 0,38 L0,22 C-2.705415e-16,19.790861 1.790861,18 4,18 Z M68,18 C70.209139,18 72,19.790861 72,22 L72,38 C72,40.209139 70.209139,42 68,42 C65.790861,42 64,40.209139 64,38 L64,22 C64,19.790861 65.790861,18 68,18 Z" id="Earcups" stroke="none" fill="#445882" fill-rule="evenodd"></path>
                    <path d="M4,27 C4,11 20,-8.55357452e-14 36,-4.26325641e-14 C52,8.32667268e-17 68,11 68,27" id="Headban" stroke="#445882" stroke-width="4" fill="none" stroke-linecap="round" stroke-linejoin="round"></path>
                </g>
            </g>
        </g>
    </g>
</svg>