<svg width="96" height="56" fill-rule="evenodd"><path d="M26.255 40.582a9.99 9.99 0 0 1-.075 1.277h-8.217a3.27 3.27 0 0 0 3.508 2.435 7.51 7.51 0 0 0 4.098-1.33v3.122a9.28 9.28 0 0 1-4.591 1.073c-3.98 0-6.855-2.478-6.855-6.266-.035-1.694.62-3.33 1.817-4.53a6.23 6.23 0 0 1 4.523-1.832 5.59 5.59 0 0 1 5.793 6.051zm-3.444-1.073a2.36 2.36 0 0 0-2.382-2.092 2.5 2.5 0 0 0-2.467 2.038l4.85.054zm-13.946 0c-1.792-.44-3.1-.365-3.1-1.255 0-.57.6-.858 1.577-.858a10.18 10.18 0 0 1 4.549 1.298v-3.22c-1.453-.64-3.025-.965-4.613-.955-2.993 0-5.257 1.448-5.278 4.002 0 1.985 1.352 2.95 3.637 3.508 1.813.472 3.218.365 3.218 1.298 0 .665-.61.933-1.64.933a10.33 10.33 0 0 1-4.763-1.395v3.22c1.496.7 3.13 1.087 4.785 1.105 3.1 0 5.364-1.448 5.428-4.098C12.6 41 11.215 40.12 8.91 39.552l-.043-.043zM36.2 34.563a5.92 5.92 0 0 0-3.733 1.405h0v-1.073H28.7v12.07h3.733V38.8a4.29 4.29 0 0 1 2.532-1.008 1.6 1.6 0 0 1 1.277.515c.348.492.497 1.098.418 1.695v6.974h3.733v-7.5a4.86 4.86 0 0 0-1.073-3.583c-.82-.837-1.94-1.308-3.11-1.31h0zm7.22 12.402h3.733V34.842H43.42v12.123zm31.71 0h3.733V28.158H75.13v18.807zm15.126-12.123L88.98 37.76l-1.64 3.905-1.545-3.83-1.32-2.993h-3.916l4.913 10.73-3.143 6.76h3.808L94 34.842h-3.744zm-21.273 1.64h0v-1.64h-3.7v12.123h3.733v-7.36a4.01 4.01 0 0 1 3.218-1.427c.34 0 .678.04 1.008.118v-3.508a2.98 2.98 0 0 0-.783-.097c-1.388-.032-2.697.643-3.476 1.792h0zm-6.04 4.4c-.033 1.736-.766 3.385-2.032 4.573s-2.96 1.814-4.694 1.735a6.33 6.33 0 0 1-5.856-9.608 6.33 6.33 0 0 1 5.856-3.019c1.736-.078 3.43.55 4.698 1.74s2 2.842 2.03 4.58h0zm-3.733 0c-.047-1.648-1.414-2.95-3.063-2.918s-2.962 1.39-2.943 3.038 1.364 2.974 3.013 2.97c.81-.006 1.582-.336 2.145-.917s.87-1.364.848-2.173z" fill="#1a7473" fill-rule="nonzero"/><path d="M59.47 15.986h-6.017l4.675-4.675-2.034-2.05-6.724 6.724h-2.886V13.1l6.724-6.724-2.05-2.034-4.675 4.675V3h-2.886v6.017l-4.675-4.675-2.05 2.034 6.724 6.724v2.886H40.7l-6.724-6.724-2.034 2.05 4.675 4.675H30.6v2.886h6.017l-4.675 4.675 2.034 2.05 6.724-6.724h2.886v2.886l-6.724 6.724 2.05 2.034 4.675-4.675v6.017h2.886v-6.02l4.675 4.675 2.05-2.034-6.724-6.724V18.87h2.886l6.724 6.724 2.034-2.05-4.675-4.675h6.017zm-36.998 4.896H19.9l1.998-1.998-.87-.876-2.873 2.873h-1.233v-1.23l2.873-2.873-.876-.87-1.998 1.998v-2.57H15.7v2.57l-1.998-1.998-.876.87 2.873 2.873v1.233h-1.233L11.583 18l-.87.876 1.998 1.998h-2.57v1.233h2.57l-1.998 1.998.87.876 2.873-2.873h1.233v1.233l-2.873 2.873.876.87 1.998-1.998v2.57h1.233v-2.57l1.998 1.998.876-.87-2.873-2.873v-1.233h1.233l2.873 2.873.87-.876-1.998-1.998h2.57zM79.94 8.55h-2.57l1.998-1.998-.87-.876-2.873 2.873H74.4V7.316l2.873-2.873-.876-.87L74.4 5.57V3h-1.233v2.57L71.16 3.573l-.876.87 2.873 2.873V8.55h-1.233L69.05 5.676l-.87.876 2 1.998H67.6v1.233h2.57l-1.998 1.998.87.876 2.873-2.873h1.233v1.233L70.285 13.9l.876.87 1.998-1.998v2.57h1.233v-2.57L76.4 14.77l.876-.87-2.873-2.873V9.783h1.233l2.873 2.873.87-.876-1.998-1.998h2.57z" fill="#a2c4e7"/></svg>
