<svg viewBox="0 0 44 40">
  <defs>
    <path d="M45,4 C45.5522847,4 46,4.44771525 46,5 L46,36 C46,38.209139 44.209139,40 42,40 L38,40 L38,44 L34,44 L34,40 L14,40 L14,44 L10,44 L10,40 L6,40 C3.790861,40 2,38.209139 2,36 L2,28 L42,28 L42,8 L30,8 L30,4 L45,4 Z M27.913727,15.9886419 C27.913727,15.9886419 29.2868582,18.5914532 28.9581991,19.8180257 C28.685412,20.8360809 27.6023167,21.4266728 26.5333587,21.1402463 C25.4644008,20.8538199 24.8217087,19.8008047 25.0944957,18.7827495 C25.4231549,17.5561771 27.913727,15.9886419 27.913727,15.9886419 Z M33.3303446,11.2283632 C33.3303446,11.2283632 34.7034757,13.8311745 34.3748166,15.0577469 C34.1020296,16.0758021 33.0189342,16.666394 31.9499763,16.3799676 C30.8810184,16.0935412 30.2383263,15.0405259 30.5111133,14.0224708 C30.8397724,12.7958983 33.3303446,11.2283632 33.3303446,11.2283632 Z M25.602938,9.1578108 C25.602938,9.1578108 26.9760691,11.7606221 26.64741,12.9871946 C26.374623,14.0052497 25.2915276,14.5958416 24.2225697,14.3094152 C23.1536118,14.0229888 22.5109197,12.9699736 22.7837067,11.9519184 C23.1123658,10.7253459 25.602938,9.1578108 25.602938,9.1578108 Z" id="path-2"></path>
  </defs>
  <g id="Hub-2" stroke="none" stroke-width="1" fill="none" fill-rule="evenodd">
    <g id="Tablet2" transform="translate(-317.000000, -2052.000000)">
      <g id="Group-32" transform="translate(44.000000, 2024.000000)">
        <g id="Group-92">
          <g id="icon-/-bath" transform="translate(271.000000, 24.000000)">
            <mask id="mask-22" fill="white">
              <use xlink:href="#path-2"></use>
            </mask>
            <use id="Combined-Shape2" fill="#2A333F" fill-rule="nonzero" xlink:href="#path-2"></use>
            <g id="color-/-teal-/-base" mask="url(#mask-22)" fill="currentColor" fill-rule="nonzero">
              <rect id="Rectangle" x="0" y="0" width="48" height="48"></rect>
            </g>
          </g>
        </g>
      </g>
    </g>
  </g>
</svg>
