<svg viewBox="0 0 24 24"><path fill="currentcolor" d="M19.197852,9.955 L19.197852,5.655 C19.197852,5.105 18.747852,4.655 18.197852,4.655 L17.197852,4.655 C16.647852,4.655 16.197852,5.105 16.197852,5.655 L16.197852,7.255 L12.867852,4.255 C12.487852,3.915 11.907852,3.915 11.527852,4.255 L3.16785197,11.785 C2.82785197,12.085 3.03785197,12.655 3.49785197,12.655 L5.19785197,12.655 L5.19785197,19.655 C5.19785197,20.205 5.64785197,20.655 6.19785197,20.655 L9.19785197,20.655 C9.74785197,20.655 10.197852,20.205 10.197852,19.655 L10.197852,14.655 L14.197852,14.655 L14.197852,19.655 C14.197852,20.205 14.647852,20.655 15.197852,20.655 L18.197852,20.655 C18.747852,20.655 19.197852,20.205 19.197852,19.655 L19.197852,12.655 L20.897852,12.655 C21.357852,12.655 21.577852,12.085 21.227852,11.785 L19.197852,9.955 Z M10.197852,10.655 C10.197852,9.555 11.097852,8.655 12.197852,8.655 C13.297852,8.655 14.197852,9.555 14.197852,10.655 L10.197852,10.655 Z" ></path></svg>
