<svg viewBox="0 0 24 24">
  <path fill="currentColor" d="M13,11 L13,9 C13,7.8954305 12.1045695,7 11,7 L5,7 C3.8954305,7 3,7.8954305 3,9 L3,19 C3,20.1045695 3.8954305,21 5,21 L5,21 L5,21 L7,21 L7,17 L9,17 L9,21 L19,21 C20.1045695,21 21,20.1045695 21,19 L21,13 C21,11.8954305 20.1045695,11 19,11 L13,11 L13,11 Z M19,19 L17,19 L17,17 L19,17 L19,19 Z M15,19 L13,19 L13,17 L15,17 L15,19 Z M19,15 L17,15 L17,13 L19,13 L19,15 Z M15,15 L13,15 L13,13 L15,13 L15,15 Z M7,15 L5,15 L5,13 L7,13 L7,15 Z M7,11 L5,11 L5,9 L7,9 L7,11 Z M11,15 L9,15 L9,13 L11,13 L11,15 Z M11,11 L9,11 L9,9 L11,9 L11,11 Z" />
</svg>
