<svg viewBox="0 0 16 16"><defs><path id="dollar-regular-a" d="M8.32 7.267c-1.513-.394-2-.8-2-1.434 0-.726.673-1.233 1.8-1.233 1.187 0 1.627.567 1.667 1.4h1.473c-.047-1.147-.747-2.2-2.14-2.54V2h-2v1.44c-1.293.28-2.333 1.12-2.333 2.407 0 1.54 1.273 2.306 3.133 2.753 1.667.4 2 .987 2 1.607 0 .46-.327 1.193-1.8 1.193-1.373 0-1.913-.613-1.987-1.4H4.667c.08 1.46 1.173 2.28 2.453 2.553V14h2v-1.433c1.3-.247 2.333-1 2.333-2.367 0-1.893-1.62-2.54-3.133-2.933z"/></defs><g fill="none" fill-rule="evenodd"><mask id="dollar-regular-b" fill="#fff"><use xlink:href="#dollar-regular-a"/></mask><use fill="#000" fill-rule="nonzero" xlink:href="#dollar-regular-a"/><g fill="currentColor" fill-rule="nonzero" mask="url(#dollar-regular-b)"><path d="M0 0h16v16H0z"/></g></g></svg>
