<svg xmlns="http://www.w3.org/2000/svg" viewBox="0 0 36 36"><path d="M25.86 16.511h-2.11v-2.107h-1.697v2.107h-2.109v1.697h2.109v2.108h1.697v-2.108h2.11V16.51zm-7.884 2.554c-.49-.346-1.425-1.188-1.425-1.684 0-.582.165-.867 1.04-1.55.896-.7 1.53-1.683 1.53-2.828 0-1.362-.608-2.69-1.746-3.128h1.717L20.305 9h-5.418c-2.429 0-4.714 1.84-4.714 3.97 0 2.176 1.655 3.934 4.126 3.934.172 0 .339-.004.502-.015-.16.306-.276.652-.276 1.01 0 .606.327 1.097.738 1.497-.31 0-.612.01-.938.01-3.01 0-5.325 1.914-5.325 3.9 0 1.956 2.539 3.18 5.546 3.18 3.43 0 5.325-1.945 5.325-3.902 0-1.569-.463-2.507-1.895-3.519zm-2.894-2.713c-1.395-.042-2.723-1.56-2.962-3.393-.242-1.832.695-3.234 2.09-3.193 1.395.042 2.722 1.511 2.963 3.343.24 1.833-.695 3.285-2.091 3.243zm-.546 9.268c-2.08 0-3.582-1.315-3.582-2.896 0-1.548 1.863-2.839 3.943-2.816.485.006.938.083 1.348.216 1.129.785 1.938 1.227 2.166 2.123.044.18.067.367.067.558 0 1.581-1.018 2.815-3.942 2.815z" fill="#FEFEFE" fill-rule="evenodd"/></svg>