<svg viewBox="0 0 24 24" xmlns="http://www.w3.org/2000/svg" xmlns:xlink="http://www.w3.org/1999/xlink"><defs><path d="M23.182 9.818H12v4.637h6.436c-.6 2.945-3.109 4.636-6.436 4.636A7.077 7.077 0 0 1 4.91 12 7.077 7.077 0 0 1 12 4.91c1.69 0 3.218.6 4.418 1.58L19.91 3C17.782 1.145 15.055 0 12 0 5.345 0 0 5.345 0 12s5.345 12 12 12c6 0 11.455-4.364 11.455-12 0-.71-.11-1.473-.273-2.182z" id="google-regular-a"/><path d="M23.182 9.818H12v4.637h6.436c-.6 2.945-3.109 4.636-6.436 4.636A7.077 7.077 0 0 1 4.91 12 7.077 7.077 0 0 1 12 4.91c1.69 0 3.218.6 4.418 1.58L19.91 3C17.782 1.145 15.055 0 12 0 5.345 0 0 5.345 0 12s5.345 12 12 12c6 0 11.455-4.364 11.455-12 0-.71-.11-1.473-.273-2.182z" id="google-regular-c"/><path d="M23.182 9.818H12v4.637h6.436c-.6 2.945-3.109 4.636-6.436 4.636A7.077 7.077 0 0 1 4.91 12 7.077 7.077 0 0 1 12 4.91c1.69 0 3.218.6 4.418 1.58L19.91 3C17.782 1.145 15.055 0 12 0 5.345 0 0 5.345 0 12s5.345 12 12 12c6 0 11.455-4.364 11.455-12 0-.71-.11-1.473-.273-2.182z" id="google-regular-e"/><path d="M23.182 9.818H12v4.637h6.436c-.6 2.945-3.109 4.636-6.436 4.636A7.077 7.077 0 0 1 4.91 12 7.077 7.077 0 0 1 12 4.91c1.69 0 3.218.6 4.418 1.58L19.91 3C17.782 1.145 15.055 0 12 0 5.345 0 0 5.345 0 12s5.345 12 12 12c6 0 11.455-4.364 11.455-12 0-.71-.11-1.473-.273-2.182z" id="google-regular-g"/></defs><g fill="none" fill-rule="evenodd"><path d="M0 0h24v24H0z"/><mask id="google-regular-b" fill="#fff"><use xlink:href="#google-regular-a"/></mask><path fill="#FBBC05" fill-rule="nonzero" mask="url(#google-regular-b)" d="M-1.09 19.09V4.91L8.181 12z"/><mask id="google-regular-d" fill="#fff"><use xlink:href="#google-regular-c"/></mask><path fill="#EA4335" fill-rule="nonzero" mask="url(#google-regular-d)" d="M-1.09 4.91L8.181 12 12 8.673l13.09-2.128V-1.09H-1.09z"/><mask id="google-regular-f" fill="#fff"><use xlink:href="#google-regular-e"/></mask><path fill="#34A853" fill-rule="nonzero" mask="url(#google-regular-f)" d="M-1.09 19.09L15.272 6.546l4.309.546L25.09-1.09v26.182H-1.091z"/><mask id="google-regular-h" fill="#fff"><use xlink:href="#google-regular-g"/></mask><path fill="#4285F4" fill-rule="nonzero" mask="url(#google-regular-h)" d="M25.09 25.09L8.183 12 6 10.364l19.09-5.455z"/></g></svg>