<svg viewBox="0 0 16 16"><defs><path d="M4.645 11.355a1.818 1.818 0 0 1 0-2.568L6.302 7.13l-.788-.787L3.857 8A2.93 2.93 0 0 0 8 12.143l1.657-1.657-.787-.788-1.657 1.657a1.818 1.818 0 0 1-2.568 0zm2.112-1.284l3.314-3.314-.828-.828-3.314 3.314.828.828zM8 3.857L6.343 5.514l.787.788 1.657-1.657a1.818 1.818 0 0 1 2.568 0c.709.708.709 1.86 0 2.568L9.698 8.87l.788.787L12.143 8A2.93 2.93 0 0 0 8 3.857z" id="link-small-a"/></defs><g fill="none" fill-rule="evenodd"><mask id="link-small-b" fill="#fff"><use xlink:href="#link-small-a"/></mask><use fill="#000" fill-rule="nonzero" xlink:href="#link-small-a"/><g mask="url(#link-small-b)" fill="#2A333F" fill-rule="nonzero"><path d="M0 0h16v16H0z"/></g></g></svg>
