<svg xmlns="http://www.w3.org/2000/svg" xmlns:xlink="http://www.w3.org/1999/xlink" viewBox="0 0 48 48"><defs><path id="quote-regular-a" d="M0 0h48v48H0z"/></defs><g fill="none" fill-rule="evenodd"><mask id="quote-regular-b" fill="#fff"><use xlink:href="#quote-regular-a"/></mask><path d="M20.405 40.544H6.01V25.032c-.068-2.23.253-4.325.963-6.285s1.707-3.684 2.99-5.17a16.491 16.491 0 0 1 4.614-3.701A16.404 16.404 0 0 1 20.406 8v6.691c-2.57.879-4.326 2.18-5.273 3.904-.946 1.723-1.419 3.835-1.419 6.336h6.691v15.613zm21.595 0H27.604V25.032c-.068-2.23.253-4.325.963-6.285s1.706-3.684 2.99-5.17a16.491 16.491 0 0 1 4.613-3.701A16.404 16.404 0 0 1 42 8v6.691c-2.568.879-4.326 2.18-5.272 3.904-.946 1.723-1.42 3.835-1.42 6.336H42v15.613z" fill="currentcolor" mask="url(#quote-regular-b)"/></g></svg>