<svg viewBox="0 0 34 40" xmlns:xlink="http://www.w3.org/1999/xlink">
  <defs>
    <path d="M11,44 L11,29 L8,29 L8,18 C8,15.8 9.8,14 12,14 L18,14 C20.2,14 22,15.8 22,18 L22,29 L19,29 L19,44 L11,44 Z M36,44 L36,32 L42,32 L36.92,16.74 C36.36,15.1 34.84,14 33.12,14 L32.88,14 C31.16,14 29.62,15.1 29.08,16.74 L24,32 L30,32 L30,44 L36,44 Z M15,12 C17.22,12 19,10.22 19,8 C19,5.78 17.22,4 15,4 C12.78,4 11,5.78 11,8 C11,10.22 12.78,12 15,12 Z M33,12 C35.22,12 37,10.22 37,8 C37,5.78 35.22,4 33,4 C30.78,4 29,5.78 29,8 C29,10.22 30.78,12 33,12 Z" id="path-6"></path>
  </defs>
  <g id="Hub-6" stroke="none" stroke-width="1" fill="none" fill-rule="evenodd">
    <g id="Tablet6" transform="translate(-323.000000, -2148.000000)">
      <g id="Group-36" transform="translate(44.000000, 2024.000000)">
        <g id="Group-136" transform="translate(0.000000, 96.000000)">
          <g id="icon-/-washroom" transform="translate(271.000000, 24.000000)">
            <mask id="mask-26" fill="white">
              <use xlink:href="#path-6"></use>
            </mask>
            <use id="Shape" fill="#000000" fill-rule="nonzero" xlink:href="#path-6"></use>
            <g id="color-/-teal-/-base" mask="url(#mask-26)" fill="currentColor" fill-rule="nonzero">
              <rect id="Rectangle" x="0" y="0" width="48" height="48"></rect>
            </g>
          </g>
        </g>
      </g>
    </g>
  </g>
</svg>
