<svg viewBox="0 0 24 24" fill="currentColor">
  <path d="M9,12.1 L9,14.17 C7.84,14.59 7,15.69 7,17 C7,18.66 8.34,20 10,20 C11.31,20 12.42,19.16 12.83,18 L12.83,18 L14.9,18 C14.44,20.28 12.42,22 10,22 C7.24,22 5,19.76 5,17 C5,14.58 6.72,12.56 9,12.1 L9,12.1 Z M11.75,7.03 C12.22,6.97 12.63,7.07 13,7.28 L13,7.28 L13.01,7.28 L13.01,7.28 L13.03,7.29 C13.26,7.4 13.47,7.55 13.64,7.74 L13.64,7.74 L14.93,9.17 C15.73,10.05 16.91,10.72 18.16,10.93 C18.64,11.01 19,11.41 19,11.9 C19,12.53 18.42,13 17.8,12.87 C16.4,12.59 15,11.88 14,11.05 L14,11.05 L14,14.5 L17,14.5 C18.1,14.5 19,15.4 19,16.5 L19,16.5 L19,21 C19,21.55 18.55,22 18,22 C17.45,22 17,21.55 17,21 L17,21 L17,17 L12,17 C10.9,17 10,16.1 10,15 L10,15 L10,9.1 C10,8.07 10.73,7.15 11.75,7.03 Z M12,2 C13.1045695,2 14,2.8954305 14,4 C14,5.1045695 13.1045695,6 12,6 C10.8954305,6 10,5.1045695 10,4 C10,2.8954305 10.8954305,2 12,2 Z"/>
</svg>
