<svg viewBox="0 0 24 24" fill="currentColor">
  <path
    d="M19.46,8 L20.25,6.25 L22,5.46 C22.39,5.28 22.39,4.73 22,4.55 L20.25,3.76 L19.46,2 C19.28,1.61 18.73,1.61 18.55,2 L17.76,3.75 L16,4.54 C15.61,4.72 15.61,5.27 16,5.45 L17.75,6.24 L18.54,8 C18.72,8.39 19.28,8.39 19.46,8 Z M11.5,9.5 L9.91,6 C9.56,5.22 8.44,5.22 8.09,6 L6.5,9.5 L3,11.09 C2.22,11.45 2.22,12.56 3,12.91 L6.5,14.5 L8.09,18 C8.45,18.78 9.56,18.78 9.91,18 L11.5,14.5 L15,12.91 C15.78,12.55 15.78,11.44 15,11.09 L11.5,9.5 Z M18.54,16 L17.75,17.75 L16,18.54 C15.61,18.72 15.61,19.27 16,19.45 L17.75,20.24 L18.54,22 C18.72,22.39 19.27,22.39 19.45,22 L20.24,20.25 L22,19.46 C22.39,19.28 22.39,18.73 22,18.55 L20.25,17.76 L19.46,16 C19.28,15.61 18.72,15.61 18.54,16 Z"
    id="path-1"
  ></path>
</svg>
