<svg viewBox="0 0 24 24" fill="currentColor">
  <path
    d="M20,10 L20,7 C20,5.9 19.1,5 18,5 L6,5 C4.9,5 4,5.9 4,7 L4,10 C2.9,10 2,10.9 2,12 L2,17 L3.33,17 L3.84,18.53 C3.94,18.81 4.2,19 4.5,19 L4.5,19 C4.8,19 5.06,18.81 5.16,18.53 L5.67,17 L18.34,17 L18.85,18.53 C18.94,18.81 19.2,19 19.5,19 L19.5,19 C19.8,19 20.06,18.81 20.16,18.53 L20.67,17 L22,17 L22,12 C22,10.9 21.1,10 20,10 Z M11,10 L6,10 L6,8 C6,7.45 6.45,7 7,7 L11,7 L11,10 Z M18,10 L13,10 L13,7 L17,7 C17.55,7 18,7.45 18,8 L18,10 Z"
  />
</svg>
