<svg viewBox="0 0 24 24" fill="currentColor">
  <rect
    x="2"
    y="2"
    rx="3"
    ry="3"
    width="20"
    height="20"
    fill="var(--hover-color)"
  />
  <path
    fill="currentColor"
    d="M19.2727273,2 L4.72727273,2 C3.22104159,2 2,3.22104159 2,4.72727273 L2,19.2727273 C2,20.7789584 3.22104159,22 4.72727273,22 L19.2727273,22 C20.7789584,22 22,20.7789584 22,19.2727273 L22,4.72727273 C22,3.22104159 20.7789584,2 19.2727273,2 Z M19.2727273,2.90909091 C20.2768814,2.90909091 21.0909091,3.72311864 21.0909091,4.72727273 L21.0909091,19.2727273 C21.0909091,20.2768814 20.2768814,21.0909091 19.2727273,21.0909091 L4.72727273,21.0909091 C3.72311864,21.0909091 2.90909091,20.2768814 2.90909091,19.2727273 L2.90909091,4.72727273 C2.90909091,3.72311864 3.72311864,2.90909091 4.72727273,2.90909091 L19.2727273,2.90909091 Z"
  />

  <path
    fill="var(--active-color)"
    d="M20,2 C21.1045695,2 22,2.8954305 22,4 L22,20 C22,21.1045695 21.1045695,22 20,22 L4,22 C2.8954305,22 2,21.1045695 2,20 L2,4 C2,2.8954305 2.8954305,2 4,2 L20,2 Z M16.9226732,7.70710678 L10.1035534,14.5178932 L7.91899351,12.3333333 C7.59399351,12.0083333 7.06899351,12.0083333 6.74399351,12.3333333 C6.41899351,12.6583333 6.41899351,13.1833333 6.74399351,13.5083333 L9.52022006,16.2845599 C9.84522006,16.6095599 10.3702201,16.6095599 10.6952201,16.2845599 L18.0976732,8.88210678 C18.4226732,8.55710678 18.4226732,8.03210678 18.0976732,7.70710678 C17.7726732,7.38210678 17.2476732,7.38210678 16.9226732,7.70710678 Z"
  />
</svg>
