<svg viewBox="0 0 24 24" fill="currentColor">
  <path d="M17,11 L17,5 C17,3.9 16.1,3 15,3 L9,3 C7.9,3 7,3.9 7,5 L7,7 L5,7 C3.9,7 3,7.9 3,9 L3,19 C3,20.1 3.9,21 5,21 L10,21 C10.55,21 11,20.55 11,20 L11,17 L13,17 L13,20 C13,20.55 13.45,21 14,21 L19,21 C20.1,21 21,20.1 21,19 L21,13 C21,11.9 20.1,11 19,11 L17,11 Z M7,19 L5,19 L5,17 L7,17 L7,19 Z M7,15 L5,15 L5,13 L7,13 L7,15 Z M7,11 L5,11 L5,9 L7,9 L7,11 Z M11,15 L9,15 L9,13 L11,13 L11,15 Z M11,11 L9,11 L9,9 L11,9 L11,11 Z M11,7 L9,7 L9,5 L11,5 L11,7 Z M15,15 L13,15 L13,13 L15,13 L15,15 Z M15,11 L13,11 L13,9 L15,9 L15,11 Z M15,7 L13,7 L13,5 L15,5 L15,7 Z M19,19 L17,19 L17,17 L19,17 L19,19 Z M19,15 L17,15 L17,13 L19,13 L19,15 Z"/>
</svg>
