<svg viewBox="0 0 24 24" fill="currentColor">
  <path
    d="M20,17 L20,10 L18,10 L18,15 L6,15 L6,10 L4,10 L4,17 L20,17 Z M18,5 L6,5 L6,8 C7.0543618,8 7.91816512,8.81587779 7.99451426,9.85073766 L8,10 L8,13 L16,13 L16,10 C16,8.8954305 16.8954305,8 18,8 L18,5 Z M22,19 L20,19 L20,21 L18,21 L18,19 L6,19 L6,21 L4,21 L4,19 L2,19 L2,10 C2,8.8954305 2.8954305,8 4,8 L4,5 C4,3.8954305 4.8954305,3 6,3 L18,3 C19.0543618,3 19.9181651,3.81587779 19.9945143,4.85073766 L20,5 L20,8 C21.0543618,8 21.9181651,8.81587779 21.9945143,9.85073766 L22,10 L22,19 Z"
  />
</svg>
