<svg viewBox="0 0 24 24" fill="currentColor">
  <path d="M12 12.75a10.61 10.61 0 0 1 4.24.9c1.08.48 1.76 1.56 1.76 2.73V17c0 .55-.45 1-1 1H7c-.55 0-1-.45-1-1v-.6c0-1.18.68-2.26 1.76-2.73a10.44 10.44 0 0 1 4.24-.91zM4 13c1.1 0 2-.9 2-2s-.9-2-2-2-2 .9-2 2 .9 2 2 2zm1.13 1.1C4.76 14.04 4.4 14 4 14a6.95 6.95 0 0 0-2.78.58A2.01 2.01 0 0 0 0 16.43V17c0 .55.45 1 1 1h3.5v-1.6a4.5 4.5 0 0 1 .63-2.29zM20 13c1.1 0 2-.9 2-2s-.9-2-2-2-2 .9-2 2 .9 2 2 2zm4 3.43a2.01 2.01 0 0 0-1.22-1.85A6.95 6.95 0 0 0 20 14c-.4 0-.76.04-1.13.1a4.5 4.5 0 0 1 .63 2.29V18H23c.55 0 1-.45 1-1v-.57zM12 6c1.66 0 3 1.34 3 3s-1.34 3-3 3-3-1.34-3-3 1.34-3 3-3z"/>
</svg>
