<svg viewBox="0 0 24 24" fill="currentColor">
  <path
    d="M19.66,3.99 C17.02,2.19 13.76,3.03 12,5.09 C10.24,3.03 6.98,2.18 4.34,3.99 C2.94,4.95 2.06,6.57 2,8.28 C1.86,12.16 5.3,15.27 10.55,20.04 L10.65,20.13 C11.41,20.82 12.58,20.82 13.34,20.12 L13.45,20.02 C18.7,15.26 22.13,12.15 22,8.27 C21.94,6.57 21.06,4.95 19.66,3.99 L19.66,3.99 Z M12.1,18.55 L12,18.65 L11.9,18.55 C7.14,14.24 4,11.39 4,8.5 C4,6.5 5.5,5 7.5,5 C9.04,5 10.54,5.99 11.07,7.36 L12.94,7.36 C13.46,5.99 14.96,5 16.5,5 C18.5,5 20,6.5 20,8.5 C20,11.39 16.86,14.24 12.1,18.55 Z"
  />
  <path
    fill="var(--active-color)"
    d="M13.35,20.13 C12.59,20.82 11.42,20.82 10.66,20.12 L10.55,20.02 C5.3,15.27 1.87,12.16 2,8.28 C2.06,6.58 2.93,4.95 4.34,3.99 C6.98,2.19 10.24,3.03 12,5.09 C13.76,3.03 17.02,2.18 19.66,3.99 C21.07,4.95 21.94,6.58 22,8.28 C22.14,12.16 18.7,15.27 13.45,20.04 L13.35,20.13 Z"
  />
</svg>
