<svg viewBox="0 0 24 24" fill="currentColor">
  <path
    d="M13.4 0c2.01 0 2.48.02 3.54.07a8.8 8.8 0 012.91.56c.8.3 1.46.72 2.13 1.38a5.88 5.88 0 011.38 2.13c.3.76.5 1.63.56 2.91.05 1.15.07 1.6.07 4.05v1.8c0 2.44-.02 2.9-.07 4.04a8.8 8.8 0 01-.56 2.91c-.3.8-.71 1.46-1.38 2.13a5.88 5.88 0 01-2.13 1.38c-.76.3-1.63.5-2.9.56-1.16.05-1.6.07-4.06.07H11.1c-2.45 0-2.9-.02-4.05-.07a8.8 8.8 0 01-2.91-.56A5.88 5.88 0 012 21.98a5.88 5.88 0 01-1.38-2.13 8.8 8.8 0 01-.56-2.9A63.6 63.6 0 010 13.4V10.6c0-2.01.02-2.47.07-3.54a8.8 8.8 0 01.56-2.91c.3-.8.72-1.46 1.38-2.13A5.88 5.88 0 014.14.63 8.8 8.8 0 017.05.07 63.6 63.6 0 0110.59 0zm-.8 2.16h-1.98c-1.98 0-2.42.02-3.47.07-1.17.05-1.8.25-2.23.41-.56.22-.96.48-1.38.9-.42.42-.68.82-.9 1.38a6.64 6.64 0 00-.4 2.23 61.9 61.9 0 00-.08 3.46v2.77c0 1.97.02 2.41.07 3.46.05 1.17.25 1.8.41 2.23.22.56.48.96.9 1.38.42.42.82.68 1.38.9.42.16 1.06.36 2.23.41 1.1.05 1.53.07 3.7.07h2.29c2.18 0 2.6-.02 3.7-.07a6.64 6.64 0 002.23-.41c.56-.22.96-.48 1.38-.9.42-.42.68-.82.9-1.38.16-.42.36-1.06.41-2.23.05-1.1.07-1.52.07-3.7v-.54V11.69 10.86c0-2.18-.02-2.61-.07-3.71a6.64 6.64 0 00-.41-2.23 3.72 3.72 0 00-.9-1.38 3.72 3.72 0 00-1.38-.9 6.64 6.64 0 00-2.23-.4 61.9 61.9 0 00-3.46-.08h-.78zM12 5.84a6.16 6.16 0 110 12.32 6.16 6.16 0 010-12.32zM12 8a4 4 0 100 8 4 4 0 000-8zm6.4-3.85a1.44 1.44 0 110 2.88 1.44 1.44 0 010-2.88z"
  />
</svg>
