<svg viewBox="0 0 24 24" fill="currentColor">
  <path fill-rule="evenodd" d="M1,11.6257619 C3.44420573,10.6457243 5.18515625,11.4190241 6.22141927,13.947092 C3.99921875,14.4249497 2.25826823,13.6509346 1,11.6257619 Z M1.41536458,17.8543661 C4.22695313,19.5891043 6.86523438,19.4782241 9.33164063,17.5217256 C6.47779948,15.0151184 3.83665365,15.1259986 1.40963542,17.8543661 L1.41608073,17.8543661 L1.41536458,17.8543661 Z M11.8854167,17.7070028 C11.4471354,17.6998492 11.0260417,17.8736807 10.7202474,18.1862913 C10.4024376,18.4994558 10.228724,18.9301529 10.2404297,19.3759282 C10.2358422,19.8071573 10.409416,20.2212046 10.7202474,20.5204977 C11.0257977,20.8335688 11.4470481,21.0069553 11.8847005,20.9997862 L11.9871094,20.9997862 C12.1682943,20.9997862 12.3473307,20.9604416 12.5120443,20.8853292 C13.1327613,20.6372309 13.5403268,20.0373153 13.541862,19.36949 C13.5529625,18.9254252 13.3822635,18.4960481 13.0692057,18.1805684 C12.7585282,17.8634681 12.3286117,17.6915873 11.8847005,17.7070028 L11.8854167,17.7070028 Z M11.8854167,3 C10.6901693,4.76478311 10.6901693,6.46947631 11.8854167,8.11551033 C13.5654948,6.34214296 13.5633464,4.63673439 11.8782552,3 L11.8854167,3 Z M11.2451823,16.5431187 C12.1489583,10.7759191 10.3764974,7.21416185 5.92708333,5.85856234 C5.8203776,11.0205708 7.5828125,14.582328 11.2122396,16.5431187 L11.2451823,16.5431187 Z M14.6683594,17.5217256 C17.1297526,19.4782241 19.76875,19.5891043 22.5839193,17.8543661 C20.1347005,15.1345828 17.4863932,15.0237027 14.6361328,17.5217256 L14.6683594,17.5217256 L14.6683594,17.5217256 Z M13.0427083,16.5431187 C16.6735677,14.5780359 18.4288411,11.0162787 18.3092448,5.85856234 C13.8490885,7.22060005 12.1088542,10.7759191 13.0111979,16.5431187 L13.0427083,16.5431187 Z M17.7785807,13.947092 C20.0007813,14.4249497 21.7417318,13.6509346 23,11.6257619 C20.5386068,10.6457243 18.7890625,11.4190241 17.7527995,13.947092 L17.7785807,13.947092 Z"/>
</svg>
