<svg viewBox="0 0 24 24" fill="currentColor">
  <path
    d="M17,6.01066667 L7,6 C5.89,6 5,6.94933333 5,8.13333333 L5,19.8666667 C5,21.0506667 5.89,22 7,22 L17,22 C18.11,22 19,21.0506667 19,19.8666667 L19,8.13333333 C19,6.94933333 18.11,6.01066667 17,6.01066667 Z M12,10 C12.55,10 13,10.45 13,11 L13,13 L15,13 C15.55,13 16,13.45 16,14 C16,14.55 15.55,15 15,15 L13,15 L13,17 C13,17.55 12.55,18 12,18 C11.45,18 11,17.55 11,17 L11,15 L9,15 C8.45,15 8,14.55 8,14 C8,13.45 8.45,13 9,13 L11,13 L11,11 C11,10.45 11.45,10 12,10 Z M7.5,5 C7.22385763,5 7,4.77614237 7,4.5 L7,2.5 C7,2.22385763 7.22385763,2 7.5,2 L16.5,2 C16.7761424,2 17,2.22385763 17,2.5 L17,4.5 C17,4.77614237 16.7761424,5 16.5,5 L16,5 L16,6 L8,6 L8,5 L7.5,5 Z"
  />
</svg>
