<svg viewBox="0 0 48 48" xmlns="http://www.w3.org/2000/svg">
  <path fill="currentColor" d="M37.288 40.058c3.09 0 5.648-.91 7.673-2.73C46.987 35.51 48 33.089 48 30.068c0-5.15-2.712-8.378-8.137-9.682h-4.327c.344-2.679 1.511-4.636 3.503-5.872 1.991-1.236 4.978-2.128 8.961-2.678V7.2c-7.279.206-12.858 1.957-16.738 5.253-3.88 3.296-5.82 7.932-5.82 13.906 0 4.12 1.082 7.433 3.245 9.94 2.163 2.506 5.03 3.76 8.6 3.76zm-25.443 0c3.09 0 5.649-.91 7.674-2.73 2.026-1.819 3.039-4.24 3.039-7.261 0-5.15-2.713-8.378-8.137-9.682h-4.327c.344-2.679 1.511-4.636 3.503-5.872 1.991-1.236 4.978-2.128 8.96-2.678V7.2C15.28 7.406 9.7 9.157 5.82 12.453 1.94 15.75 0 20.385 0 26.36c0 4.12 1.082 7.433 3.245 9.94 2.163 2.506 5.03 3.76 8.6 3.76z"/>
</svg>
