<svg viewBox="0 0 24 24" fill="currentColor">
  <path
    d="M15.49,9.63 C15.33,7.21 14.46,4.84 12.85,2.87 C12.44,2.37 11.69,2.37 11.28,2.87 C9.63,4.85 8.71,7.22 8.51,9.63 C9.79,10.31 10.97,11.19 12,12.26 C13.03,11.2 14.21,10.32 15.49,9.63 L15.49,9.63 Z M8.99,12.28 C8.85,12.18 8.69,12.09 8.54,11.99 C8.69,12.1 8.85,12.18 8.99,12.28 Z M15.41,12.03 C15.28,12.12 15.14,12.19 15.01,12.29 C15.14,12.19 15.28,12.12 15.41,12.03 Z M12,15.45 C10.05,12.48 6.86,10.42 3.17,10.06 C2.53,10 2,10.53 2.06,11.17 C2.51,15.97 5.71,19.95 10.04,21.5 C10.67,21.73 11.33,21.9 12.01,22.01 C12.69,21.89 13.34,21.72 13.98,21.5 C18.31,19.95 21.51,15.98 21.96,11.17 C22.02,10.53 21.48,10 20.85,10.06 C17.14,10.42 13.95,12.48 12,15.45 Z"
  />
</svg>
