<svg viewBox="0 0 24 24" fill="currentColor">
  <path
    d="M19.65,9.04 L14.81,8.62 L12.92,4.17 C12.58,3.36 11.42,3.36 11.08,4.17 L9.19,8.63 L4.36,9.04 C3.48,9.11 3.12,10.21 3.79,10.79 L7.46,13.97 L6.36,18.69 C6.16,19.55 7.09,20.23 7.85,19.77 L12,17.27 L16.15,19.78 C16.91,20.24 17.84,19.56 17.64,18.7 L16.54,13.97 L20.21,10.79 C20.88,10.21 20.53,9.11 19.65,9.04 L19.65,9.04 Z M12,15.4 L12,6.1 L13.71,10.14 L18.09,10.52 L14.77,13.4 L15.77,17.68 L12,15.4 Z"
  />
  <path
    fill="var(--active-color)"
    d="M12.0030426,17.269381 L16.1545182,19.7815582 C16.9147885,20.2419572 17.8451192,19.5613673 17.645048,18.7006214 L16.5446569,13.9765273 L20.2159619,10.793769 C20.8862001,10.2132659 20.5260721,9.11231182 19.6457592,9.04225111 L14.8140418,8.63189548 L12.9233697,4.16802694 C12.5832488,3.35732435 11.4228364,3.35732435 11.0827155,4.16802694 L9.19204346,8.6218868 L4.36032604,9.03224243 C3.48001314,9.10230315 3.11988514,10.2032573 3.79012337,10.7837604 L7.46142832,13.9665186 L6.36103719,18.6906127 C6.16096607,19.5513587 7.09129676,20.2319485 7.85156699,19.7715495 L12.0030426,17.269381 Z"
  />
</svg>
