<?xml version="1.0" standalone="no"?>
<!DOCTYPE svg PUBLIC "-//W3C//DTD SVG 1.1//EN" "http://www.w3.org/Graphics/SVG/1.1/DTD/svg11.dtd" >
<svg xmlns="http://www.w3.org/2000/svg">
<metadata></metadata>
<defs>
<font id="azo_sansbold" horiz-adv-x="561" >
<font-face units-per-em="1000" ascent="772" descent="-228" />
<missing-glyph horiz-adv-x="237" />
<glyph unicode="&#xfb01;" horiz-adv-x="654" d="M90 0v366h-70v126h70v73q0 115 52 164q47 46 139 46q46 0 84 -14v-123q-34 9 -66 9q-33 0 -45 -18.5t-12 -53.5v-83h114v-126h-114v-366h-152zM427 648q0 36 26 61.5t62 25.5t62 -25.5t26 -61.5t-26 -61.5t-62 -25.5t-62 25.5t-26 61.5zM439 0v492h152v-492h-152z" />
<glyph unicode="&#xfb02;" horiz-adv-x="654" d="M90 0v366h-70v126h70v73q0 115 52 164q47 46 139 46q46 0 84 -14v-123q-34 9 -66 9q-33 0 -45 -18.5t-12 -53.5v-83h114v-126h-114v-366h-152zM439 0v764h152v-764h-152z" />
<glyph horiz-adv-x="0" />
<glyph horiz-adv-x="333" />
<glyph unicode="&#xd;" horiz-adv-x="357" />
<glyph unicode=" "  horiz-adv-x="237" />
<glyph unicode="&#x09;" horiz-adv-x="237" />
<glyph unicode="&#xa0;" horiz-adv-x="237" />
<glyph unicode="!" horiz-adv-x="292" d="M58 76q0 36 26 61.5t62 25.5t62 -25.5t26 -61.5t-26 -61.5t-62 -25.5t-62 25.5t-26 61.5zM88 241l-25 483h166l-25 -483h-116z" />
<glyph unicode="&#x22;" horiz-adv-x="374" d="M45 460l-15 282h128l-15 -282h-98zM231 460l-15 282h128l-15 -282h-98z" />
<glyph unicode="#" horiz-adv-x="634" d="M57 0l59 206h-107l27 93h107l36 126h-107l27 93h107l59 206h100l-59 -206h112l59 206h100l-59 -206h107l-27 -93h-107l-36 -126h107l-27 -93h-107l-59 -206h-100l59 206h-112l-59 -206h-100zM243 299h112l36 126h-112z" />
<glyph unicode="$" horiz-adv-x="597" d="M243 -76v126q-95 13 -155 44v147q50 -32 109 -49t103 -17q84 0 84 57q0 15 -6 25.5t-22 18t-29 11.5t-42 11t-46 12q-81 24 -125 64t-44 112q1 74 47.5 123t125.5 63v128h117v-126q84 -10 149 -43v-144q-50 30 -106 46t-97 16q-79 0 -79 -52q0 -14 6 -24t21 -17t28 -11 t40.5 -10.5t44.5 -11.5q86 -25 130 -65t44 -115q0 -77 -49 -127t-132 -64v-128h-117z" />
<glyph unicode="%" horiz-adv-x="954" d="M173 0l480 724h128l-480 -724h-128zM227 466q32 0 48.5 23t16.5 59t-16.5 59t-48.5 23t-48.5 -23t-16.5 -59t16.5 -59t48.5 -23zM227 361q-82 0 -133 52.5t-51 134.5t51 134.5t133 52.5t133 -52.5t51 -134.5t-51 -134.5t-133 -52.5zM727 258q-32 0 -48.5 -23t-16.5 -59 t16.5 -59t48.5 -23t48.5 23t16.5 59t-16.5 59t-48.5 23zM727 363q82 0 133 -52.5t51 -134.5t-51 -134.5t-133 -52.5t-133 52.5t-51 134.5t51 134.5t133 52.5z" />
<glyph unicode="&#x26;" horiz-adv-x="712" d="M539 434h154l-114 -268l162 -164l-1 -2h-187l-54 54q-72 -65 -199 -65q-128 0 -196.5 63.5t-68.5 149.5q0 120 134 187l-9 9q-72 74 -72 154q0 78 60.5 131t153.5 53t153 -53.5t60 -130.5q0 -100 -103 -167l-29 -19l91 -94zM258 298l-13 -6q-57 -27 -57 -84 q0 -35 29 -62.5t87 -27.5q64 0 95 38zM294 456l27 20q44 33 44 69q0 27 -18 44t-46 17q-29 0 -46 -17t-17 -43q0 -32 36 -69z" />
<glyph unicode="'" horiz-adv-x="188" d="M45 460l-15 282h128l-15 -282h-98z" />
<glyph unicode="(" horiz-adv-x="373" d="M356 -213h-141q-147 185 -147 478t147 478h141q-68 -88 -109.5 -211t-41.5 -267t41.5 -267t109.5 -211z" />
<glyph unicode=")" horiz-adv-x="373" d="M17 -213q68 88 109.5 211t41.5 267t-41.5 267t-109.5 211h141q147 -185 147 -478t-147 -478h-141z" />
<glyph unicode="*" horiz-adv-x="450" d="M196 584l-18 142h93l-18 -142h-57zM282 521l-17 55l131 60l28 -88zM167 521l-142 27l28 88l131 -60zM301 348l-69 126l47 33l97 -104zM148 348l-75 55l97 104l47 -33z" />
<glyph unicode="+" horiz-adv-x="600" d="M241 116v191h-187v110h187v191h118v-191h187v-110h-187v-191h-118z" />
<glyph unicode="," horiz-adv-x="306" d="M42 -147l56 300h139l-90 -300h-105z" />
<glyph unicode="-" horiz-adv-x="339" d="M46 215v124h247v-124h-247z" />
<glyph unicode="." horiz-adv-x="306" d="M61 79q0 37 27 63.5t65 26.5t65 -26.5t27 -63.5t-27 -63.5t-65 -26.5t-65 26.5t-27 63.5z" />
<glyph unicode="/" horiz-adv-x="466" d="M6 -38l338 800h116l-338 -800h-116z" />
<glyph unicode="0" horiz-adv-x="628" d="M314 -11q-128 0 -200 98q-66 91 -66 275t66 275q72 98 200 98t200 -98q66 -91 66 -275t-66 -275q-72 -98 -200 -98zM314 131q45 0 73 39q34 48 34 193q0 143 -34 191q-27 39 -73 39t-73 -39q-34 -49 -34 -193q0 -143 34 -191q28 -39 73 -39z" />
<glyph unicode="1" horiz-adv-x="517" d="M212 0v533l-147 -53v144l306 111v-735h-159z" />
<glyph unicode="2" horiz-adv-x="582" d="M17 2l221 292q60 81 84 123t24 81q0 44 -29.5 69.5t-77.5 25.5q-87 0 -170 -78v153q79 67 187 67q106 0 178.5 -61.5t72.5 -161.5q0 -59 -28 -118.5t-86 -137.5l-87 -115l1 -2h226v-139h-515z" />
<glyph unicode="3" horiz-adv-x="570" d="M56 40v154q105 -65 192 -65q53 0 85 24.5t32 66.5q0 43 -34 67.5t-97 24.5h-72v120h72q54 0 82.5 22t28.5 59q0 38 -29.5 60t-78.5 22q-79 0 -156 -46v142q70 44 167 44q111 0 183.5 -56t72.5 -140q0 -50 -28 -91t-75 -60v-2q58 -23 90.5 -68t32.5 -107q0 -98 -77.5 -160 t-191.5 -62q-117 0 -199 51z" />
<glyph unicode="4" horiz-adv-x="655" d="M1 155l-1 2l369 567h141v-448h110v-121h-110v-155h-155v155h-354zM220 276h135v105q0 41 2 109l-2 1q-26 -43 -65 -104l-71 -109z" />
<glyph unicode="5" horiz-adv-x="567" d="M490 585h-240l-9 -125q128 -5 206 -64t78 -166q0 -109 -78.5 -175t-201.5 -66q-118 0 -199 48l11 144q94 -52 180 -52q59 0 94 26.5t35 72.5q0 58 -56.5 84t-141.5 26q-50 0 -94 -6l30 392h396z" />
<glyph unicode="6" horiz-adv-x="626" d="M289 724h177l-195 -289l2 -1q35 21 87 21q92 0 156.5 -64t64.5 -161q0 -104 -77 -172.5t-193 -68.5t-192.5 68.5t-76.5 184.5q0 59 21 114t69 128zM205 230q0 -44 30.5 -76t78.5 -32q46 0 78 29.5t32 75.5q0 45 -31 75.5t-78 30.5q-46 0 -78 -29t-32 -74z" />
<glyph unicode="7" horiz-adv-x="568" d="M92 0l237 585h-288v139h510l1 -2l-293 -722h-167z" />
<glyph unicode="8" horiz-adv-x="644" d="M51 208q0 60 31 106.5t89 68.5v2q-47 18 -73 58t-26 90q0 87 72 144.5t178 57.5t178 -57.5t72 -144.5q0 -50 -26 -90t-73 -58v-2q58 -22 89 -68.5t31 -106.5q0 -97 -76.5 -158t-194.5 -61t-194.5 61t-76.5 158zM322 432q40 0 68 25t28 62t-27.5 61.5t-68.5 24.5 t-68.5 -24.5t-27.5 -61.5t28 -62t68 -25zM210 219q0 -43 31.5 -71t80.5 -28t80.5 28t31.5 71t-32.5 72t-79.5 29t-79.5 -29t-32.5 -72z" />
<glyph unicode="9" horiz-adv-x="614" d="M334 0h-177l176 284l-1 1q-27 -15 -74 -15q-88 0 -155 62t-67 160q0 105 77 174t193 69q114 0 191 -67t77 -179q0 -100 -87 -242zM302 394q47 0 78 29.5t31 72.5t-31 75t-78 32q-45 0 -77.5 -29.5t-32.5 -75.5q0 -44 30.5 -74t79.5 -30z" />
<glyph unicode=":" horiz-adv-x="306" d="M153 331q-35 0 -60.5 25.5t-25.5 60.5t25.5 60.5t60.5 25.5t60.5 -25.5t25.5 -60.5t-25.5 -60.5t-60.5 -25.5zM67 75q0 35 25.5 60.5t60.5 25.5t60.5 -25.5t25.5 -60.5t-25.5 -60.5t-60.5 -25.5t-60.5 25.5t-25.5 60.5z" />
<glyph unicode=";" horiz-adv-x="306" d="M42 -147l56 300h139l-90 -300h-105zM153 331q-35 0 -60.5 25.5t-25.5 60.5t25.5 60.5t60.5 25.5t60.5 -25.5t25.5 -60.5t-25.5 -60.5t-60.5 -25.5z" />
<glyph unicode="&#x3c;" horiz-adv-x="716" d="M82 322v80l552 212v-116l-351 -135v-2l351 -135v-116z" />
<glyph unicode="=" horiz-adv-x="600" d="M54 417v109h492v-109h-492zM54 198v109h492v-109h-492z" />
<glyph unicode="&#x3e;" horiz-adv-x="716" d="M82 110v116l351 135v2l-351 135v116l552 -212v-80z" />
<glyph unicode="?" horiz-adv-x="514" d="M111 76q0 36 26 61.5t62 25.5t62 -25.5t26 -61.5t-26 -61.5t-62 -25.5t-62 25.5t-26 61.5zM123 223l-14 182q10 -1 24 -1q177 0 177 98q0 39 -28.5 64t-77.5 25q-65 0 -133 -43v148q68 39 150 39q106 0 177.5 -63t71.5 -158q0 -86 -59 -144.5t-145 -71.5l-2 -75h-141z " />
<glyph unicode="@" horiz-adv-x="808" d="M457 228l8 100q-25 16 -55 16q-36 0 -60 -26q-31 -32 -31 -86q0 -39 19 -63t53 -24q39 0 66 27q-2 10 -2 21q0 13 2 35zM589 428l-16 -198q-1 -13 -1 -24q0 -31 14.5 -50.5t41.5 -19.5q31 0 51.5 28t20.5 86q0 116 -79.5 202.5t-212.5 86.5q-135 0 -216 -86.5t-81 -208.5 q0 -120 80 -205.5t216 -85.5q108 0 198 62l44 -68q-107 -74 -244 -74q-165 0 -273.5 105.5t-108.5 266.5t108.5 267.5t272.5 106.5q165 0 274 -106t109 -259q0 -98 -47.5 -149.5t-127.5 -51.5q-78 0 -123 50h-2q-53 -50 -122 -50q-72 0 -117 48t-45 125q0 98 66 159 q57 54 138 54q53 0 99 -24z" />
<glyph unicode="A" horiz-adv-x="748" d="M3 0l294 724h154l294 -724h-170l-58 152h-292l-59 -152h-163zM303 354l-29 -77h195l-30 81q-39 106 -66 184h-2q-32 -91 -68 -188z" />
<glyph unicode="B" horiz-adv-x="639" d="M66 0v724h211q146 0 220 -41q82 -45 82 -140q0 -107 -109 -147v-2q138 -40 138 -176q0 -138 -138 -190q-74 -28 -189 -28h-215zM225 425h84q111 0 111 82q0 44 -34 63q-32 18 -112 18h-49v-163zM225 136h59q86 0 120 14q45 19 45 72q0 91 -129 91h-95v-177z" />
<glyph unicode="C" horiz-adv-x="676" d="M641 199v-162q-90 -48 -212 -48q-173 0 -283.5 106t-110.5 266q0 159 110.5 266.5t283.5 107.5q109 0 201 -45v-161q-93 63 -200 63q-104 0 -170 -65t-66 -164t66.5 -165t175.5 -66q107 0 205 67z" />
<glyph unicode="D" horiz-adv-x="743" d="M225 139h44q148 0 214 57q70 60 70 167q0 119 -84 178q-62 44 -201 44h-43v-446zM66 0v724h203q199 0 304 -73q67 -47 103 -121t36 -167q0 -176 -120 -274q-110 -89 -330 -89h-196z" />
<glyph unicode="E" d="M66 0v724h447v-139h-288v-142h248v-134h-248v-170h299v-139h-458z" />
<glyph unicode="F" horiz-adv-x="559" d="M66 0v724h459v-139h-300v-156h258v-134h-258v-295h-159z" />
<glyph unicode="G" horiz-adv-x="736" d="M676 385v-336q-108 -60 -246 -60q-173 0 -284 104.5t-111 265.5t112 268.5t284 107.5q123 0 222 -55v-160q-105 72 -219 72q-107 0 -173.5 -66.5t-66.5 -165.5q0 -98 65.5 -165t173.5 -67q51 0 89 16v109h-126v132h280z" />
<glyph unicode="H" horiz-adv-x="763" d="M66 0v724h159v-280h313v280h159v-724h-159v305h-313v-305h-159z" />
<glyph unicode="I" horiz-adv-x="291" d="M66 0v724h159v-724h-159z" />
<glyph unicode="J" horiz-adv-x="404" d="M179 235v489h159v-486q0 -124 -48 -183q-54 -66 -170 -66q-60 0 -107 19v143q49 -19 92 -19q44 0 59 22t15 81z" />
<glyph unicode="K" horiz-adv-x="674" d="M66 0v724h159v-320l2 -1l253 321h189l-274 -336l297 -388h-196l-269 362l-2 -1v-361h-159z" />
<glyph unicode="L" horiz-adv-x="555" d="M66 0v724h159v-585h317v-139h-476z" />
<glyph unicode="M" horiz-adv-x="866" d="M430 167l-105 149q-48 68 -106 155l-2 -1q2 -104 2 -180v-290h-153v724h153l215 -306l215 306h151v-724h-159v290q0 76 2 180l-2 1q-58 -87 -106 -155z" />
<glyph unicode="N" horiz-adv-x="788" d="M572 0l-217 292q-57 77 -136 187l-2 -1q2 -138 2 -209v-269h-153v724h150l217 -292q57 -77 136 -187l2 1q-2 138 -2 209v269h153v-724h-150z" />
<glyph unicode="O" horiz-adv-x="824" d="M412 133q93 0 156 66.5t63 162.5t-63 162.5t-156 66.5t-156 -66.5t-63 -162.5t63 -162.5t156 -66.5zM412 -11q-161 0 -269.5 107.5t-108.5 265.5t108.5 265.5t269.5 107.5t269.5 -107.5t108.5 -265.5t-108.5 -265.5t-269.5 -107.5z" />
<glyph unicode="P" horiz-adv-x="639" d="M66 0v724h215q143 0 215 -38q52 -27 84.5 -76t32.5 -118q0 -64 -28 -113t-76 -77q-76 -45 -234 -45h-50v-257h-159zM225 389h58q94 0 126 18q45 25 45 79q0 61 -51 84q-32 15 -124 15h-54v-196z" />
<glyph unicode="Q" horiz-adv-x="824" d="M639 -168q-123 57 -234 157q-159 3 -265 109.5t-106 263.5q0 158 108.5 265.5t269.5 107.5t269.5 -107.5t108.5 -265.5q0 -112 -56.5 -201.5t-152.5 -134.5v-2q92 -60 203 -107zM412 133q93 0 156 66.5t63 162.5t-63 162.5t-156 66.5t-156 -66.5t-63 -162.5t63 -162.5 t156 -66.5z" />
<glyph unicode="R" horiz-adv-x="653" d="M66 0v724h227q148 0 225 -48q87 -54 87 -171q0 -62 -29.5 -111.5t-85.5 -76.5q-10 -5 -32 -13l204 -304h-183l-183 284h-71v-284h-159zM225 406h80q66 0 100 17q41 21 41 72q0 50 -41 71q-37 19 -119 19h-61v-179z" />
<glyph unicode="S" horiz-adv-x="576" d="M57 42v161q54 -36 118.5 -55.5t112.5 -19.5q46 0 73.5 19t27.5 58q0 16 -6 29t-14 21t-26 16t-31 12t-40.5 12t-43.5 13q-89 29 -139.5 75.5t-50.5 132.5q0 101 69.5 160t184.5 59q125 0 221 -52v-157q-54 34 -115 52t-107 18q-93 0 -93 -68q0 -19 6.5 -32t24 -22.5 t30.5 -14.5t45 -14.5t48 -14.5q95 -31 146 -79t51 -136q0 -105 -72.5 -165.5t-190.5 -60.5q-126 0 -229 53z" />
<glyph unicode="T" horiz-adv-x="657" d="M249 0v585h-234v139h627v-139h-234v-585h-159z" />
<glyph unicode="U" horiz-adv-x="749" d="M690 724v-373q0 -167 -56 -246q-39 -55 -106.5 -85.5t-153.5 -30.5q-87 0 -155 31t-106 87q-54 80 -54 240v377h159v-371q0 -113 28 -158q40 -63 132 -63q89 0 128 60q31 48 31 160v372h153z" />
<glyph unicode="V" horiz-adv-x="707" d="M274 0l-277 724h171l116 -318q40 -108 70 -197h2q27 76 72 198l119 317h163l-276 -724h-160z" />
<glyph unicode="W" horiz-adv-x="1053" d="M228 0l-221 724h167l92 -311q27 -90 52 -187h2q26 95 55 188l96 310h116l95 -310q33 -107 55 -188h2q25 96 54 190l93 308h160l-223 -724h-168l-78 255q-29 92 -51 173h-2q-22 -79 -52 -176l-78 -252h-166z" />
<glyph unicode="X" horiz-adv-x="694" d="M-17 0l264 387l-227 337h186l65 -99q37 -56 80 -125h1q38 62 79 124l65 100h178l-227 -337l265 -387h-189l-103 155q-23 34 -76 118h-2q-26 -42 -75 -117l-103 -156h-181z" />
<glyph unicode="Y" horiz-adv-x="689" d="M266 0v325l-280 399h187l88 -131q45 -66 86 -129h2q28 43 86 130l87 130h181l-278 -398v-326h-159z" />
<glyph unicode="Z" horiz-adv-x="650" d="M8 2l343 581l-1 2h-310v139h572l1 -2l-343 -581l1 -2h333v-139h-595z" />
<glyph unicode="[" horiz-adv-x="362" d="M215 -104h105v-109h-245v956h245v-109h-105v-738z" />
<glyph unicode="\" horiz-adv-x="466" d="M344 -38l-338 800h116l338 -800h-116z" />
<glyph unicode="]" horiz-adv-x="362" d="M42 -104h105v738h-105v109h245v-956h-245v109z" />
<glyph unicode="^" horiz-adv-x="559" d="M51 362l177 373h103l177 -373h-118l-110 220h-1l-110 -220h-118z" />
<glyph unicode="_" horiz-adv-x="504" d="M0 -83h504v-66h-504v66z" />
<glyph unicode="`" horiz-adv-x="532" d="M244 563l-116 164h136l84 -164h-104z" />
<glyph unicode="a" horiz-adv-x="537" d="M342 30h-2q-57 -41 -137 -41q-67 0 -114 32q-58 40 -58 115q0 78 60 119q51 35 138 35q45 0 85 -9v19q0 35 -19 52q-23 21 -76 21q-72 0 -144 -39v131q76 38 172 38q107 0 164 -47q55 -45 55 -136v-167q0 -39 30 -39q13 0 25 6v-114q-28 -15 -73 -15q-68 0 -106 39z M314 121v72q-22 7 -54 7q-78 0 -78 -50q0 -23 18 -36t45 -13q36 0 69 20z" />
<glyph unicode="b" horiz-adv-x="605" d="M63 -6v770h152v-294l2 -1q51 34 121 34q95 0 163.5 -68.5t68.5 -179.5q0 -116 -75.5 -191t-190.5 -75q-61 0 -122 25zM215 131q35 -19 78 -19q59 0 91.5 39.5t32.5 96.5q0 56 -31.5 92t-86.5 36q-43 0 -84 -24v-221z" />
<glyph unicode="c" horiz-adv-x="512" d="M468 167v-140q-69 -38 -161 -38q-119 0 -196.5 72.5t-77.5 183.5q0 114 82 186t200 72q80 0 146 -33v-141q-72 46 -139 46q-60 0 -98.5 -36.5t-38.5 -92.5t39 -92t100 -36q79 0 144 49z" />
<glyph unicode="d" horiz-adv-x="606" d="M394 26l-2 1q-55 -38 -125 -38q-96 0 -163.5 68.5t-67.5 178.5q0 116 74.5 191.5t185.5 75.5q50 0 93 -18l2 1v278h152v-764h-149v26zM391 138v220q-38 19 -79 19q-58 0 -90.5 -38t-32.5 -96q0 -57 31 -93.5t86 -36.5q46 0 85 25z" />
<glyph unicode="e" d="M522 206h-334q12 -49 50 -74t93 -25q87 0 167 54v-127q-72 -45 -187 -45q-123 0 -201 70.5t-78 184.5t76 186.5t182 72.5q98 0 166.5 -64t68.5 -181q0 -33 -3 -52zM187 302h198q-7 39 -33.5 62t-63.5 23q-36 0 -64 -22t-37 -63z" />
<glyph unicode="f" horiz-adv-x="372" d="M90 0v366h-70v126h70v73q0 115 52 164q47 46 139 46q46 0 84 -14v-123q-34 9 -66 9q-33 0 -45 -18.5t-12 -53.5v-83h114v-126h-114v-366h-152z" />
<glyph unicode="g" horiz-adv-x="599" d="M103 -195v144q81 -50 159 -50q56 0 88 28.5t32 82.5v27l-2 1q-46 -33 -115 -33q-93 0 -161 66.5t-68 174.5q0 110 71.5 183.5t184.5 73.5q65 0 123 -28l119 21v-486q0 -114 -71.5 -177.5t-191.5 -63.5q-94 0 -168 36zM382 150v206q-34 18 -75 18q-56 0 -86.5 -35.5 t-30.5 -86.5q0 -55 31 -89t84 -34q43 0 77 21z" />
<glyph unicode="h" horiz-adv-x="600" d="M63 0v764h152v-316l2 -1q67 56 150 56q81 0 129 -50q43 -46 43 -146v-307h-152v282q0 49 -17 69q-18 21 -52 21q-50 0 -103 -41v-331h-152z" />
<glyph unicode="i" horiz-adv-x="278" d="M51 648q0 36 26 61.5t62 25.5t62 -25.5t26 -61.5t-26 -61.5t-62 -25.5t-62 25.5t-26 61.5zM63 0v492h152v-492h-152z" />
<glyph unicode="j" horiz-adv-x="281" d="M54 648q0 36 26 61.5t62 25.5t62 -25.5t26 -61.5t-26 -61.5t-62 -25.5t-62 25.5t-26 61.5zM66 -24v516h152v-506q0 -117 -45 -164q-52 -53 -149 -53q-39 0 -69 8v125q27 -5 50 -5q37 0 49 18.5t12 60.5z" />
<glyph unicode="k" horiz-adv-x="581" d="M63 0v764h152v-480l2 -1l172 209h173l-188 -220l202 -272h-180l-179 251l-2 -1v-250h-152z" />
<glyph unicode="l" horiz-adv-x="278" d="M63 0v764h152v-764h-152z" />
<glyph unicode="m" horiz-adv-x="912" d="M699 0v284q0 48 -18 67q-20 21 -52 21q-51 0 -97 -41q1 -7 1 -22v-309h-152v284q0 48 -18 67q-20 21 -52 21q-48 0 -96 -40v-332h-152v492h150v-44l2 -1q66 56 148 56q43 0 82.5 -17.5t60.5 -52.5q79 70 173 70q80 0 127 -49q45 -46 45 -145v-309h-152z" />
<glyph unicode="n" horiz-adv-x="600" d="M63 0v492h150v-45l2 -1q70 57 152 57q81 0 129 -50q43 -46 43 -146v-307h-152v282q0 49 -17 69q-18 21 -52 21q-50 0 -103 -41v-331h-152z" />
<glyph unicode="o" horiz-adv-x="612" d="M184 246q0 -53 35 -89.5t87 -36.5t87 36.5t35 89.5t-35 89.5t-87 36.5t-87 -36.5t-35 -89.5zM32 246q0 109 78.5 183t195.5 74t195.5 -74t78.5 -183t-78.5 -183t-195.5 -74t-195.5 74t-78.5 183z" />
<glyph unicode="p" horiz-adv-x="604" d="M215 7v-227h-152v712h149v-25l2 -1q54 37 122 37q97 0 165 -70.5t68 -182.5q0 -116 -73.5 -188.5t-183.5 -72.5q-55 0 -95 19zM215 131q36 -19 78 -19q58 0 90.5 36.5t32.5 93.5t-32 95.5t-87 38.5q-45 0 -82 -27v-218z" />
<glyph unicode="q" horiz-adv-x="606" d="M391 18l-2 1q-53 -30 -116 -30q-100 0 -168.5 69.5t-68.5 180.5q0 115 74.5 189.5t188.5 74.5q69 0 131 -31l113 20v-712h-152v238zM391 137v220q-42 19 -80 19q-57 0 -89.5 -38t-32.5 -95q0 -56 31.5 -93.5t87.5 -37.5q47 0 83 25z" />
<glyph unicode="r" horiz-adv-x="401" d="M63 0v492h149v-66l2 -1q52 73 143 73q17 0 32 -4v-143q-20 5 -41 5q-83 0 -133 -58v-298h-152z" />
<glyph unicode="s" horiz-adv-x="494" d="M49 30v133q97 -57 194 -57q67 0 67 38q0 11 -5.5 18t-19 11.5t-26.5 7.5t-36.5 7t-41.5 9q-74 18 -111 51.5t-37 91.5q1 76 61 119.5t154 43.5q107 0 188 -39v-131q-93 53 -185 53q-64 0 -64 -35q0 -10 5.5 -17t18.5 -11.5t25.5 -7t36 -7t40.5 -8.5q76 -19 113.5 -51.5 t37.5 -92.5q-1 -79 -62.5 -123t-158.5 -44q-111 0 -194 41z" />
<glyph unicode="t" horiz-adv-x="410" d="M382 137v-121q-41 -27 -111 -27q-82 0 -128 49q-43 46 -43 147v181h-80v126h80v128l152 26v-154h130v-126h-130v-165q0 -84 57 -84q33 0 73 20z" />
<glyph unicode="u" horiz-adv-x="605" d="M390 46l-2 1q-67 -58 -150 -58q-81 0 -128 49q-47 48 -47 151v303h152v-280q0 -51 19 -71q19 -22 54 -22q54 0 100 44v329h152v-492h-150v46z" />
<glyph unicode="v" horiz-adv-x="557" d="M206 0l-200 492h160l58 -158q28 -77 55 -156h2q29 80 59 157l61 157h150l-200 -492h-145z" />
<glyph unicode="w" horiz-adv-x="828" d="M180 0l-168 492h158l50 -155q24 -75 43 -142h2q20 65 46 142l53 155h113l52 -155q25 -76 45 -142h2q16 56 43 142l50 155h147l-168 -492h-142l-44 131q-25 73 -44 141h-2q-18 -62 -45 -140l-45 -132h-146z" />
<glyph unicode="x" horiz-adv-x="543" d="M-8 0l190 263l-168 229h169l37 -55q29 -43 54 -83h2q24 38 54 82l38 56h159l-167 -228l191 -264h-174l-57 85q-33 49 -53 82h-2q-20 -32 -53 -82l-57 -85h-163z" />
<glyph unicode="y" horiz-adv-x="558" d="M232 -220h-155l129 274l-200 438h160l51 -122q33 -80 63 -156h2q31 75 67 159l52 119h151z" />
<glyph unicode="z" horiz-adv-x="495" d="M467 0h-452l-1 2l221 362l-1 2h-198v126h436l1 -2l-221 -362l1 -2h214v-126z" />
<glyph unicode="{" horiz-adv-x="374" d="M114 -61v200q0 39 -14 55t-52 16h-29v110h29q38 0 52 16t14 55v200q0 75 43.5 119t129.5 44q38 0 68 -6v-107q-15 4 -38 4q-33 0 -48 -16.5t-15 -55.5v-176q0 -57 -15.5 -88t-53.5 -43v-2q38 -12 53.5 -43t15.5 -88v-176q0 -39 15 -55.5t48 -16.5q23 0 38 4v-107 q-30 -6 -68 -6q-86 0 -129.5 44t-43.5 119z" />
<glyph unicode="|" horiz-adv-x="321" d="M102 -220v1020h117v-1020h-117z" />
<glyph unicode="}" horiz-adv-x="374" d="M120 -43v176q0 57 15.5 88t53.5 43v2q-38 12 -53.5 43t-15.5 88v176q0 39 -15 55.5t-48 16.5q-23 0 -38 -4v107q30 6 68 6q86 0 129.5 -44t43.5 -119v-200q0 -39 14 -55t52 -16h29v-110h-29q-38 0 -52 -16t-14 -55v-200q0 -75 -43.5 -119t-129.5 -44q-38 0 -68 6v107 q15 -4 38 -4q33 0 48 16.5t15 55.5z" />
<glyph unicode="~" horiz-adv-x="556" d="M480 446v-137q-37 -37 -98 -37q-44 0 -115 33q-64 31 -95 31q-55 0 -94 -59l-2 1v137q39 37 98 37q44 0 115 -33q66 -31 95 -31q57 0 94 59z" />
<glyph unicode="&#xa1;" horiz-adv-x="292" d="M204 263l25 -483h-166l25 483h116zM234 428q0 -36 -26 -61.5t-62 -25.5t-62 25.5t-26 61.5t26 61.5t62 25.5t62 -25.5t26 -61.5z" />
<glyph unicode="&#xa2;" horiz-adv-x="516" d="M223 -18v132q-88 23 -140.5 89.5t-52.5 155.5q0 91 54 157.5t139 89.5v136h117v-125q70 -6 118 -32v-141q-73 46 -139 46q-61 0 -99 -36.5t-38 -92.5t39 -92t100 -36q79 0 144 49v-140q-48 -29 -125 -36v-124h-117z" />
<glyph unicode="&#xa3;" horiz-adv-x="590" d="M55 295v116h43q-18 58 -18 102q0 99 72 160.5t184 61.5q106 0 182 -51v-154q-86 62 -170 62q-49 0 -79 -24.5t-30 -67.5q0 -30 18 -89h165v-116h-136q3 -18 3 -34q0 -76 -56 -120v-2h311v-139h-489v116q84 41 84 134q0 20 -5 45h-79z" />
<glyph unicode="&#xa4;" horiz-adv-x="598" d="M198 350q0 -46 28 -76.5t73 -30.5t73 30.5t28 76.5t-28 76.5t-73 30.5t-73 -30.5t-28 -76.5zM29 172l78 79q-22 46 -22 99t22 99l-78 79l91 91l78 -79q44 23 101 23t101 -23l78 79l91 -91l-78 -79q22 -46 22 -99t-22 -99l78 -79l-91 -91l-78 79q-44 -23 -101 -23t-101 23 l-78 -79z" />
<glyph unicode="&#xa5;" horiz-adv-x="694" d="M93 390v102h81l-163 232h184l67 -99q35 -51 87 -133h2q49 77 87 134l66 98h178l-163 -232h83v-102h-154l-21 -30v-52h175v-103h-175v-205h-159v205h-175v103h175v51l-22 31h-153z" />
<glyph unicode="&#xa6;" horiz-adv-x="321" d="M102 408v392h117v-392h-117zM102 172h117v-392h-117v392z" />
<glyph unicode="&#xa7;" horiz-adv-x="583" d="M114 11q84 -43 149 -43q34 0 55.5 14.5t21.5 40.5q0 14 -6 25.5t-22.5 22t-29 17t-41.5 19t-44 19.5q-69 32 -108 71.5t-39 102.5q0 98 93 140v2q-46 44 -46 111q0 81 62.5 130.5t154.5 49.5q82 0 145 -33v-129q-73 39 -133 39q-34 0 -55.5 -14.5t-21.5 -40.5 q0 -10 3 -18.5t11 -16t15.5 -13.5t22 -13t24.5 -11.5t29.5 -12.5t30.5 -13q74 -33 114 -72.5t40 -105.5q0 -99 -91 -143v-2q44 -44 44 -108q0 -83 -64.5 -132t-163.5 -49q-76 0 -150 34v132zM392 271q0 10 -3 18.5t-11 16.5t-14.5 13.5t-21 12.5t-24 11t-29 12.5t-29.5 12.5 q-63 -18 -63 -60q0 -11 3.5 -20t11.5 -17t16 -14t22.5 -13t24 -11.5t28 -12.5t28.5 -12q61 19 61 63z" />
<glyph unicode="&#xa8;" horiz-adv-x="532" d="M154 571q-32 0 -54.5 22.5t-22.5 54.5t22.5 54.5t54.5 22.5t54.5 -22.5t22.5 -54.5t-22.5 -54.5t-54.5 -22.5zM378 571q-32 0 -54.5 22.5t-22.5 54.5t22.5 54.5t54.5 22.5t54.5 -22.5t22.5 -54.5t-22.5 -54.5t-54.5 -22.5z" />
<glyph unicode="&#xa9;" horiz-adv-x="814" d="M25 362q0 159 109 266t273 107t273 -107t109 -266t-109 -266t-273 -107t-273 107t-109 266zM115 362q0 -125 81 -207.5t211 -82.5t211 82t81 208q0 125 -81 207.5t-211 82.5t-211 -82t-81 -208zM209 366q0 89 64 147t160 58q66 0 113 -25v-113q-53 34 -106 34 q-48 0 -78 -28t-30 -72q0 -43 30 -71t79 -28q61 0 110 35v-113q-48 -27 -120 -27q-98 0 -160 58t-62 145z" />
<glyph unicode="&#xaa;" horiz-adv-x="377" d="M242 427h-2q-36 -26 -84 -26q-45 0 -76 22q-39 28 -39 75t40 76q34 24 89 24q28 0 53 -7v11q0 43 -59 43q-47 0 -93 -24v91q48 23 113 23q68 0 108 -31q37 -30 37 -89v-103q0 -25 18 -25q7 0 17 5v-79q-19 -11 -52 -11q-45 0 -70 25zM223 488v43q-13 4 -33 4 q-46 0 -46 -30q0 -28 38 -28q24 0 41 11z" />
<glyph unicode="&#xab;" horiz-adv-x="590" d="M315 465l-162 -219l162 -219h-139l-162 219l162 219h139zM556 465l-162 -219l162 -219h-139l-162 219l162 219h139z" />
<glyph unicode="&#xac;" horiz-adv-x="600" d="M54 307v110h492v-301h-117v191h-375z" />
<glyph unicode="&#xad;" horiz-adv-x="339" d="M46 215v124h247v-124h-247z" />
<glyph unicode="&#xae;" horiz-adv-x="441" d="M221 363q-81 0 -134.5 53t-53.5 133t53.5 133t134.5 53t134.5 -53t53.5 -133t-53.5 -133t-134.5 -53zM221 399q67 0 108.5 42.5t41.5 107.5t-41.5 107.5t-108.5 42.5t-108.5 -42.5t-41.5 -107.5t41.5 -107.5t108.5 -42.5zM256 448l-39 71h-20v-71h-50v202h79 q33 0 55.5 -17.5t22.5 -48.5q0 -40 -39 -57l48 -79h-57zM197 555h24q32 0 32 26q0 25 -32 25h-24v-51z" />
<glyph unicode="&#xaf;" horiz-adv-x="532" d="M113 595v100h306v-100h-306z" />
<glyph unicode="&#xb0;" horiz-adv-x="353" d="M176 441q-65 0 -108 42.5t-43 104.5t43 104.5t108 42.5t108 -42.5t43 -104.5t-43 -104.5t-108 -42.5zM176 503q36 0 61 25t25 60t-25 60t-61 25t-61 -25t-25 -60t25 -60t61 -25z" />
<glyph unicode="&#xb1;" horiz-adv-x="600" d="M241 238v161h-170v110h170v161h118v-161h170v-110h-170v-161h-118zM71 64v109h458v-109h-458z" />
<glyph unicode="&#xb2;" horiz-adv-x="375" d="M13 424l131 176q26 35 36.5 50t19 32.5t8.5 31.5q0 21 -16 33.5t-43 12.5q-52 0 -106 -49v109q52 43 120 43t115 -38.5t47 -98.5q0 -61 -65 -145l-43 -56l1 -2h123v-101h-327z" />
<glyph unicode="&#xb3;" horiz-adv-x="367" d="M39 444v107q76 -34 120 -34q29 0 46.5 11t17.5 31q0 44 -72 44h-47v84h45q61 0 61 37q0 38 -60 38q-46 0 -100 -26v100q46 27 112 27q71 0 117 -34t46 -84q0 -28 -16.5 -52t-44.5 -36v-2q74 -31 74 -103q0 -60 -50 -98.5t-123 -38.5q-74 0 -126 29z" />
<glyph unicode="&#xb4;" horiz-adv-x="532" d="M404 727l-116 -164h-104l84 164h136z" />
<glyph unicode="&#xb5;" horiz-adv-x="604" d="M227 -220h-162v712h152v-280q0 -51 19 -71q19 -22 54 -22q54 0 100 44v329h152v-492h-150v46l-2 1q-27 -26 -64 -42t-71 -16q-26 0 -43 7l-2 -1z" />
<glyph unicode="&#xb6;" horiz-adv-x="609" d="M225 -220v582q-76 0 -129.5 53t-53.5 128t53.5 128t129.5 53h306v-944h-116v843h-74v-843h-116z" />
<glyph unicode="&#xb7;" horiz-adv-x="306" d="M61 302q0 37 27 63.5t65 26.5t65 -26.5t27 -63.5t-27 -63.5t-65 -26.5t-65 26.5t-27 63.5z" />
<glyph unicode="&#xb8;" horiz-adv-x="532" d="M214 -87l41 128l56 -13l-21 -65q88 -18 88 -91q0 -42 -31 -67.5t-82 -25.5q-45 0 -87 19l21 66q36 -19 65 -19q39 0 39 26q0 36 -89 42z" />
<glyph unicode="&#xb9;" horiz-adv-x="331" d="M129 422v295l-86 -28v104l201 70v-441h-115z" />
<glyph unicode="&#xba;" horiz-adv-x="403" d="M201 401q-78 0 -128.5 47.5t-50.5 119.5t51 119.5t129 47.5t128.5 -47.5t50.5 -119.5t-51 -119.5t-129 -47.5zM202 494q31 0 50 20.5t19 52.5t-19.5 53.5t-50.5 21.5t-50 -20.5t-19 -52.5q0 -33 19.5 -54t50.5 -21z" />
<glyph unicode="&#xbb;" horiz-adv-x="590" d="M34 27l162 219l-162 219h139l162 -219l-162 -219h-139zM275 27l162 219l-162 219h139l162 -219l-162 -219h-139z" />
<glyph unicode="&#xbc;" horiz-adv-x="988" d="M315 -13h-128l473 737h128zM870 434v-263h63v-85h-63v-86h-114v86h-214l-1 2l228 346h101zM725 220l-31 -47l1 -2h64v47q0 38 1 55l-2 1q-16 -29 -33 -54zM147 294v295l-86 -28v104l201 70v-441h-115z" />
<glyph unicode="&#xbd;" horiz-adv-x="1006" d="M612 2l131 176q26 35 36.5 50t19 32.5t8.5 31.5q0 21 -16 33.5t-43 12.5q-52 0 -106 -49v109q52 43 120 43t115 -38.5t47 -98.5q0 -61 -65 -145l-43 -56l1 -2h123v-101h-327zM315 -13h-128l473 737h128zM147 294v295l-86 -28v104l201 70v-441h-115z" />
<glyph unicode="&#xbe;" horiz-adv-x="1018" d="M72 316v107q76 -34 120 -34q29 0 46.5 11t17.5 31q0 44 -72 44h-47v84h45q61 0 61 37q0 38 -60 38q-46 0 -100 -26v100q47 27 112 27q71 0 117 -34t46 -84q0 -28 -16.5 -52t-44.5 -36v-2q74 -31 74 -103q0 -60 -50 -98.5t-123 -38.5q-74 0 -126 29zM345 -13h-128l473 737 h128zM900 434v-263h63v-85h-63v-86h-114v86h-214l-1 2l228 346h101zM755 220l-31 -47l1 -2h64v47q0 38 1 55l-2 1q-16 -29 -33 -54z" />
<glyph unicode="&#xbf;" horiz-adv-x="514" d="M403 428q0 -36 -26 -61.5t-62 -25.5t-62 25.5t-26 61.5t26 61.5t62 25.5t62 -25.5t26 -61.5zM391 281l14 -182q-10 1 -24 1q-177 0 -177 -98q0 -39 28.5 -64t77.5 -25q65 0 133 43v-148q-68 -39 -150 -39q-106 0 -177.5 63t-71.5 158q0 86 59 144.5t145 71.5l2 75h141z " />
<glyph unicode="&#xc0;" horiz-adv-x="748" d="M3 0l294 724h154l294 -724h-170l-58 152h-292l-59 -152h-163zM303 354l-29 -77h195l-30 81q-39 106 -66 184h-2q-32 -91 -68 -188zM352 780l-116 164h136l84 -164h-104z" />
<glyph unicode="&#xc1;" horiz-adv-x="748" d="M3 0l294 724h154l294 -724h-170l-58 152h-292l-59 -152h-163zM303 354l-29 -77h195l-30 81q-39 106 -66 184h-2q-32 -91 -68 -188zM512 944l-116 -164h-104l84 164h136z" />
<glyph unicode="&#xc2;" horiz-adv-x="748" d="M3 0l294 724h154l294 -724h-170l-58 152h-292l-59 -152h-163zM303 354l-29 -77h195l-30 81q-39 106 -66 184h-2q-32 -91 -68 -188zM197 780l118 164h118l118 -164h-102l-75 91l-75 -91h-102z" />
<glyph unicode="&#xc3;" horiz-adv-x="748" d="M3 0l294 724h154l294 -724h-170l-58 152h-292l-59 -152h-163zM303 354l-29 -77h195l-30 81q-39 106 -66 184h-2q-32 -91 -68 -188zM540 939v-113q-37 -37 -89 -37q-34 0 -85 24q-48 23 -69 23q-45 0 -87 -50l-2 1v113q37 37 89 37q34 0 85 -24q48 -23 69 -23q45 0 87 50z " />
<glyph unicode="&#xc4;" horiz-adv-x="748" d="M3 0l294 724h154l294 -724h-170l-58 152h-292l-59 -152h-163zM303 354l-29 -77h195l-30 81q-39 106 -66 184h-2q-32 -91 -68 -188zM262 788q-32 0 -54.5 23t-22.5 54t22.5 54t54.5 23t54.5 -23t22.5 -54t-22.5 -54t-54.5 -23zM486 788q-32 0 -54.5 23t-22.5 54t22.5 54 t54.5 23t54.5 -23t22.5 -54t-22.5 -54t-54.5 -23z" />
<glyph unicode="&#xc5;" horiz-adv-x="748" d="M3 0l294 724h154l294 -724h-170l-58 152h-292l-59 -152h-163zM303 354l-29 -77h195l-30 81q-39 106 -66 184h-2q-32 -91 -68 -188zM374 758q-56 0 -93 35.5t-37 88.5t37 88.5t93 35.5t93 -35.5t37 -88.5t-37 -88.5t-93 -35.5zM374 822q26 0 42 17t16 43t-16 43t-42 17 t-42 -17t-16 -43t16 -43t42 -17z" />
<glyph unicode="&#xc6;" horiz-adv-x="958" d="M-8 0l398 724h520v-139h-278v-142h238v-134h-238v-170h289v-139h-448v152h-235l-82 -152h-164zM369 395l-64 -118h168v116q0 78 2 198h-2z" />
<glyph unicode="&#xc7;" horiz-adv-x="676" d="M347 -87l25 79q-151 18 -244 120.5t-93 248.5q0 159 110.5 266.5t283.5 107.5q109 0 201 -45v-161q-93 63 -200 63q-104 0 -170 -65t-66 -164t66.5 -165t175.5 -66q107 0 205 67v-162q-87 -46 -210 -48l-8 -26q88 -18 88 -91q0 -42 -31 -67.5t-82 -25.5q-45 0 -87 19 l21 66q36 -19 65 -19q39 0 39 26q0 36 -89 42z" />
<glyph unicode="&#xc8;" d="M66 0v724h447v-139h-288v-142h248v-134h-248v-170h299v-139h-458zM272 780l-116 164h136l84 -164h-104z" />
<glyph unicode="&#xc9;" d="M66 0v724h447v-139h-288v-142h248v-134h-248v-170h299v-139h-458zM432 944l-116 -164h-104l84 164h136z" />
<glyph unicode="&#xca;" d="M66 0v724h447v-139h-288v-142h248v-134h-248v-170h299v-139h-458zM117 780l118 164h118l118 -164h-102l-75 91l-75 -91h-102z" />
<glyph unicode="&#xcb;" d="M66 0v724h447v-139h-288v-142h248v-134h-248v-170h299v-139h-458zM182 788q-32 0 -54.5 23t-22.5 54t22.5 54t54.5 23t54.5 -23t22.5 -54t-22.5 -54t-54.5 -23zM406 788q-32 0 -54.5 23t-22.5 54t22.5 54t54.5 23t54.5 -23t22.5 -54t-22.5 -54t-54.5 -23z" />
<glyph unicode="&#xcc;" horiz-adv-x="291" d="M66 0v724h159v-724h-159zM123 780l-116 164h136l84 -164h-104z" />
<glyph unicode="&#xcd;" horiz-adv-x="291" d="M66 0v724h159v-724h-159zM283 944l-116 -164h-104l84 164h136z" />
<glyph unicode="&#xce;" horiz-adv-x="291" d="M66 0v724h159v-724h-159zM-32 780l118 164h118l118 -164h-102l-75 91l-75 -91h-102z" />
<glyph unicode="&#xcf;" horiz-adv-x="291" d="M66 0v724h159v-724h-159zM33 788q-31 0 -54 23t-23 54t23 54t54 23t54 -23t23 -54t-23 -54t-54 -23zM257 788q-31 0 -54 23t-23 54t23 54t54 23t54 -23t23 -54t-23 -54t-54 -23z" />
<glyph unicode="&#xd0;" horiz-adv-x="758" d="M2 313v111h79v300h203q199 0 304 -73q67 -47 103 -121t36 -167q0 -176 -120 -274q-110 -89 -330 -89h-196v313h-79zM240 139h44q148 0 214 57q70 60 70 167q0 119 -84 178q-62 44 -201 44h-43v-161h131v-111h-131v-174z" />
<glyph unicode="&#xd1;" horiz-adv-x="788" d="M572 0l-217 292q-57 77 -136 187l-2 -1q2 -138 2 -209v-269h-153v724h150l217 -292q57 -77 136 -187l2 1q-2 138 -2 209v269h153v-724h-150zM560 939v-113q-37 -37 -89 -37q-34 0 -85 24q-48 23 -69 23q-45 0 -87 -50l-2 1v113q37 37 89 37q34 0 85 -24q48 -23 69 -23 q45 0 87 50z" />
<glyph unicode="&#xd2;" horiz-adv-x="824" d="M412 133q93 0 156 66.5t63 162.5t-63 162.5t-156 66.5t-156 -66.5t-63 -162.5t63 -162.5t156 -66.5zM412 -11q-161 0 -269.5 107.5t-108.5 265.5t108.5 265.5t269.5 107.5t269.5 -107.5t108.5 -265.5t-108.5 -265.5t-269.5 -107.5zM390 780l-116 164h136l84 -164h-104z " />
<glyph unicode="&#xd3;" horiz-adv-x="824" d="M412 133q93 0 156 66.5t63 162.5t-63 162.5t-156 66.5t-156 -66.5t-63 -162.5t63 -162.5t156 -66.5zM412 -11q-161 0 -269.5 107.5t-108.5 265.5t108.5 265.5t269.5 107.5t269.5 -107.5t108.5 -265.5t-108.5 -265.5t-269.5 -107.5zM550 944l-116 -164h-104l84 164h136z " />
<glyph unicode="&#xd4;" horiz-adv-x="824" d="M412 133q93 0 156 66.5t63 162.5t-63 162.5t-156 66.5t-156 -66.5t-63 -162.5t63 -162.5t156 -66.5zM412 -11q-161 0 -269.5 107.5t-108.5 265.5t108.5 265.5t269.5 107.5t269.5 -107.5t108.5 -265.5t-108.5 -265.5t-269.5 -107.5zM235 780l118 164h118l118 -164h-102 l-75 91l-75 -91h-102z" />
<glyph unicode="&#xd5;" horiz-adv-x="824" d="M412 133q93 0 156 66.5t63 162.5t-63 162.5t-156 66.5t-156 -66.5t-63 -162.5t63 -162.5t156 -66.5zM412 -11q-161 0 -269.5 107.5t-108.5 265.5t108.5 265.5t269.5 107.5t269.5 -107.5t108.5 -265.5t-108.5 -265.5t-269.5 -107.5zM578 939v-113q-37 -37 -89 -37 q-34 0 -85 24q-48 23 -69 23q-45 0 -87 -50l-2 1v113q37 37 89 37q34 0 85 -24q48 -23 69 -23q45 0 87 50z" />
<glyph unicode="&#xd6;" horiz-adv-x="824" d="M412 133q93 0 156 66.5t63 162.5t-63 162.5t-156 66.5t-156 -66.5t-63 -162.5t63 -162.5t156 -66.5zM412 -11q-161 0 -269.5 107.5t-108.5 265.5t108.5 265.5t269.5 107.5t269.5 -107.5t108.5 -265.5t-108.5 -265.5t-269.5 -107.5zM300 788q-32 0 -54.5 23t-22.5 54 t22.5 54t54.5 23t54.5 -23t22.5 -54t-22.5 -54t-54.5 -23zM524 788q-32 0 -54.5 23t-22.5 54t22.5 54t54.5 23t54.5 -23t22.5 -54t-22.5 -54t-54.5 -23z" />
<glyph unicode="&#xd7;" horiz-adv-x="600" d="M161 143l-81 80l140 140l-140 139l81 80l139 -139l139 139l81 -80l-140 -140l140 -139l-81 -80l-139 139z" />
<glyph unicode="&#xd8;" horiz-adv-x="824" d="M240 217l286 342q-53 32 -114 32q-93 0 -156 -66.5t-63 -162.5q0 -84 47 -145zM82 29l58 70q-106 104 -106 263q0 158 108.5 265.5t269.5 107.5q117 0 211 -61l59 71l60 -50l-58 -70q106 -104 106 -263q0 -158 -108.5 -265.5t-269.5 -107.5q-117 0 -211 61l-59 -71z M584 507l-286 -342q53 -32 114 -32q93 0 156 66.5t63 162.5q0 84 -47 145z" />
<glyph unicode="&#xd9;" horiz-adv-x="749" d="M690 724v-373q0 -167 -56 -246q-39 -55 -106.5 -85.5t-153.5 -30.5q-87 0 -155 31t-106 87q-54 80 -54 240v377h159v-371q0 -113 28 -158q40 -63 132 -63q89 0 128 60q31 48 31 160v372h153zM355 780l-116 164h136l84 -164h-104z" />
<glyph unicode="&#xda;" horiz-adv-x="749" d="M690 724v-373q0 -167 -56 -246q-39 -55 -106.5 -85.5t-153.5 -30.5q-87 0 -155 31t-106 87q-54 80 -54 240v377h159v-371q0 -113 28 -158q40 -63 132 -63q89 0 128 60q31 48 31 160v372h153zM515 944l-116 -164h-104l84 164h136z" />
<glyph unicode="&#xdb;" horiz-adv-x="749" d="M690 724v-373q0 -167 -56 -246q-39 -55 -106.5 -85.5t-153.5 -30.5q-87 0 -155 31t-106 87q-54 80 -54 240v377h159v-371q0 -113 28 -158q40 -63 132 -63q89 0 128 60q31 48 31 160v372h153zM200 780l118 164h118l118 -164h-102l-75 91l-75 -91h-102z" />
<glyph unicode="&#xdc;" horiz-adv-x="749" d="M690 724v-373q0 -167 -56 -246q-39 -55 -106.5 -85.5t-153.5 -30.5q-87 0 -155 31t-106 87q-54 80 -54 240v377h159v-371q0 -113 28 -158q40 -63 132 -63q89 0 128 60q31 48 31 160v372h153zM265 788q-31 0 -54 23t-23 54t23 54t54 23t54 -23t23 -54t-23 -54t-54 -23z M489 788q-31 0 -54 23t-23 54t23 54t54 23t54 -23t23 -54t-23 -54t-54 -23z" />
<glyph unicode="&#xdd;" horiz-adv-x="689" d="M266 0v325l-280 399h187l88 -131q45 -66 86 -129h2q28 43 86 130l87 130h181l-278 -398v-326h-159zM485 944l-116 -164h-104l84 164h136z" />
<glyph unicode="&#xde;" horiz-adv-x="639" d="M66 0v724h159v-127h56q143 0 215 -38q52 -27 84.5 -76t32.5 -118q0 -64 -28 -113t-76 -77q-76 -45 -234 -45h-50v-130h-159zM225 262h58q94 0 126 18q45 25 45 79q0 61 -51 84q-32 15 -124 15h-54v-196z" />
<glyph unicode="&#xdf;" horiz-adv-x="651" d="M63 0v567q0 107 78 162q65 46 167 46q105 0 174.5 -47t69.5 -131q0 -50 -26 -88t-74 -54v-2q83 -20 125 -77t42 -137q0 -112 -74.5 -181t-185.5 -69q-49 0 -91 14v131q39 -14 74 -14q56 0 90.5 34.5t34.5 87.5q0 55 -38.5 89.5t-102.5 34.5h-36v113h19q44 0 68.5 24.5 t24.5 62.5q0 39 -25.5 60.5t-68.5 21.5q-40 0 -65 -21q-28 -23 -28 -68v-559h-152z" />
<glyph unicode="&#xe0;" horiz-adv-x="537" d="M342 30h-2q-57 -41 -137 -41q-67 0 -114 32q-58 40 -58 115q0 78 60 119q51 35 138 35q45 0 85 -9v19q0 35 -19 52q-23 21 -76 21q-72 0 -144 -39v131q76 38 172 38q107 0 164 -47q55 -45 55 -136v-167q0 -39 30 -39q13 0 25 6v-114q-28 -15 -73 -15q-68 0 -106 39z M314 121v72q-22 7 -54 7q-78 0 -78 -50q0 -23 18 -36t45 -13q36 0 69 20zM246 563l-116 164h136l84 -164h-104z" />
<glyph unicode="&#xe1;" horiz-adv-x="537" d="M342 30h-2q-57 -41 -137 -41q-67 0 -114 32q-58 40 -58 115q0 78 60 119q51 35 138 35q45 0 85 -9v19q0 35 -19 52q-23 21 -76 21q-72 0 -144 -39v131q76 38 172 38q107 0 164 -47q55 -45 55 -136v-167q0 -39 30 -39q13 0 25 6v-114q-28 -15 -73 -15q-68 0 -106 39z M314 121v72q-22 7 -54 7q-78 0 -78 -50q0 -23 18 -36t45 -13q36 0 69 20zM406 727l-116 -164h-104l84 164h136z" />
<glyph unicode="&#xe2;" horiz-adv-x="537" d="M342 30h-2q-57 -41 -137 -41q-67 0 -114 32q-58 40 -58 115q0 78 60 119q51 35 138 35q45 0 85 -9v19q0 35 -19 52q-23 21 -76 21q-72 0 -144 -39v131q76 38 172 38q107 0 164 -47q55 -45 55 -136v-167q0 -39 30 -39q13 0 25 6v-114q-28 -15 -73 -15q-68 0 -106 39z M314 121v72q-22 7 -54 7q-78 0 -78 -50q0 -23 18 -36t45 -13q36 0 69 20zM91 563l118 164h118l118 -164h-102l-75 91l-75 -91h-102z" />
<glyph unicode="&#xe3;" horiz-adv-x="537" d="M342 30h-2q-57 -41 -137 -41q-67 0 -114 32q-58 40 -58 115q0 78 60 119q51 35 138 35q45 0 85 -9v19q0 35 -19 52q-23 21 -76 21q-72 0 -144 -39v131q76 38 172 38q107 0 164 -47q55 -45 55 -136v-167q0 -39 30 -39q13 0 25 6v-114q-28 -15 -73 -15q-68 0 -106 39z M314 121v72q-22 7 -54 7q-78 0 -78 -50q0 -23 18 -36t45 -13q36 0 69 20zM434 722v-113q-37 -37 -89 -37q-34 0 -85 24q-48 23 -69 23q-45 0 -87 -50l-2 1v113q37 37 89 37q34 0 85 -24q48 -23 69 -23q45 0 87 50z" />
<glyph unicode="&#xe4;" horiz-adv-x="537" d="M342 30h-2q-57 -41 -137 -41q-67 0 -114 32q-58 40 -58 115q0 78 60 119q51 35 138 35q45 0 85 -9v19q0 35 -19 52q-23 21 -76 21q-72 0 -144 -39v131q76 38 172 38q107 0 164 -47q55 -45 55 -136v-167q0 -39 30 -39q13 0 25 6v-114q-28 -15 -73 -15q-68 0 -106 39z M314 121v72q-22 7 -54 7q-78 0 -78 -50q0 -23 18 -36t45 -13q36 0 69 20zM156 571q-32 0 -54.5 22.5t-22.5 54.5t22.5 54.5t54.5 22.5t54.5 -22.5t22.5 -54.5t-22.5 -54.5t-54.5 -22.5zM380 571q-32 0 -54.5 22.5t-22.5 54.5t22.5 54.5t54.5 22.5t54.5 -22.5t22.5 -54.5 t-22.5 -54.5t-54.5 -22.5z" />
<glyph unicode="&#xe5;" horiz-adv-x="537" d="M342 30h-2q-57 -41 -137 -41q-67 0 -114 32q-58 40 -58 115q0 78 60 119q51 35 138 35q45 0 85 -9v19q0 35 -19 52q-23 21 -76 21q-72 0 -144 -39v131q76 38 172 38q107 0 164 -47q55 -45 55 -136v-167q0 -39 30 -39q13 0 25 6v-114q-28 -15 -73 -15q-68 0 -106 39z M314 121v72q-22 7 -54 7q-78 0 -78 -50q0 -23 18 -36t45 -13q36 0 69 20zM268 541q-56 0 -93 35.5t-37 88.5t37 88.5t93 35.5t93 -35.5t37 -88.5t-37 -88.5t-93 -35.5zM268 605q26 0 42 17t16 43t-16 43t-42 17t-42 -17t-16 -43t16 -43t42 -17z" />
<glyph unicode="&#xe6;" horiz-adv-x="829" d="M75 334v131q74 38 168 38q113 0 166 -53h2q62 53 150 53q96 0 164 -63.5t68 -181.5q0 -33 -3 -52h-330q26 -99 142 -99q84 0 164 54v-127q-73 -45 -184 -45q-131 0 -203 71q-74 -71 -174 -71q-67 0 -115 33q-59 41 -59 115q0 77 60 118q51 35 136 35q40 0 82 -8v18 q0 35 -19 52q-23 21 -73 21q-71 0 -142 -39zM330 136q-12 29 -16 57q-29 7 -56 7q-80 0 -80 -51q0 -23 18 -35.5t46 -12.5q48 0 88 35zM459 302h194q-6 39 -32 62t-63 23q-36 0 -62.5 -21.5t-36.5 -63.5z" />
<glyph unicode="&#xe7;" horiz-adv-x="512" d="M225 -87l26 81q-97 17 -157.5 85.5t-60.5 165.5q0 114 82 186t200 72q80 0 146 -33v-141q-72 46 -139 46q-60 0 -98.5 -36.5t-38.5 -92.5t39 -92t100 -36q79 0 144 49v-140q-66 -36 -159 -38l-8 -26q88 -18 88 -91q0 -42 -31 -67.5t-82 -25.5q-45 0 -87 19l21 66 q36 -19 65 -19q39 0 39 26q0 36 -89 42z" />
<glyph unicode="&#xe8;" d="M522 206h-334q12 -49 50 -74t93 -25q87 0 167 54v-127q-72 -45 -187 -45q-123 0 -201 70.5t-78 184.5t76 186.5t182 72.5q98 0 166.5 -64t68.5 -181q0 -33 -3 -52zM187 302h198q-7 39 -33.5 62t-63.5 23q-36 0 -64 -22t-37 -63zM258 563l-116 164h136l84 -164h-104z" />
<glyph unicode="&#xe9;" d="M522 206h-334q12 -49 50 -74t93 -25q87 0 167 54v-127q-72 -45 -187 -45q-123 0 -201 70.5t-78 184.5t76 186.5t182 72.5q98 0 166.5 -64t68.5 -181q0 -33 -3 -52zM187 302h198q-7 39 -33.5 62t-63.5 23q-36 0 -64 -22t-37 -63zM418 727l-116 -164h-104l84 164h136z" />
<glyph unicode="&#xea;" d="M522 206h-334q12 -49 50 -74t93 -25q87 0 167 54v-127q-72 -45 -187 -45q-123 0 -201 70.5t-78 184.5t76 186.5t182 72.5q98 0 166.5 -64t68.5 -181q0 -33 -3 -52zM187 302h198q-7 39 -33.5 62t-63.5 23q-36 0 -64 -22t-37 -63zM103 563l118 164h118l118 -164h-102 l-75 91l-75 -91h-102z" />
<glyph unicode="&#xeb;" d="M522 206h-334q12 -49 50 -74t93 -25q87 0 167 54v-127q-72 -45 -187 -45q-123 0 -201 70.5t-78 184.5t76 186.5t182 72.5q98 0 166.5 -64t68.5 -181q0 -33 -3 -52zM187 302h198q-7 39 -33.5 62t-63.5 23q-36 0 -64 -22t-37 -63zM168 571q-32 0 -54.5 22.5t-22.5 54.5 t22.5 54.5t54.5 22.5t54.5 -22.5t22.5 -54.5t-22.5 -54.5t-54.5 -22.5zM392 571q-32 0 -54.5 22.5t-22.5 54.5t22.5 54.5t54.5 22.5t54.5 -22.5t22.5 -54.5t-22.5 -54.5t-54.5 -22.5z" />
<glyph unicode="&#xec;" horiz-adv-x="278" d="M63 0v492h152v-492h-152zM117 563l-116 164h136l84 -164h-104z" />
<glyph unicode="&#xed;" horiz-adv-x="278" d="M63 0v492h152v-492h-152zM277 727l-116 -164h-104l84 164h136z" />
<glyph unicode="&#xee;" horiz-adv-x="278" d="M63 0v492h152v-492h-152zM-38 563l118 164h118l118 -164h-102l-75 91l-75 -91h-102z" />
<glyph unicode="&#xef;" horiz-adv-x="278" d="M63 0v492h152v-492h-152zM27 571q-31 0 -54 22.5t-23 54.5t23 54.5t54 22.5t54 -22.5t23 -54.5t-23 -54.5t-54 -22.5zM251 571q-31 0 -54 22.5t-23 54.5t23 54.5t54 22.5t54 -22.5t23 -54.5t-23 -54.5t-54 -22.5z" />
<glyph unicode="&#xf0;" horiz-adv-x="583" d="M118 488l-19 91l91 33q-30 19 -80 46l93 91q66 -35 129 -84l121 45l19 -91l-65 -24q147 -159 147 -340q0 -124 -73.5 -195t-190.5 -71q-118 0 -190.5 69t-72.5 177q0 103 66.5 173t169.5 70q47 0 81 -21l2 2q-25 45 -70 87zM179 239q0 -52 30.5 -86.5t80.5 -34.5 q51 0 81 34.5t30 87.5q0 54 -31 87t-81 33t-80 -34t-30 -87z" />
<glyph unicode="&#xf1;" horiz-adv-x="600" d="M63 0v492h150v-45l2 -1q70 57 152 57q81 0 129 -50q43 -46 43 -146v-307h-152v282q0 49 -17 69q-18 21 -52 21q-50 0 -103 -41v-331h-152zM466 722v-113q-37 -37 -89 -37q-34 0 -85 24q-48 23 -69 23q-45 0 -87 -50l-2 1v113q37 37 89 37q34 0 85 -24q48 -23 69 -23 q45 0 87 50z" />
<glyph unicode="&#xf2;" horiz-adv-x="612" d="M184 246q0 -53 35 -89.5t87 -36.5t87 36.5t35 89.5t-35 89.5t-87 36.5t-87 -36.5t-35 -89.5zM32 246q0 109 78.5 183t195.5 74t195.5 -74t78.5 -183t-78.5 -183t-195.5 -74t-195.5 74t-78.5 183zM284 563l-116 164h136l84 -164h-104z" />
<glyph unicode="&#xf3;" horiz-adv-x="612" d="M184 246q0 -53 35 -89.5t87 -36.5t87 36.5t35 89.5t-35 89.5t-87 36.5t-87 -36.5t-35 -89.5zM32 246q0 109 78.5 183t195.5 74t195.5 -74t78.5 -183t-78.5 -183t-195.5 -74t-195.5 74t-78.5 183zM444 727l-116 -164h-104l84 164h136z" />
<glyph unicode="&#xf4;" horiz-adv-x="612" d="M184 246q0 -53 35 -89.5t87 -36.5t87 36.5t35 89.5t-35 89.5t-87 36.5t-87 -36.5t-35 -89.5zM32 246q0 109 78.5 183t195.5 74t195.5 -74t78.5 -183t-78.5 -183t-195.5 -74t-195.5 74t-78.5 183zM129 563l118 164h118l118 -164h-102l-75 91l-75 -91h-102z" />
<glyph unicode="&#xf5;" horiz-adv-x="612" d="M184 246q0 -53 35 -89.5t87 -36.5t87 36.5t35 89.5t-35 89.5t-87 36.5t-87 -36.5t-35 -89.5zM32 246q0 109 78.5 183t195.5 74t195.5 -74t78.5 -183t-78.5 -183t-195.5 -74t-195.5 74t-78.5 183zM472 722v-113q-37 -37 -89 -37q-34 0 -85 24q-48 23 -69 23q-45 0 -87 -50 l-2 1v113q37 37 89 37q34 0 85 -24q48 -23 69 -23q45 0 87 50z" />
<glyph unicode="&#xf6;" horiz-adv-x="612" d="M184 246q0 -53 35 -89.5t87 -36.5t87 36.5t35 89.5t-35 89.5t-87 36.5t-87 -36.5t-35 -89.5zM32 246q0 109 78.5 183t195.5 74t195.5 -74t78.5 -183t-78.5 -183t-195.5 -74t-195.5 74t-78.5 183zM194 571q-32 0 -54.5 22.5t-22.5 54.5t22.5 54.5t54.5 22.5t54.5 -22.5 t22.5 -54.5t-22.5 -54.5t-54.5 -22.5zM418 571q-32 0 -54.5 22.5t-22.5 54.5t22.5 54.5t54.5 22.5t54.5 -22.5t22.5 -54.5t-22.5 -54.5t-54.5 -22.5z" />
<glyph unicode="&#xf7;" horiz-adv-x="600" d="M220 567q0 32 23 54.5t55 22.5t55 -22.5t23 -54.5t-23 -54.5t-55 -22.5t-55 22.5t-23 54.5zM54 307v110h492v-110h-492zM222 157q0 32 23 54.5t55 22.5t55 -22.5t23 -54.5t-23 -54.5t-55 -22.5t-55 22.5t-23 54.5z" />
<glyph unicode="&#xf8;" horiz-adv-x="612" d="M203 176l158 182q-25 14 -55 14q-52 0 -87 -36t-35 -89q0 -39 19 -71zM64 14l44 51q-76 74 -76 181q0 109 78 183t196 74q80 0 147 -38l46 53l49 -40l-44 -51q76 -74 76 -181q0 -109 -78 -183t-196 -74q-80 0 -147 38l-46 -53zM409 316l-158 -182q25 -14 55 -14 q52 0 87 36t35 89q0 39 -19 71z" />
<glyph unicode="&#xf9;" horiz-adv-x="605" d="M390 46l-2 1q-67 -58 -150 -58q-81 0 -128 49q-47 48 -47 151v303h152v-280q0 -51 19 -71q19 -22 54 -22q54 0 100 44v329h152v-492h-150v46zM280 563l-116 164h136l84 -164h-104z" />
<glyph unicode="&#xfa;" horiz-adv-x="605" d="M390 46l-2 1q-67 -58 -150 -58q-81 0 -128 49q-47 48 -47 151v303h152v-280q0 -51 19 -71q19 -22 54 -22q54 0 100 44v329h152v-492h-150v46zM440 727l-116 -164h-104l84 164h136z" />
<glyph unicode="&#xfb;" horiz-adv-x="605" d="M390 46l-2 1q-67 -58 -150 -58q-81 0 -128 49q-47 48 -47 151v303h152v-280q0 -51 19 -71q19 -22 54 -22q54 0 100 44v329h152v-492h-150v46zM125 563l118 164h118l118 -164h-102l-75 91l-75 -91h-102z" />
<glyph unicode="&#xfc;" horiz-adv-x="605" d="M390 46l-2 1q-67 -58 -150 -58q-81 0 -128 49q-47 48 -47 151v303h152v-280q0 -51 19 -71q19 -22 54 -22q54 0 100 44v329h152v-492h-150v46zM190 571q-32 0 -54.5 22.5t-22.5 54.5t22.5 54.5t54.5 22.5t54.5 -22.5t22.5 -54.5t-22.5 -54.5t-54.5 -22.5zM414 571 q-32 0 -54.5 22.5t-22.5 54.5t22.5 54.5t54.5 22.5t54.5 -22.5t22.5 -54.5t-22.5 -54.5t-54.5 -22.5z" />
<glyph unicode="&#xfd;" horiz-adv-x="558" d="M232 -220h-155l129 274l-200 438h160l51 -122q33 -80 63 -156h2q31 75 67 159l52 119h151zM422 727l-116 -164h-104l84 164h136z" />
<glyph unicode="&#xfe;" horiz-adv-x="604" d="M63 -220v984h152v-295l2 -1q50 35 119 35q97 0 165 -69.5t68 -181.5q0 -116 -74.5 -189.5t-186.5 -73.5q-48 0 -91 16l-2 -1v-224h-152zM215 351v-221q36 -18 78 -18q58 0 90.5 38t32.5 95t-31.5 94t-85.5 37q-42 0 -84 -25z" />
<glyph unicode="&#xff;" horiz-adv-x="558" d="M232 -220h-155l129 274l-200 438h160l51 -122q33 -80 63 -156h2q31 75 67 159l52 119h151zM172 571q-32 0 -54.5 22.5t-22.5 54.5t22.5 54.5t54.5 22.5t54.5 -22.5t22.5 -54.5t-22.5 -54.5t-54.5 -22.5zM396 571q-32 0 -54.5 22.5t-22.5 54.5t22.5 54.5t54.5 22.5 t54.5 -22.5t22.5 -54.5t-22.5 -54.5t-54.5 -22.5z" />
<glyph unicode="&#x152;" horiz-adv-x="936" d="M173 73q-67 47 -103 121t-36 167q0 176 120 274q110 89 330 89h404v-139h-278v-142h238v-134h-238v-170h289v-139h-422q-199 0 -304 73zM277 183q57 -41 174 -44v445q-127 -4 -188 -56q-70 -60 -70 -167q0 -119 84 -178z" />
<glyph unicode="&#x153;" horiz-adv-x="950" d="M497 419h2q74 84 184 84q95 0 163 -64t68 -181q0 -33 -3 -52h-330q26 -99 142 -99q84 0 164 54v-127q-73 -45 -184 -45q-131 0 -205 82h-2q-76 -82 -195 -82q-115 0 -192 73.5t-77 183.5q0 109 77 183t192 74q120 0 196 -84zM184 247q0 -54 34.5 -90.5t85.5 -36.5t85 36 t34 89t-34.5 90t-85.5 37t-85 -36t-34 -89zM580 302h194q-6 39 -32 62t-63 23q-36 0 -62.5 -21.5t-36.5 -63.5z" />
<glyph unicode="&#x178;" horiz-adv-x="689" d="M266 0v325l-280 399h187l88 -131q45 -66 86 -129h2q28 43 86 130l87 130h181l-278 -398v-326h-159zM235 788q-31 0 -54 23t-23 54t23 54t54 23t54 -23t23 -54t-23 -54t-54 -23zM459 788q-31 0 -54 23t-23 54t23 54t54 23t54 -23t23 -54t-23 -54t-54 -23z" />
<glyph unicode="&#x2c6;" horiz-adv-x="532" d="M89 563l118 164h118l118 -164h-102l-75 91l-75 -91h-102z" />
<glyph unicode="&#x2dc;" horiz-adv-x="532" d="M432 722v-113q-37 -37 -89 -37q-34 0 -85 24q-48 23 -69 23q-45 0 -87 -50l-2 1v113q37 37 89 37q34 0 85 -24q48 -23 69 -23q45 0 87 50z" />
<glyph unicode="&#x2000;" horiz-adv-x="503" />
<glyph unicode="&#x2001;" horiz-adv-x="1006" />
<glyph unicode="&#x2002;" horiz-adv-x="503" />
<glyph unicode="&#x2003;" horiz-adv-x="1006" />
<glyph unicode="&#x2004;" horiz-adv-x="335" />
<glyph unicode="&#x2005;" horiz-adv-x="251" />
<glyph unicode="&#x2006;" horiz-adv-x="167" />
<glyph unicode="&#x2007;" horiz-adv-x="167" />
<glyph unicode="&#x2008;" horiz-adv-x="125" />
<glyph unicode="&#x2009;" horiz-adv-x="201" />
<glyph unicode="&#x200a;" horiz-adv-x="55" />
<glyph unicode="&#x2010;" horiz-adv-x="339" d="M46 215v124h247v-124h-247z" />
<glyph unicode="&#x2011;" horiz-adv-x="339" d="M46 215v124h247v-124h-247z" />
<glyph unicode="&#x2012;" horiz-adv-x="339" d="M46 215v124h247v-124h-247z" />
<glyph unicode="&#x2013;" horiz-adv-x="488" d="M47 222v111h394v-111h-394z" />
<glyph unicode="&#x2014;" horiz-adv-x="782" d="M32 231v93h718v-93h-718z" />
<glyph unicode="&#x2018;" horiz-adv-x="266" d="M32 460l91 282h101l-58 -282h-134z" />
<glyph unicode="&#x2019;" horiz-adv-x="266" d="M42 460l58 282h134l-91 -282h-101z" />
<glyph unicode="&#x201a;" horiz-adv-x="266" d="M42 -118l58 282h134l-91 -282h-101z" />
<glyph unicode="&#x201c;" horiz-adv-x="453" d="M32 460l91 282h101l-58 -282h-134zM219 460l91 282h101l-58 -282h-134z" />
<glyph unicode="&#x201d;" horiz-adv-x="453" d="M42 460l58 282h134l-91 -282h-101zM229 460l58 282h134l-91 -282h-101z" />
<glyph unicode="&#x201e;" horiz-adv-x="453" d="M42 -118l58 282h134l-91 -282h-101zM229 -118l58 282h134l-91 -282h-101z" />
<glyph unicode="&#x2022;" horiz-adv-x="376" d="M60 297q0 53 37.5 90.5t90.5 37.5t90.5 -37.5t37.5 -90.5t-37.5 -90.5t-90.5 -37.5t-90.5 37.5t-37.5 90.5z" />
<glyph unicode="&#x2026;" horiz-adv-x="864" d="M61 79q0 37 27 63.5t65 26.5t65 -26.5t27 -63.5t-27 -63.5t-65 -26.5t-65 26.5t-27 63.5zM340 79q0 37 27 63.5t65 26.5t65 -26.5t27 -63.5t-27 -63.5t-65 -26.5t-65 26.5t-27 63.5zM619 79q0 37 27 63.5t65 26.5t65 -26.5t27 -63.5t-27 -63.5t-65 -26.5t-65 26.5 t-27 63.5z" />
<glyph unicode="&#x202f;" horiz-adv-x="201" />
<glyph unicode="&#x2039;" horiz-adv-x="349" d="M315 465l-162 -219l162 -219h-139l-162 219l162 219h139z" />
<glyph unicode="&#x203a;" horiz-adv-x="349" d="M34 27l162 219l-162 219h139l162 -219l-162 -219h-139z" />
<glyph unicode="&#x205f;" horiz-adv-x="251" />
<glyph unicode="&#x20ac;" horiz-adv-x="611" d="M14 230v102h65q-1 10 -1 30q0 22 1 33h-65v102h84q35 110 124.5 174t216.5 64q70 0 127 -22v-146q-67 24 -121 24q-121 0 -175 -94h158v-102h-188q-1 -11 -1 -32t1 -31h188v-102h-159q55 -97 183 -97q61 0 124 26v-145q-53 -25 -138 -25q-130 0 -218.5 65t-122.5 176h-83 z" />
<glyph unicode="&#x2122;" horiz-adv-x="647" d="M525 434v98q0 33 2 69l-2 1q-14 -24 -37 -55l-37 -51l-37 51q-23 31 -37 55l-2 -1q2 -36 2 -69v-98h-75v290h72l78 -107l77 107h73v-290h-77zM104 434v220h-81v70h240v-70h-81v-220h-78z" />
<glyph unicode="&#x25fc;" horiz-adv-x="490" d="M0 490h490v-490h-490v490z" />
</font>
</defs>
</svg>
