<?xml version="1.0" encoding="UTF-8"?>
<svg width="516px" height="320px" viewBox="0 0 516 320" version="1.1" xmlns="http://www.w3.org/2000/svg" xmlns:xlink="http://www.w3.org/1999/xlink">
    <!-- Generator: Sketch 51.1 (57501) - http://www.bohemiancoding.com/sketch -->
    <title>Payments</title>
    <desc>Created with Sketch.</desc>
    <defs>
        <rect id="path-1" x="0" y="0" width="516" height="320"></rect>
        <filter x="-8.6%" y="-9.8%" width="117.1%" height="123.2%" filterUnits="objectBoundingBox" id="filter-3">
            <feOffset dx="0" dy="4" in="SourceAlpha" result="shadowOffsetOuter1"></feOffset>
            <feGaussianBlur stdDeviation="8" in="shadowOffsetOuter1" result="shadowBlurOuter1"></feGaussianBlur>
            <feColorMatrix values="0 0 0 0 0   0 0 0 0 0   0 0 0 0 0  0 0 0 0.2 0" type="matrix" in="shadowBlurOuter1" result="shadowMatrixOuter1"></feColorMatrix>
            <feMerge>
                <feMergeNode in="shadowMatrixOuter1"></feMergeNode>
                <feMergeNode in="SourceGraphic"></feMergeNode>
            </feMerge>
        </filter>
    </defs>
    <g id="Payments" stroke="none" stroke-width="1" fill="none" fill-rule="evenodd">
        <g id="Group-6">
            <mask id="mask-2" fill="white">
                <use xlink:href="#path-1"></use>
            </mask>
            <g id="Mask" fill-rule="nonzero"></g>
            <g filter="url(#filter-3)" mask="url(#mask-2)">
                <g transform="translate(106.000000, 48.000000)">
                    <g id="visa">
                        <rect id="visa-bg" fill="#224DBA" x="0" y="0" width="140" height="100" rx="6.63157895"></rect>
                        <path d="M47.5009916,65.7663547 L39.3658804,65.7663547 L33.2655386,42.493208 C32.9759905,41.4226432 32.3611967,40.4762019 31.4568547,40.0301333 C29.1999662,38.9091433 26.7130259,38.0170061 24,37.5670585 L24,36.6710424 L37.1050255,36.6710424 C38.9137094,36.6710424 40.2702224,38.0170061 40.4963079,39.5801857 L43.6615047,56.3678823 L51.7926495,36.6710424 L59.7016752,36.6710424 L47.5009916,65.7663547 Z M64.223385,65.7663547 L56.5404447,65.7663547 L62.866872,36.6710424 L70.5498122,36.6710424 L64.223385,65.7663547 Z M80.4896409,44.7313089 C80.7157264,43.1642503 82.0722393,42.2682342 83.6548378,42.2682342 C86.1417781,42.0432604 88.8508376,42.493208 91.1116925,43.610319 L92.4682054,37.3459637 C90.2073505,36.4499475 87.7204101,36 85.4635217,36 C78.0066669,36 72.5806152,40.0301333 72.5806152,45.6234462 C72.5806152,49.8785532 76.4240685,52.1127753 79.1370944,53.4587389 C82.0722393,54.8008237 83.2026668,55.6968399 82.9765813,57.0389247 C82.9765813,59.0520519 80.7157264,59.948068 78.4588379,59.948068 C75.7458121,59.948068 73.0327862,59.2770256 70.5498122,58.1560357 L69.1932993,64.4242699 C71.9063252,65.541381 74.8414701,65.9913285 77.554496,65.9913285 C85.9156926,66.2124234 91.1116925,62.186169 91.1116925,56.1429085 C91.1116925,48.5325895 80.4896409,48.0865209 80.4896409,44.7313089 L80.4896409,44.7313089 Z M118,65.7663547 L111.899658,36.6710424 L105.347145,36.6710424 C103.990633,36.6710424 102.63412,37.5670585 102.181949,38.9091433 L90.885607,65.7663547 L98.7946327,65.7663547 L100.373265,61.5151266 L110.090974,61.5151266 L110.995316,65.7663547 L118,65.7663547 Z M106.477573,44.5063351 L108.734461,55.4718661 L102.408034,55.4718661 L106.477573,44.5063351 Z" id="visa-logo" fill="#FFFFFF"></path>
                    </g>
                    <g id="amex" transform="translate(0.000000, 124.000000)">
                        <rect id="amex-bg" fill="#007ECD" x="0" y="0" width="140" height="100" rx="6.63157895"></rect>
                        <path d="M122.981255,67.9551001 L116.835184,67.9551001 L116.835184,64.8599051 L122.199217,64.8599051 C122.199217,64.8599051 124.155056,65.0873013 124.155056,63.7953434 C124.155056,62.5844951 121.23098,62.67864 121.23098,62.67864 C121.23098,62.67864 116.465765,63.0885324 116.465765,58.6753087 C116.465765,54.2852591 120.770695,54.5358294 120.770695,54.5358294 L127.38152,54.5358294 L127.38152,57.6744759 L122.060685,57.6744759 C122.060685,57.6744759 120.218055,57.3080349 120.218055,58.6318572 C120.218055,59.7413188 122.728024,59.583445 122.728024,59.583445 C122.728024,59.583445 127.999702,59.198175 127.999702,63.2464062 C127.999702,67.5857624 124.603424,67.9724807 123.398342,67.9724807 C123.139152,67.9724807 122.981255,67.9551001 122.981255,67.9551001 L122.981255,67.9551001 Z M92.3179329,67.9768259 L92.3179329,54.5590035 L103.089198,54.5590035 L103.089198,57.6744759 L95.7916694,57.6744759 L95.7916694,59.7413188 L102.907467,59.7413188 L102.907467,62.7916139 L95.7916694,62.7916139 L95.7916694,65.0684723 L103.089198,65.0684723 L103.089198,67.9768259 L92.3179329,67.9768259 Z M110.803812,67.9551001 L104.656252,67.9551001 L104.656252,64.8599051 L110.044119,64.8599051 C110.044119,64.8599051 111.977614,65.0873013 111.977614,63.7953434 C111.977614,62.5844951 109.053538,62.67864 109.053538,62.67864 C109.053538,62.67864 104.288322,63.0885324 104.288322,58.6753087 C104.288322,54.2852591 108.593253,54.5358294 108.593253,54.5358294 L115.226421,54.5358294 L115.226421,57.6744759 L109.884732,57.6744759 C109.884732,57.6744759 108.040613,57.3080349 108.040613,58.6318572 C108.040613,59.7413188 110.547602,59.583445 110.547602,59.583445 C110.547602,59.583445 115.822259,59.198175 115.822259,63.2464062 C115.822259,67.5857624 112.425982,67.9724807 111.220899,67.9724807 C110.96022,67.9724807 110.803812,67.9551001 110.803812,67.9551001 L110.803812,67.9551001 Z M64.2301212,67.9782743 L61.21518,67.9782743 L57.5537544,63.9952203 L53.8714745,67.9782743 L51.7756137,67.9782743 L41.0252034,67.9782743 L41.0252034,54.5141036 L51.7756137,54.5141036 L53.5944098,54.5141036 L57.5537544,58.789731 L61.5369327,54.5372778 L64.1854334,54.5372778 L64.1854334,54.5141036 L72.5644077,54.5141036 C72.5644077,54.5141036 76.9393495,54.0361372 76.9393495,58.4681899 C76.9393495,62.4266213 75.4855044,63.6562987 71.0226764,63.6562987 L67.6383156,63.6562987 L67.6383156,67.9782743 L64.2301212,67.9782743 L64.2301212,67.9782743 Z M59.9028465,61.3620596 L64.1854334,66.0446826 L64.1854334,56.6968172 L59.9028465,61.3620596 L59.9028465,61.3620596 Z M44.5019192,65.0670239 L51.7756137,65.0670239 L55.1838081,61.3620596 L51.7756137,57.6759242 L44.5019192,57.6759242 L44.5019192,59.7427671 L51.5923935,59.7427671 L51.5923935,62.7930622 L44.5019192,62.7930622 L44.5019192,65.0670239 L44.5019192,65.0670239 Z M67.6383156,60.1512112 L71.2058967,60.1512112 C72.2426551,60.1512112 73.0947037,59.583445 73.0947037,58.8780823 C73.0947037,58.1756165 72.2426551,57.6049535 71.2058967,57.6049535 L67.6383156,57.6049535 L67.6383156,60.1512112 L67.6383156,60.1512112 Z M87.2533084,68 L87.2533084,65.3842199 C87.2533084,65.3842199 87.1117968,63.3376543 84.9474146,63.3376543 L81.5898665,63.3376543 L81.5898665,68 L78.1340051,68 L78.1340051,54.5590035 L86.5159586,54.5590035 C86.5159586,54.5590035 90.8894108,54.0361372 90.8894108,58.4928124 C90.8894108,60.8131224 88.955916,61.6314589 88.955916,61.6314589 C88.955916,61.6314589 90.6138357,62.4048955 90.6138357,64.6774088 L90.6138357,68 L87.2533084,68 L87.2533084,68 Z M81.5898665,60.1758337 L85.1574476,60.1758337 C86.194206,60.1758337 87.044765,59.6080675 87.044765,58.9027049 C87.044765,58.1973422 86.194206,57.629576 85.1574476,57.629576 L81.5898665,57.629576 L81.5898665,60.1758337 L81.5898665,60.1758337 Z M78.9875433,49.6011877 L82.4612798,49.6011877 L82.4612798,36.1167397 L78.9875433,36.1167397 L78.9875433,49.6011877 Z M52.2358987,49.5548394 L52.2358987,36.1152913 L63.0101425,36.1152913 L63.0101425,39.2524894 L55.7126145,39.2524894 L55.7126145,41.3222291 L62.8269223,41.3222291 L62.8269223,44.3696274 L55.7126145,44.3696274 L55.7126145,46.6464859 L63.0101425,46.6464859 L63.0101425,49.5548394 L52.2358987,49.5548394 Z M46.8256881,49.5562878 L46.8256881,40.2764964 L42.4984133,49.5562878 L39.6666924,49.5562878 L35.3155841,40.3213962 L35.3155841,49.5562878 L32.2991533,49.5562878 L31.8388683,49.5562878 L28.5006849,49.5562878 L27.3030502,46.7362856 L20.9961031,46.7362856 L19.7761244,49.5562878 L16,49.5562878 L21.7319633,36.1138429 L26.589534,36.1138429 L31.8388683,48.4642068 L31.8388683,36.1138429 L37.2952564,36.1138429 L41.0937248,44.4608755 L44.8683597,36.1138429 L50.3247478,36.1138429 L50.3247478,49.5562878 L46.8256881,49.5562878 Z M22.469313,43.3007206 L25.8298403,43.3007206 L24.1495767,39.2988377 L22.469313,43.3007206 Z M114.669312,49.5562878 L109.19356,40.5719665 L109.19356,49.5562878 L106.223306,49.5562878 L105.667687,49.5562878 L102.424838,49.5562878 L101.204859,46.7362856 L94.8964226,46.7362856 L93.6972982,49.5562878 L90.5199912,49.5562878 L89.9450073,49.5562878 L88.2870876,49.5562878 C88.2870876,49.5562878 83.6395498,48.895825 83.6395498,43.2109208 C83.6395498,35.7502987 88.9112281,36.0457689 89.0929587,36.000869 L93.3517121,36.1138429 L93.3517121,39.1395155 L89.8556316,39.1844154 C89.8556316,39.1844154 87.575061,39.1844154 87.2965066,42.1188398 C87.2667147,42.4577615 87.2503292,42.7648188 87.2533084,43.053047 C87.2667147,47.5966253 91.2439346,46.1873484 91.375019,46.1438969 L95.6561163,36.1138429 L100.488364,36.1138429 L105.667687,48.3048847 L105.667687,36.1138429 L110.549091,36.1138429 L115.959302,44.9620161 L115.959302,36.1138429 L119.437507,36.1138429 L119.437507,49.5562878 L114.669312,49.5562878 L114.669312,49.5562878 Z M96.3696325,43.3007206 L99.7316494,43.3007206 L98.0737297,39.2988377 L96.3696325,43.3007206 L96.3696325,43.3007206 Z M73.9214292,49.5562878 L73.9214292,46.9405077 C73.9214292,46.9405077 73.7843864,44.8939421 71.6200042,44.8939421 L68.2594769,44.8939421 L68.2594769,49.5562878 L64.8051051,49.5562878 L64.8051051,36.1138429 L73.185569,36.1138429 C73.185569,36.1138429 77.5590212,35.5909766 77.5590212,40.0491002 C77.5590212,42.3694101 75.6255263,43.1877467 75.6255263,43.1877467 C75.6255263,43.1877467 77.30579,43.9611833 77.30579,46.235145 L77.30579,49.5562878 L73.9214292,49.5562878 Z M68.2594769,41.7321215 L71.827058,41.7321215 C72.8638164,41.7321215 73.7143754,41.1629069 73.7143754,40.4575443 C73.7143754,39.75363 72.8638164,39.1844154 71.827058,39.1844154 L68.2594769,39.1844154 L68.2594769,41.7321215 Z" id="amex-logo" fill="#FFFFFF"></path>
                    </g>
                    <g id="discover" transform="translate(164.000000, 124.000000)">
                        <rect id="discover-bg" fill="#FFA200" x="0" y="0" width="140" height="100" rx="6.71641791"></rect>
                        <path d="M122.353397,49.5531177 L121.266841,49.5531177 L121.266841,43.7506072 L122.353397,43.7506072 C124.743821,43.7506072 125.830377,44.8251462 125.830377,46.5444086 C125.830377,48.4785787 124.743821,49.5531177 122.353397,49.5531177 L122.353397,49.5531177 Z M129.741979,46.3295008 C129.741979,42.6760682 127.351556,40.7418981 123.005331,40.7418981 L117.57255,40.7418981 L117.57255,59.8686919 L121.266841,59.8686919 L121.266841,52.1320112 L121.701464,52.1320112 L126.699622,59.8686919 L131.263158,59.8686919 L125.395755,51.9171034 C128.003489,51.4872879 129.95929,49.1233021 129.741979,46.3295008 L129.741979,46.3295008 Z M104.751187,59.8686919 L115.182127,59.8686919 L115.182127,56.6450749 L108.445478,56.6450749 L108.445478,51.4872879 L114.964815,51.4872879 L114.964815,48.2636709 L108.445478,48.2636709 L108.445478,43.965515 L115.182127,43.965515 L115.182127,40.7418981 L104.751187,40.7418981 L104.751187,59.8686919 L104.751187,59.8686919 Z M93.8856257,53.6363658 L88.8874673,40.7418981 L84.9758651,40.7418981 L93.0163807,60.2985075 L94.9721818,60.2985075 L103.012697,40.7418981 L99.1010953,40.7418981 L93.8856257,53.6363658 L93.8856257,53.6363658 Z M49.7714452,50.4127489 C49.7714452,55.7854438 54.1176699,60.2985075 59.5504507,60.2985075 C61.2889406,60.2985075 62.8101192,59.8686919 64.3312979,59.2239685 L64.3312979,54.9258126 C63.2447417,56.2152594 61.7235631,57.0748905 59.9850732,57.0748905 C56.5080934,57.0748905 53.6830474,54.495997 53.6830474,51.0574723 L53.6830474,50.6276567 C53.4657362,47.1891319 56.2907822,44.1804228 59.7677619,43.965515 C61.5062518,43.965515 63.2447417,44.8251462 64.3312979,46.114593 L64.3312979,41.8164371 C63.0274305,40.9568059 61.2889406,40.7418981 59.7677619,40.7418981 C54.1176699,40.3120825 49.7714452,44.8251462 49.7714452,50.4127489 L49.7714452,50.4127489 Z M43.0347969,48.0487631 C40.8616846,47.1891319 40.2097509,46.7593164 40.2097509,45.6847774 C40.4270621,44.3953306 41.5136183,43.3207916 42.8174857,43.5356994 C43.9040419,43.5356994 44.990598,44.1804228 45.859843,45.040054 L47.8156441,42.4611605 C46.2944654,41.1717137 44.3386643,40.3120825 42.3828632,40.3120825 C39.340506,40.0971747 36.7327712,42.4611605 36.5154599,45.4698696 L36.5154599,45.6847774 C36.5154599,48.2636709 37.6020161,49.7680255 41.0789958,50.8425645 C41.9482408,51.0574723 42.8174857,51.4872879 43.6867306,51.9171034 C44.3386643,52.346919 44.7732868,52.9916424 44.7732868,53.8512736 C44.7732868,55.3556282 43.4694194,56.6450749 42.165552,56.6450749 L41.9482408,56.6450749 C40.2097509,56.6450749 38.6885723,55.570536 38.0366386,54.0661814 L35.646215,56.4301671 C36.9500824,58.7941529 39.5578172,60.0835997 42.165552,60.0835997 C45.6425317,60.2985075 48.4675778,57.7196139 48.684889,54.2810892 L48.684889,53.6363658 C48.4675778,51.0574723 47.3810216,49.7680255 43.0347969,48.0487631 L43.0347969,48.0487631 Z M30.4307454,59.8686919 L34.1250363,59.8686919 L34.1250363,40.7418981 L30.4307454,40.7418981 L30.4307454,59.8686919 L30.4307454,59.8686919 Z M23.0421634,55.1407204 C21.738296,56.2152594 19.7824949,56.8599827 18.044005,56.6450749 L16.9574489,56.6450749 L16.9574489,43.965515 L18.044005,43.965515 C19.7824949,43.7506072 21.738296,44.3953306 23.0421634,45.4698696 C24.3460308,46.7593164 24.9979645,48.4785787 24.9979645,50.1978411 C24.9979645,52.1320112 24.3460308,53.8512736 23.0421634,55.1407204 L23.0421634,55.1407204 Z M18.6959387,40.7418981 L13.2631579,40.7418981 L13.2631579,59.8686919 L18.6959387,59.8686919 C21.0863623,60.0835997 23.4767859,59.2239685 25.432587,57.7196139 C27.6056993,55.7854438 28.9095667,53.2065502 28.9095667,50.4127489 C29.126878,45.2549618 24.9979645,40.9568059 19.7824949,40.7418981 L18.6959387,40.7418981 L18.6959387,40.7418981 Z M75.4141708,40.2985075 C69.9813899,40.2985075 65.417854,44.5966634 65.417854,50.184266 C65.417854,55.5569609 69.7640787,60.0700246 75.4141708,60.2849324 C81.0642629,60.4998402 85.4104875,55.9867765 85.6277988,50.3991738 C85.4104875,44.8115712 81.0642629,40.2985075 75.4141708,40.2985075 L75.4141708,40.2985075 Z" id="discover-logo" fill="#FFFFFF"></path>
                    </g>
                    <g id="mastercard" transform="translate(164.000000, 0.000000)">
                        <rect id="mastercard-bg" fill="#353A48" x="0" y="0" width="140" height="100" rx="6.63157895"></rect>
                        <g id="mastercard-logo" transform="translate(25.052632, 22.388060)">
                            <path d="M45.6842105,7.10396155 C50.4449243,2.99084382 56.6203671,0.507839417 63.3684211,0.507839417 C78.4254474,0.507839417 90.6315789,12.8701262 90.6315789,28.1197797 C90.6315789,43.3694333 78.4254474,55.73172 63.3684211,55.73172 C56.6203671,55.73172 50.4449243,53.2487156 45.6842105,49.1355979 C40.9234967,53.2487156 34.748054,55.73172 28,55.73172 C12.9429737,55.73172 0.736842105,43.3694333 0.736842105,28.1197797 C0.736842105,12.8701262 12.9429737,0.507839417 28,0.507839417 C34.748054,0.507839417 40.9234967,2.99084382 45.6842105,7.10396155 Z" id="Combined-Shape" fill="#FF5E00"></path>
                            <path d="M45.6842105,7.10396155 C39.8222777,12.1685004 36.1052632,19.7045092 36.1052632,28.1197797 C36.1052632,36.5350502 39.8222777,44.071059 45.6842105,49.1355979 C40.9234967,53.2487156 34.748054,55.73172 28,55.73172 C12.9429737,55.73172 0.736842105,43.3694333 0.736842105,28.1197797 C0.736842105,12.8701262 12.9429737,0.507839417 28,0.507839417 C34.748054,0.507839417 40.9234967,2.99084382 45.6842105,7.10396155 Z" id="Combined-Shape" fill="#ED0006"></path>
                            <path d="M45.6842105,49.1355979 C51.5461434,44.071059 55.2631579,36.5350502 55.2631579,28.1197797 C55.2631579,19.7045092 51.5461434,12.1685004 45.6842105,7.10396155 C50.4449243,2.99084382 56.6203671,0.507839417 63.3684211,0.507839417 C78.4254474,0.507839417 90.6315789,12.8701262 90.6315789,28.1197797 C90.6315789,43.3694333 78.4254474,55.73172 63.3684211,55.73172 C56.6203671,55.73172 50.4449243,53.2487156 45.6842105,49.1355979 Z" id="Combined-Shape" fill="#F9A000"></path>
                        </g>
                    </g>
                </g>
            </g>
        </g>
    </g>
</svg>