<?xml version="1.0" encoding="UTF-8"?>
<svg width="144px" height="144px" viewBox="0 0 144 144" version="1.1" xmlns="http://www.w3.org/2000/svg" xmlns:xlink="http://www.w3.org/1999/xlink">
    <!-- Generator: Sketch 51.1 (57501) - http://www.bohemiancoding.com/sketch -->
    <title>Illustration/search-dark</title>
    <desc>Created with Sketch.</desc>
    <defs></defs>
    <g id="Illustration/search-dark" stroke="none" stroke-width="1" fill="none" fill-rule="evenodd">
        <g id="Icon/24/search-dark">
            <path d="M93,84 L88.26,84 L86.58,82.38 C92.46,75.54 96,66.66 96,57 C96,35.46 78.54,18 57,18 C35.46,18 18,35.46 18,57 C18,78.54 35.46,96 57,96 C66.66,96 75.54,92.46 82.38,86.58 L84,88.26 L84,93 L114,122.94 L122.94,114 L93,84 Z M57,84 C42.06,84 30,71.94 30,57 C30,42.06 42.06,30 57,30 C71.94,30 84,42.06 84,57 C84,71.94 71.94,84 57,84 Z" id="Shape" fill="#9CA8AF" fill-rule="nonzero"></path>
            <polygon id="Shape" points="0 0 144 0 144 144 0 144"></polygon>
        </g>
    </g>
</svg>